<?xml version="1.0" standalone="no"?>
<!DOCTYPE svg PUBLIC "-//W3C//DTD SVG 1.1//EN" "http://www.w3.org/Graphics/SVG/1.1/DTD/svg11.dtd" >
<svg xmlns="http://www.w3.org/2000/svg" xmlns:xlink="http://www.w3.org/1999/xlink" version="1.1">
<metadata>
Created by FontForge 20170731 at Thu Jul 27 02:01:53 2017
 By Aleksey,,,
Copyright 2017 Google Inc. All Rights Reserved.
</metadata>
<defs>
<font id="GoogleSans-Regular" horiz-adv-x="650" >
  <font-face 
    font-family="Google Sans"
    font-weight="400"
    font-stretch="normal"
    units-per-em="1000"
    panose-1="2 11 5 3 3 5 2 4 2 4"
    ascent="800"
    descent="-200"
    x-height="510"
    cap-height="716"
    bbox="-365 -253 1477 959"
    underline-thickness="84"
    underline-position="-244"
    unicode-range="U+0002-2792"
  />
<missing-glyph horiz-adv-x="580" 
d="M501 0h-422v716h422v-716zM441 57v602h-302v-602h302z" />
    <glyph glyph-name="f_b.liga" unicode="fb" horiz-adv-x="977" 
d="M593.5 10.5q-46.5 26.5 -70.5 64.5h-4v-75h-80v643h-148q-37 0 -60.5 -22.5t-23.5 -64.5v-46h131v-77h-131v-433h-85v433h-94v77h94v48q0 74 47 118t122 44h232v-218l-4 -68h4q23 39 70 65.5t105 26.5q68 0 123.5 -35t87.5 -97t32 -139q0 -78 -32 -139.5t-87.5 -96.5
t-123.5 -35q-58 0 -104.5 26.5zM771 85q39 24 62.5 68.5t23.5 101.5t-23.5 101.5t-62.5 68.5t-83 24q-45 0 -83.5 -24t-62 -68t-23.5 -102t23.5 -102t62 -68t83.5 -24q44 0 83 24z" />
    <glyph glyph-name="f_f.liga" unicode="ff" horiz-adv-x="695" 
d="M122 433h-94v77h94v55q0 48 22 84t59 55.5t82 19.5q43 0 75 -12v-83q-18 7 -34 11.5t-38 4.5q-33 0 -57 -23.5t-24 -65.5v-46h232v55q0 48 21.5 84t59 55.5t82.5 19.5q41 0 75 -12v-83q-20 8 -35.5 12t-37.5 4q-33 0 -57 -23.5t-24 -65.5v-46h131v-77h-131v-433h-84v433
h-232v-433h-85v433z" />
    <glyph glyph-name="f_f_b.liga" unicode="ffb" horiz-adv-x="1294" 
d="M909.5 10.5q-46.5 26.5 -70.5 64.5h-4v-75h-80v643h-147q-38 0 -61.5 -22.5t-23.5 -64.5v-46h131v-77h-131v-433h-84v433h-232v-433h-85v433h-94v77h94v55q0 48 22 84t59 55.5t82 19.5q43 0 75 -12v-83q-18 7 -34 11.5t-38 4.5q-33 0 -57 -23.5t-24 -65.5v-46h232v48
q0 74 47 118t122 44h231v-218l-4 -68h4q23 39 70 65.5t105 26.5q68 0 124 -35t88 -97t32 -139q0 -78 -32 -139.5t-88 -96.5t-124 -35q-58 0 -104.5 26.5zM1087 85q39 24 62.5 68.5t23.5 101.5t-23.5 101.5t-62.5 68.5t-83 24q-45 0 -83.5 -24t-62 -68t-23.5 -102t23.5 -102
t62 -68t83.5 -24q44 0 83 24z" />
    <glyph glyph-name="f_f_h.liga" unicode="ffh" horiz-adv-x="1255" 
d="M122 433h-94v77h94v55q0 48 22 84t59 55.5t82 19.5q43 0 75 -12v-83q-18 7 -34 11.5t-38 4.5q-33 0 -57 -23.5t-24 -65.5v-46h232v48q0 74 47 118t122 44h231v-215l-4 -70h4q22 39 67.5 65t99.5 26q93 0 141.5 -54.5t48.5 -144.5v-327h-84v314q0 69 -35 102t-91 33
q-41 0 -74.5 -24t-53 -62t-19.5 -79v-284h-84v643h-147q-38 0 -61.5 -22.5t-23.5 -64.5v-46h131v-77h-131v-433h-84v433h-232v-433h-85v433z" />
    <glyph glyph-name="f_f_i.liga" unicode="ffi" horiz-adv-x="910" 
d="M122 433h-94v77h94v55q0 48 22 84t59 55.5t82 19.5q43 0 75 -12v-83q-18 7 -34 11.5t-38 4.5q-33 0 -57 -23.5t-24 -65.5v-46h232v55q0 48 21.5 84t59 55.5t82.5 19.5q41 0 75 -12v-83q-20 8 -35.5 12t-37.5 4q-33 0 -57 -23.5t-24 -65.5v-46h316v-510h-84v433h-232v-433
h-84v433h-232v-433h-85v433zM754 616q-18 18 -18 43q0 26 18 43.5t43 17.5q26 0 43.5 -17.5t17.5 -43.5q0 -25 -17.5 -43t-43.5 -18q-25 0 -43 18z" />
    <glyph glyph-name="f_f_j.liga" unicode="ffj" horiz-adv-x="910" 
d="M654 -219v81q8 -5 20 -8t22 -3q31 0 45 19.5t14 57.5v505h-232v-433h-84v433h-232v-433h-85v433h-94v77h94v55q0 48 22 84t59 55.5t82 19.5q43 0 75 -12v-83q-18 7 -34 11.5t-38 4.5q-33 0 -57 -23.5t-24 -65.5v-46h232v55q0 48 21.5 84t59 55.5t82.5 19.5q41 0 75 -12
v-83q-20 8 -35.5 12t-37.5 4q-33 0 -57 -23.5t-24 -65.5v-46h316v-582q0 -77 -37 -115.5t-103 -38.5q-24 0 -45 7zM754 616q-18 18 -18 43q0 26 18 43.5t43 17.5q26 0 43.5 -17.5t17.5 -43.5q0 -25 -17.5 -43t-43.5 -18q-25 0 -43 18z" />
    <glyph glyph-name="f_f_k.liga" unicode="ffk" horiz-adv-x="1197" 
d="M122 433h-94v77h94v55q0 48 22 84t59 55.5t82 19.5q43 0 75 -12v-83q-18 7 -34 11.5t-38 4.5q-33 0 -57 -23.5t-24 -65.5v-46h232v48q0 74 47 118t122 44h231v-454l241 244h108v-4l-200 -202l205 -300v-4h-101l-164 245l-89 -88v-157h-84v643h-147q-38 0 -61.5 -22.5
t-23.5 -64.5v-46h131v-77h-131v-433h-84v433h-232v-433h-85v433z" />
    <glyph glyph-name="f_f_l.liga" unicode="ffl" horiz-adv-x="903" 
d="M122 433h-94v77h94v55q0 48 22 84t59 55.5t82 19.5q43 0 75 -12v-83q-18 7 -34 11.5t-38 4.5q-33 0 -57 -23.5t-24 -65.5v-46h232v48q0 74 47 118t122 44h231v-720h-84v643h-147q-38 0 -61.5 -22.5t-23.5 -64.5v-46h131v-77h-131v-433h-84v433h-232v-433h-85v433z" />
    <glyph glyph-name="f_f_t.liga" unicode="fft" horiz-adv-x="1004" 
d="M839 2q-27 10 -44 27q-20 19 -30 44t-10 61v299h-232v-433h-84v433h-232v-433h-85v433h-94v77h94v55q0 48 22 84t59 55.5t82 19.5q43 0 75 -12v-83q-18 7 -34 11.5t-38 4.5q-33 0 -57 -23.5t-24 -65.5v-46h232v55q0 48 21.5 84t59 55.5t82.5 19.5q41 0 75 -12v-83
q-20 8 -35.5 12t-37.5 4q-33 0 -57 -23.5t-24 -65.5v-46h232v144h84v-144h125v-77h-125v-278q0 -42 17 -62q19 -22 55 -22q29 0 56 17v-83q-16 -7 -31 -10t-39 -3q-31 0 -58 10z" />
    <glyph glyph-name="f_h.liga" unicode="fh" horiz-adv-x="939" 
d="M122 433h-94v77h94v48q0 74 47 118t122 44h232v-215l-4 -70h4q22 39 67.5 65t99.5 26q93 0 141.5 -54.5t48.5 -144.5v-327h-84v314q0 69 -35.5 102t-91.5 33q-40 0 -73.5 -24t-53 -62t-19.5 -79v-284h-84v643h-148q-37 0 -60.5 -22.5t-23.5 -64.5v-46h131v-77h-131v-433
h-85v433z" />
    <glyph glyph-name="f_i.liga" unicode="fi" horiz-adv-x="594" 
d="M122 433h-94v77h94v55q0 48 22 84t59 55.5t82 19.5q43 0 75 -12v-83q-18 7 -34 11.5t-38 4.5q-33 0 -57 -23.5t-24 -65.5v-46h316v-510h-84v433h-232v-433h-85v433zM438 617q-18 18 -18 43t18 43t43 18t43 -18t18 -43t-17.5 -43t-43.5 -18q-25 0 -43 18z" />
    <glyph glyph-name="f_j.liga" unicode="fj" horiz-adv-x="594" 
d="M338 -219v81q20 -11 42 -11q31 0 45 19.5t14 57.5v505h-232v-433h-85v433h-94v77h94v55q0 48 22 84t59 55.5t82 19.5q43 0 75 -12v-83q-18 7 -34 11.5t-38 4.5q-33 0 -57 -23.5t-24 -65.5v-46h316v-582q0 -77 -37 -115.5t-103 -38.5q-24 0 -45 7zM438 616q-18 18 -18 43
q0 26 18 43.5t43 17.5q26 0 43.5 -17.5t17.5 -43.5q0 -25 -17.5 -43t-43.5 -18q-25 0 -43 18z" />
    <glyph glyph-name="f_k.liga" unicode="fk" horiz-adv-x="881" 
d="M122 433h-94v77h94v48q0 74 47 118t122 44h232v-454l241 244h108v-4l-200 -202l205 -300v-4h-101l-164 245l-89 -88v-157h-84v643h-148q-37 0 -60.5 -22.5t-23.5 -64.5v-46h131v-77h-131v-433h-85v433z" />
    <glyph glyph-name="f_l.liga" unicode="fl" horiz-adv-x="586" 
d="M122 433h-94v77h94v48q0 74 47 118t122 44h232v-720h-84v643h-148q-37 0 -60.5 -22.5t-23.5 -64.5v-46h131v-77h-131v-433h-85v433z" />
    <glyph glyph-name="f_t.liga" unicode="ft" horiz-adv-x="688" 
d="M523 2q-27 10 -45 27q-20 19 -29.5 44.5t-9.5 60.5v299h-232v-433h-85v433h-94v77h94v55q0 48 22 84t59 55.5t82 19.5q43 0 75 -12v-83q-18 7 -34 11.5t-38 4.5q-33 0 -57 -23.5t-24 -65.5v-46h232v144h84v-144h125v-77h-125v-278q0 -42 17 -62q17 -22 55 -22q30 0 55 17
v-83q-15 -7 -30 -10t-39 -3q-31 0 -58 10z" />
    <glyph glyph-name="r_f.liga" unicode="rf" horiz-adv-x="756" 
d="M499 433h-95v77h95v55q0 48 22 84t59 55.5t82 19.5q43 0 75 -12v-83q-20 8 -35.5 12t-36.5 4q-34 0 -57.5 -23.5t-23.5 -65.5v-46h130v-77h-130v-433h-85v433zM63 510h81v-81h4q18 45 61 70t94 25q22 0 37 -3v-87q-17 4 -46 4q-65 0 -105.5 -43t-40.5 -112v-283h-85v510z
" />
    <glyph glyph-name="r_f_f.liga" unicode="rff" horiz-adv-x="1064" 
d="M63 510h81v-81h4q18 45 61 70t94 25q22 0 37 -3v-87q-17 4 -46 4q-65 0 -105.5 -43t-40.5 -112v-283h-85v510zM491 433h-94v77h94v55q0 48 22 84t59 55.5t82 19.5q43 0 75 -12v-83q-18 7 -34 11.5t-38 4.5q-33 0 -57 -23.5t-24 -65.5v-46h232v55q0 48 21.5 84t59 55.5
t82.5 19.5q41 0 75 -12v-83q-20 8 -35.5 12t-37.5 4q-33 0 -57 -23.5t-24 -65.5v-46h131v-77h-131v-433h-84v433h-232v-433h-85v433z" />
    <glyph glyph-name="r_t.liga" unicode="rt" horiz-adv-x="745" 
d="M63 510h81v-81h4q18 45 61 70t94 25q22 0 37 -3v-87q-17 4 -46 4q-65 0 -105.5 -43t-40.5 -112v-283h-85v510zM580.5 2q-26.5 10 -44.5 27q-20 19 -30 44t-10 61v299h-89v77h89v144h85v-144h124v-77h-124v-278q0 -42 16 -62q19 -22 55 -22q29 0 56 17v-83
q-15 -7 -30.5 -10t-39.5 -3q-31 0 -57.5 10z" />
    <glyph glyph-name="t_f.liga" unicode="tf" horiz-adv-x="690" 
d="M201.5 2q-26.5 10 -44.5 27q-20 19 -30 44t-10 61v299h-89v77h89v144h85v-144h231v55q0 48 22 84t59 55.5t82 19.5q43 0 75 -12v-83q-18 7 -34 11.5t-38 4.5q-33 0 -57 -23.5t-24 -65.5v-46h131v-77h-131v-433h-85v433h-231v-278q0 -42 16 -62q19 -22 55 -22q29 0 56 17
v-83q-15 -7 -30.5 -10t-39.5 -3q-31 0 -57.5 10z" />
    <glyph glyph-name="t_t.liga" unicode="tt" horiz-adv-x="681" 
d="M201.5 2q-26.5 10 -44.5 27q-20 19 -30 44t-10 61v299h-89v77h89v144h85v-144h230v144h84v-144h125v-77h-125v-278q0 -42 17 -62q17 -22 55 -22q30 0 55 17v-83q-15 -7 -30 -10t-39 -3q-31 0 -58 10t-45 27q-20 19 -29.5 44.5t-9.5 60.5v299h-230v-278q0 -42 16 -62
q19 -22 55 -22q29 0 56 17v-83q-15 -7 -30.5 -10t-39.5 -3q-31 0 -57.5 10z" />
    <glyph glyph-name=".notdef" horiz-adv-x="580" 
d="M501 0h-422v716h422v-716zM441 57v602h-302v-602h302z" />
    <glyph glyph-name=".null" horiz-adv-x="0" 
 />
    <glyph glyph-name="uni000D" unicode="&#xd;" horiz-adv-x="0" 
 />
    <glyph glyph-name="uni0002" horiz-adv-x="0" 
 />
    <glyph glyph-name="uni0009" unicode="&#x9;" horiz-adv-x="0" 
 />
    <glyph glyph-name="uni000A" unicode="&#xa;" horiz-adv-x="0" 
 />
    <glyph glyph-name="space" unicode=" " horiz-adv-x="232" 
 />
    <glyph glyph-name="exclam" unicode="!" horiz-adv-x="238" 
d="M77 473v243h84v-243l-10 -262h-65zM73.5 12.5q-18.5 18.5 -18.5 45.5q0 26 18.5 44.5t45.5 18.5q26 0 44.5 -18.5t18.5 -44.5q0 -27 -18.5 -45.5t-44.5 -18.5q-27 0 -45.5 18.5z" />
    <glyph glyph-name="quotedbl" unicode="&#x22;" horiz-adv-x="322" 
d="M51 716h77v-221h-77v221zM194 716h77v-221h-77v221z" />
    <glyph glyph-name="numbersign" unicode="#" horiz-adv-x="641" 
d="M154 206h-124l12 70h123l21 141h-125l11 70h124l29 197h74l-29 -197h142l29 197h74l-29 -197h124l-11 -70h-123l-21 -141h125l-11 -70h-125l-31 -206h-74l31 206h-142l-31 -206h-74zM381 276l21 141h-142l-21 -141h142z" />
    <glyph glyph-name="dollar" unicode="$" horiz-adv-x="542" 
d="M443 48q-53 -49 -132 -61v-87h-70v86q-70 8 -130.5 55.5t-80.5 126.5l76 30q14 -50 50.5 -86t84.5 -45v251l-3 1q-90 36 -136 83t-46 117q0 44 22.5 83.5t64.5 65.5t98 31v85h70v-87q70 -11 112.5 -50.5t57.5 -84.5l-76 -32q-8 28 -31.5 51.5t-62.5 32.5v-235
q88 -37 136.5 -81t48.5 -118q0 -83 -53 -132zM165.5 456q24.5 -26 75.5 -49v210q-45 -7 -72.5 -33.5t-27.5 -64.5q0 -37 24.5 -63zM384.5 106q27.5 28 27.5 72q0 37 -25 62.5t-76 48.5v-220q46 9 73.5 37z" />
    <glyph glyph-name="percent" unicode="%" horiz-adv-x="827" 
d="M124.5 381.5q-39.5 23.5 -62 63t-22.5 84.5t22.5 84.5t62 63t85.5 23.5t85 -23.5t61.5 -63t22.5 -84.5t-22.5 -84.5t-61.5 -63t-85 -23.5t-85.5 23.5zM164 28l445 663l53 -36l-444 -662zM282 451.5q29 31.5 29 77.5q0 47 -29 78t-72 31t-72.5 -31t-29.5 -78
q0 -46 29.5 -77.5t72.5 -31.5t72 31.5zM532.5 7.5q-39.5 23.5 -62 63t-22.5 84.5t22.5 84.5t62 63t85.5 23.5t85 -23.5t61.5 -63t22.5 -84.5t-22.5 -84.5t-61.5 -63t-85 -23.5t-85.5 23.5zM690 77.5q29 31.5 29 77.5q0 47 -29 78t-72 31t-72.5 -31t-29.5 -78
q0 -46 29.5 -77.5t72.5 -31.5t72 31.5z" />
    <glyph glyph-name="ampersand" unicode="&#x26;" horiz-adv-x="628" 
d="M516 121l68 -89l-64 -48l-51 68q-70 -68 -167 -68q-71 0 -130.5 33t-94 90.5t-34.5 127.5q0 63 34 119.5t92 92.5l-1 1q-26 34 -39 62.5t-13 58.5q0 44 23 81.5t62 59.5t85 22q60 0 101 -34.5t58 -86.5l-73 -39q-13 34 -32.5 56.5t-53.5 22.5q-37 0 -61 -22.5t-24 -59.5
t25 -69l241 -315l66 113l67 -40zM422 114l-206 271q-43 -23 -69 -63.5t-26 -85.5q0 -50 24 -90t65.5 -62.5t91.5 -22.5q73 0 120 53z" />
    <glyph glyph-name="quotesingle" unicode="'" horiz-adv-x="180" 
d="M51 716h77v-221h-77v221z" />
    <glyph glyph-name="parenleft" unicode="(" horiz-adv-x="323" 
d="M115.5 67.5q-52.5 119.5 -52.5 254.5t52.5 254.5t125.5 203.5l62 -44q-68 -81 -112 -190.5t-44 -223.5t44 -223.5t112 -190.5l-62 -44q-73 84 -125.5 203.5z" />
    <glyph glyph-name="parenright" unicode=")" horiz-adv-x="323" 
d="M20 -92q68 81 112 190.5t44 223.5t-44 223.5t-112 190.5l62 44q73 -84 125.5 -203.5t52.5 -254.5t-52.5 -254.5t-125.5 -203.5z" />
    <glyph glyph-name="asterisk" unicode="*" horiz-adv-x="427" 
d="M77 418l76 103l-2 8l-112 38l23 67l110 -39l6 2v119h71v-119l5 -2l111 39l23 -67l-112 -38l-3 -8l77 -103l-58 -42l-75 103h-7l-75 -103z" />
    <glyph glyph-name="plus" unicode="+" horiz-adv-x="558" 
d="M496 236h-182v-182h-70v182h-182v70h182v182h70v-182h182v-70z" />
    <glyph glyph-name="comma" unicode="," horiz-adv-x="241" 
d="M51 -83l53 83q-18 3 -32 19t-14 39q0 26 18.5 44.5t45.5 18.5t45.5 -18.5t18.5 -44.5q0 -17 -7 -32.5t-21 -35.5l-66 -100z" />
    <glyph glyph-name="hyphen" unicode="-" horiz-adv-x="441" 
d="M62 345h317v-70h-317v70z" />
    <glyph glyph-name="period" unicode="." horiz-adv-x="238" 
d="M73.5 12.5q-18.5 18.5 -18.5 45.5q0 26 18.5 44.5t45.5 18.5q26 0 44.5 -18.5t18.5 -44.5q0 -27 -18.5 -45.5t-44.5 -18.5q-27 0 -45.5 18.5z" />
    <glyph glyph-name="slash" unicode="/" horiz-adv-x="438" 
d="M328 716h79l-297 -716h-79z" />
    <glyph glyph-name="zero" unicode="0" horiz-adv-x="645" 
d="M178.5 31.5q-62.5 47.5 -96 129t-33.5 181.5t33.5 181.5t95.5 129t144 47.5t144 -47.5t95.5 -129t33.5 -181.5t-33.5 -181.5t-96 -129t-143.5 -47.5t-143.5 47.5zM421 101.5q42 36.5 65 99.5t23 141t-23 141t-65 99.5t-99 36.5t-99 -36.5t-65 -99.5t-23 -141t23 -141
t65 -99.5t99 -36.5t99 36.5z" />
    <glyph glyph-name="one" unicode="1" horiz-adv-x="380" 
d="M209 565l-120 -86l-44 65l195 140h54v-684h-85v565z" />
    <glyph glyph-name="two" unicode="2" horiz-adv-x="525" 
d="M45 85q31 31 123 124.5t128 132.5q51 55 69 86t18 75q0 30 -15.5 56.5t-45 43t-70.5 16.5q-54 0 -86.5 -31.5t-42.5 -68.5l-78 31q10 32 36 66.5t70 59t104 24.5q63 0 111.5 -27t75.5 -72t27 -97q0 -105 -110 -217l-205 -206h323v-81h-432v85z" />
    <glyph glyph-name="three" unicode="3" horiz-adv-x="535" 
d="M173 2q-45 18 -81.5 56.5t-52.5 96.5l77 32q16 -58 54.5 -90t90.5 -32q38 0 71 16.5t52.5 46t19.5 65.5q0 35 -19.5 64t-53 45.5t-73.5 16.5h-59v79h53q55 0 92 31.5t37 83.5q0 48 -36 77t-89 29q-52 0 -81.5 -27t-42.5 -66l-78 33q18 54 69.5 97.5t132.5 43.5
q60 0 108 -24t75.5 -67t27.5 -96t-27 -90t-67 -58v-4q51 -21 84 -64.5t33 -102.5q0 -60 -30.5 -108t-83 -75t-115.5 -27q-43 0 -88 18z" />
    <glyph glyph-name="four" unicode="4" horiz-adv-x="592" 
d="M373 147h-328v64l320 473h92v-457h88v-80h-88v-147h-84v147zM373 227v333h-4l-227 -333h231z" />
    <glyph glyph-name="five" unicode="5" horiz-adv-x="563" 
d="M179 4.5q-47 20.5 -83 62t-51 102.5l75 30q15 -61 55.5 -97.5t96.5 -36.5q67 0 109 41t42 107q0 65 -41.5 107.5t-107.5 42.5q-36 0 -68 -16.5t-52 -45.5l-87 38l45 345h354v-81h-284l-27 -207l4 -1q53 45 130 45q59 0 109.5 -29t80.5 -81t30 -116t-30.5 -116.5
t-84.5 -83t-120 -30.5q-48 0 -95 20.5z" />
    <glyph glyph-name="six" unicode="6" horiz-adv-x="557" 
d="M157.5 17q-53.5 33 -83 85.5t-29.5 110.5q0 55 22.5 105.5t64.5 112.5l179 269l68 -47l-172 -241l2 -2q34 24 88 24q52 0 102 -29t81.5 -79.5t31.5 -112.5q0 -60 -32 -112.5t-85.5 -84.5t-115.5 -32q-68 0 -121.5 33zM353 84.5q34 19.5 54 53t20 74.5q0 40 -20 73.5
t-54 53t-74 19.5t-74.5 -19.5t-54.5 -53t-20 -73.5q0 -41 20 -74.5t54.5 -53t74.5 -19.5t74 19.5z" />
    <glyph glyph-name="seven" unicode="7" horiz-adv-x="529" 
d="M77 23l319 580h-351v81h439v-87l-332 -613z" />
    <glyph glyph-name="eight" unicode="8" horiz-adv-x="551" 
d="M158 11q-53 27 -83 73.5t-30 103.5q0 58 31.5 101.5t82.5 68.5v4q-40 24 -65.5 63.5t-25.5 82.5q0 54 26.5 98t74 69t107.5 25q59 0 106.5 -25t74 -69t26.5 -98q0 -43 -25.5 -82.5t-64.5 -63.5v-4q51 -25 82.5 -68.5t31.5 -101.5q0 -57 -30.5 -103.5t-83.5 -73.5
t-117 -27q-65 0 -118 27zM363 429q34 31 34 81t-34.5 79.5t-86.5 29.5q-53 0 -87.5 -29.5t-34.5 -79.5t34.5 -81t87.5 -31t87 31zM378.5 100.5q41.5 35.5 41.5 92.5q0 55 -41.5 90.5t-102.5 35.5t-103 -35.5t-42 -90.5q0 -57 42 -92.5t103 -35.5t102.5 35.5z" />
    <glyph glyph-name="nine" unicode="9" horiz-adv-x="557" 
d="M178 31l172 241l-2 2q-35 -24 -89 -24q-52 0 -102 29t-81 79.5t-31 112.5q0 60 31.5 112.5t85 84.5t116.5 32q68 0 121.5 -33t83 -85.5t29.5 -110.5q0 -55 -22.5 -105.5t-64.5 -112.5l-179 -269zM352.5 345.5q34.5 19.5 54.5 53t20 73.5q0 41 -20 74.5t-54.5 53
t-74.5 19.5t-74 -19.5t-54 -53t-20 -74.5q0 -40 20 -73.5t54 -53t74 -19.5t74.5 19.5z" />
    <glyph glyph-name="colon" unicode=":" horiz-adv-x="238" 
d="M73.5 406.5q-18.5 18.5 -18.5 45.5t18.5 45.5t45.5 18.5q26 0 44.5 -18.5t18.5 -45.5t-18.5 -45.5t-44.5 -18.5q-27 0 -45.5 18.5zM73.5 12.5q-18.5 18.5 -18.5 45.5q0 26 18.5 44.5t45.5 18.5q26 0 44.5 -18.5t18.5 -44.5q0 -27 -18.5 -45.5t-44.5 -18.5
q-27 0 -45.5 18.5z" />
    <glyph glyph-name="semicolon" unicode=";" horiz-adv-x="245" 
d="M79.5 406.5q-18.5 18.5 -18.5 45.5t18.5 45.5t45.5 18.5q26 0 44.5 -18.5t18.5 -45.5t-18.5 -45.5t-44.5 -18.5q-27 0 -45.5 18.5zM56 -67l53 83q-18 3 -32 19t-14 39q0 26 18.5 44.5t45.5 18.5t45.5 -18.5t18.5 -44.5q0 -17 -7 -32.5t-21 -35.5l-66 -100z" />
    <glyph glyph-name="less" unicode="&#x3c;" horiz-adv-x="497" 
d="M55 240v62l383 184v-78l-293 -135v-4l293 -135v-78z" />
    <glyph glyph-name="equal" unicode="=" horiz-adv-x="568" 
d="M61 449h446v-70h-446v70zM61 259h446v-70h-446v70z" />
    <glyph glyph-name="greater" unicode="&#x3e;" horiz-adv-x="497" 
d="M59 134l293 135v4l-293 135v78l383 -184v-62l-383 -184v78z" />
    <glyph glyph-name="question" unicode="?" horiz-adv-x="504" 
d="M201 259q0 50 19 83t68 79q40 36 57.5 61.5t17.5 61.5q0 48 -31 77.5t-86 29.5q-50 0 -79.5 -28.5t-44.5 -70.5l-79 33q22 58 72 102.5t130 44.5q60 0 106.5 -24.5t72 -67.5t25.5 -96q0 -55 -27.5 -93.5t-70.5 -77.5q-33 -30 -48 -57t-15 -63v-42h-87v48zM199.5 12.5
q-18.5 18.5 -18.5 45.5q0 26 18.5 44.5t44.5 18.5q27 0 45.5 -18.5t18.5 -44.5q0 -27 -18.5 -45.5t-45.5 -18.5q-26 0 -44.5 18.5z" />
    <glyph glyph-name="at" unicode="@" horiz-adv-x="884" 
d="M245.5 -30q-89.5 52 -141 140.5t-51.5 193.5t51.5 193.5t141.5 140.5t198 52t196.5 -52t139.5 -140.5t51 -193.5q0 -91 -38.5 -149.5t-109.5 -58.5q-37 0 -66.5 20.5t-44.5 55.5q-24 -37 -60.5 -56.5t-82.5 -19.5q-53 0 -97.5 26t-70 72.5t-25.5 105.5q0 58 26 105
t69.5 73t94.5 26q39 0 72.5 -16.5t57.5 -45.5h4v48h67v-261q0 -29 15.5 -51t46.5 -22q42 0 58.5 44.5t16.5 103.5q0 88 -43 161t-116 115.5t-161 42.5t-161.5 -42.5t-116.5 -115.5t-43 -161t43 -161t116.5 -115.5t161.5 -42.5q71 0 127 28l26 -63q-70 -32 -153 -32
q-109 0 -198.5 52zM524 202.5q37 36.5 37 97.5t-37 97.5t-89 36.5t-88.5 -37t-36.5 -97t36.5 -97t88.5 -37t89 36.5z" />
    <glyph glyph-name="A" unicode="A" horiz-adv-x="669" 
d="M286 716h96l272 -716h-93l-72 197h-309l-72 -197h-93zM460 277l-95 258l-29 77h-4l-28 -77l-95 -258h251z" />
    <glyph glyph-name="B" unicode="B" horiz-adv-x="606" 
d="M80 716h257q54 0 101.5 -25t75.5 -69t28 -99q0 -52 -26.5 -91t-71.5 -60v-4q54 -18 88 -62t34 -103q0 -58 -29.5 -104.5t-79 -72.5t-106.5 -26h-271v716zM337 406q36 0 63.5 17t42.5 43.5t15 54.5q0 27 -14.5 53.5t-41 43.5t-61.5 17h-177v-229h173zM356 81q36 0 64.5 18
t44 46.5t15.5 58.5t-16 58.5t-45 46t-67 17.5h-188v-245h192z" />
    <glyph glyph-name="C" unicode="C" horiz-adv-x="741" 
d="M227 33q-85 49 -133.5 134.5t-48.5 190.5t48.5 190.5t133.5 134.5t189 49q80 0 146.5 -30.5t115.5 -86.5l-61 -59q-41 49 -89.5 72t-111.5 23q-78 0 -143 -36.5t-103.5 -103t-38.5 -153.5t38.5 -153.5t103.5 -103t143 -36.5q130 0 221 107l62 -60q-50 -59 -123 -93.5
t-160 -34.5q-104 0 -189 49z" />
    <glyph glyph-name="D" unicode="D" horiz-adv-x="703" 
d="M80 716h216q110 0 192 -45.5t126 -126.5t44 -186t-44 -186t-126 -126.5t-192 -45.5h-216v716zM296 81q127 0 201.5 73t74.5 204t-74.5 204t-201.5 73h-132v-554h132z" />
    <glyph glyph-name="E" unicode="E" horiz-adv-x="551" 
d="M80 716h414v-81h-330v-237h298v-80h-298v-237h330v-81h-414v716z" />
    <glyph glyph-name="F" unicode="F" horiz-adv-x="531" 
d="M80 716h414v-81h-330v-245h298v-80h-298v-310h-84v716z" />
    <glyph glyph-name="G" unicode="G" horiz-adv-x="813" 
d="M230 33q-85 49 -135 135t-50 190t50 190t135 135t186 49q79 0 148.5 -28t114.5 -79l-61 -61q-34 42 -87 64.5t-114 22.5q-76 0 -141.5 -36.5t-105 -103t-39.5 -153.5t39.5 -153.5t105.5 -103t141 -36.5q72 0 120.5 22.5t83.5 59.5q26 28 42 67.5t20 87.5h-265v79h344
q5 -28 5 -52q0 -66 -21 -128.5t-67 -109.5q-99 -107 -263 -107q-101 0 -186 49z" />
    <glyph glyph-name="H" unicode="H" horiz-adv-x="698" 
d="M80 716h84v-310h370v310h84v-716h-84v326h-370v-326h-84v716z" />
    <glyph glyph-name="I" unicode="I" horiz-adv-x="244" 
d="M80 716h84v-716h-84v716z" />
    <glyph glyph-name="J" unicode="J" horiz-adv-x="530" 
d="M109 27.5q-59 43.5 -83 122.5l80 33q36 -118 141 -118q59 0 94.5 41t35.5 108v502h85v-495q0 -75 -27.5 -128.5t-76 -81t-111.5 -27.5q-79 0 -138 43.5z" />
    <glyph glyph-name="K" unicode="K" horiz-adv-x="625" 
d="M80 716h84v-377h4l323 377h109v-4l-265 -306l284 -402v-4h-103l-238 341l-114 -131v-210h-84v716z" />
    <glyph glyph-name="L" unicode="L" horiz-adv-x="509" 
d="M80 716h84v-635h314v-81h-398v716z" />
    <glyph glyph-name="M" unicode="M" horiz-adv-x="866" 
d="M80 716h123l228 -587h4l228 587h123v-716h-84v455l4 136h-4l-234 -591h-70l-234 591h-4l4 -136v-455h-84v716z" />
    <glyph glyph-name="N" unicode="N" horiz-adv-x="708" 
d="M80 716h104l359 -570h4l-4 138v432h85v-716h-88l-376 597h-4l4 -138v-459h-84v716z" />
    <glyph glyph-name="O" unicode="O" horiz-adv-x="825" 
d="M225 34q-84 50 -132 135.5t-48 188.5q0 102 48 188t132 136t187 50t187 -50t132.5 -136t48.5 -188q0 -103 -48 -188.5t-132.5 -135.5t-187.5 -50t-187 50zM553.5 102.5q64.5 37.5 102 104t37.5 151.5t-37.5 151.5t-102 104t-141.5 37.5t-141 -37.5t-102 -104.5t-38 -151
t38 -151t102 -104.5t141 -37.5t141.5 37.5z" />
    <glyph glyph-name="P" unicode="P" horiz-adv-x="576" 
d="M80 716h241q60 0 111 -27t81.5 -75.5t30.5 -109.5t-30.5 -109.5t-81.5 -75.5t-111 -27h-157v-292h-84v716zM323 373q40 0 70.5 19t47.5 49t17 63t-17 63t-47.5 49t-70.5 19h-159v-262h159z" />
    <glyph glyph-name="Q" unicode="Q" horiz-adv-x="825" 
d="M587 27q-81 -43 -175 -43q-103 0 -187 50t-132 135.5t-48 188.5q0 102 48 188t132 136t187 50t187 -50t132.5 -136t48.5 -188q0 -85 -33.5 -159.5t-94.5 -126.5l50 -74l-66 -43zM541 96l-87 130l66 45l86 -129q41 39 64 94.5t23 121.5q0 85 -37.5 151.5t-102 104
t-141.5 37.5t-141 -37.5t-102 -104.5t-38 -151t38 -151t102 -104.5t141 -37.5q67 0 129 31z" />
    <glyph glyph-name="R" unicode="R" horiz-adv-x="586" 
d="M80 716h242q59 0 110 -27t81.5 -75.5t30.5 -109.5q0 -50 -22.5 -93t-62 -72t-87.5 -39l-2 -3l202 -293v-4h-100l-195 292h-113v-292h-84v716zM317 371q37 0 69.5 17t52 47.5t19.5 68.5q0 33 -17 63t-47.5 49t-70.5 19h-159v-264h153z" />
    <glyph glyph-name="S" unicode="S" horiz-adv-x="561" 
d="M126 35q-70 51 -96 143l81 33q17 -64 63 -105t108 -41t105 33.5t43 91.5q0 50 -36.5 82.5t-119.5 60.5l-45 16q-76 27 -124 71t-48 122q0 51 28 94.5t78 69.5t112 26t108 -23t73.5 -56t38.5 -65l-80 -34q-10 37 -45.5 67t-93.5 30q-55 0 -94 -31t-39 -78q0 -42 33 -68.5
t100 -49.5l47 -16q91 -33 142 -82.5t51 -134.5q0 -69 -35.5 -116t-89.5 -69t-111 -22q-84 0 -154 51z" />
    <glyph glyph-name="T" unicode="T" horiz-adv-x="539" 
d="M227 635h-201v81h486v-81h-200v-635h-85v635z" />
    <glyph glyph-name="U" unicode="U" horiz-adv-x="652" 
d="M193 19.5q-60 35.5 -93 99t-33 146.5v451h85v-455q0 -87 46 -141.5t132 -54.5t132.5 54.5t46.5 141.5v455h84v-451q0 -83 -31.5 -147t-91 -99t-140.5 -35q-77 0 -137 35.5z" />
    <glyph glyph-name="V" unicode="V" horiz-adv-x="630" 
d="M14 716h94l177 -519l24 -71h4l25 71l185 519h94l-262 -716h-88z" />
    <glyph glyph-name="W" unicode="W" horiz-adv-x="944" 
d="M17 716h94l130 -526l12 -49h4l15 49l160 526h88l153 -526l15 -49h4l141 575h94l-193 -716h-88l-152 518l-16 56h-4l-17 -56l-158 -518h-88z" />
    <glyph glyph-name="X" unicode="X" horiz-adv-x="631" 
d="M260 370l-228 346h102l179 -279h4l181 279h101l-228 -346l242 -370h-100l-196 299h-4l-195 -299h-100z" />
    <glyph glyph-name="Y" unicode="Y" horiz-adv-x="595" 
d="M257 331l-242 385h99l183 -300h4l180 300h99l-238 -385v-331h-85v331z" />
    <glyph glyph-name="Z" unicode="Z" horiz-adv-x="572" 
d="M38 89l386 546h-370v81h468v-89l-386 -546h390v-81h-488v89z" />
    <glyph glyph-name="bracketleft" unicode="[" horiz-adv-x="318" 
d="M80 792h201v-70h-124v-776h124v-70h-201v916z" />
    <glyph glyph-name="backslash" unicode="\" horiz-adv-x="438" 
d="M31 716h79l297 -716h-79z" />
    <glyph glyph-name="bracketright" unicode="]" horiz-adv-x="318" 
d="M37 -54h124v776h-124v70h201v-916h-201v70z" />
    <glyph glyph-name="asciicircum" unicode="^" horiz-adv-x="465" 
d="M199 716h67l187 -306h-89l-130 224h-4l-129 -224h-89z" />
    <glyph glyph-name="underscore" unicode="_" horiz-adv-x="476" 
d="M0 -146h476v-70h-476v70z" />
    <glyph glyph-name="grave" unicode="`" horiz-adv-x="397" 
d="M98 716h93l52 -127h-75z" />
    <glyph glyph-name="a" unicode="a" horiz-adv-x="531" 
d="M126 6q-44 22 -68 60.5t-24 87.5q0 81 61 126.5t154 45.5q46 0 85.5 -10t60.5 -23v31q0 57 -40 91.5t-101 34.5q-43 0 -79 -18.5t-57 -51.5l-64 48q30 46 82.5 72t116.5 26q104 0 163.5 -54.5t59.5 -148.5v-323h-81v73h-4q-22 -37 -66 -63t-99 -26q-56 0 -100 22zM314 81
q37 22 59 59t22 81q-24 16 -59 26t-74 10q-70 0 -105.5 -29t-35.5 -75q0 -42 32 -68t81 -26q43 0 80 22z" />
    <glyph glyph-name="b" unicode="b" horiz-adv-x="602" 
d="M217.5 10.5q-46.5 26.5 -69.5 64.5h-4v-75h-81v716h85v-211l-4 -71h4q23 39 69.5 65.5t104.5 26.5q68 0 124 -35t88 -97t32 -139q0 -78 -32 -139.5t-88 -96.5t-124 -35q-58 0 -104.5 26.5zM395 85q39 24 62.5 68.5t23.5 101.5t-23.5 101.5t-62.5 68.5t-83 24t-83 -24
t-62 -68t-23 -102t23 -102t62 -68t83 -24t83 24z" />
    <glyph glyph-name="c" unicode="c" horiz-adv-x="546" 
d="M161 19.5q-59 35.5 -92 97t-33 138.5t33 139t92 97t133 35q83 0 139.5 -38.5t80.5 -102.5l-77 -32q-19 47 -56.5 71.5t-90.5 24.5q-45 0 -84 -24.5t-62.5 -68.5t-23.5 -101t23.5 -101t62.5 -68.5t84 -24.5q54 0 93 25t58 71l76 -32q-26 -63 -83.5 -102t-139.5 -39
q-74 0 -133 35.5z" />
    <glyph glyph-name="d" unicode="d" horiz-adv-x="602" 
d="M155.5 19q-55.5 35 -87.5 96.5t-32 139.5q0 77 32 139t87.5 97t123.5 35q59 0 105 -26.5t70 -65.5h4l-4 71v211h85v-716h-81v75h-4q-24 -38 -70 -64.5t-105 -26.5q-68 0 -123.5 35zM372.5 85q38.5 24 62 68t23.5 102t-23.5 102t-62 68t-83.5 24q-44 0 -83 -24
t-62.5 -68.5t-23.5 -101.5t23.5 -101.5t62.5 -68.5t83 -24q45 0 83.5 24z" />
    <glyph glyph-name="e" unicode="e" horiz-adv-x="563" 
d="M159 19q-58 35 -90.5 96.5t-32.5 138.5q0 74 30.5 136t86.5 99t130 37q75 0 130 -33.5t84.5 -92.5t29.5 -135q0 -15 -3 -26h-403q3 -58 28 -98t63.5 -60t80.5 -20q98 0 151 92l72 -35q-33 -62 -89.5 -98t-136.5 -36q-73 0 -131 35zM437 309q-2 32 -18 64t-50.5 54
t-86.5 22q-60 0 -101.5 -38.5t-54.5 -101.5h311z" />
    <glyph glyph-name="f" unicode="f" horiz-adv-x="379" 
d="M122 433h-94v77h94v55q0 48 22 84t59 55.5t82 19.5q43 0 75 -12v-83q-18 7 -34 11.5t-38 4.5q-33 0 -57 -23.5t-24 -65.5v-46h131v-77h-131v-433h-85v433z" />
    <glyph glyph-name="g" unicode="g" horiz-adv-x="597" 
d="M138.5 -190q-58.5 42 -78.5 101l77 33q17 -44 56.5 -71.5t93.5 -27.5q79 0 122.5 46t43.5 130v57h-4q-25 -39 -70.5 -63.5t-103.5 -24.5q-66 0 -120.5 34t-86.5 95t-32 139q0 77 32 138.5t86.5 95.5t120.5 34q58 0 103.5 -24.5t70.5 -64.5h4v73h81v-490
q0 -123 -68 -187.5t-179 -64.5q-90 0 -148.5 42zM370.5 90q37.5 23 60 66t22.5 102q0 60 -22.5 103t-60 65.5t-83.5 22.5t-84 -23t-60.5 -66t-22.5 -102t22.5 -102.5t60.5 -66t84 -22.5t83.5 23z" />
    <glyph glyph-name="h" unicode="h" horiz-adv-x="564" 
d="M63 716h85v-211l-4 -70h4q21 39 66.5 65t99.5 26q93 0 142 -54.5t49 -144.5v-327h-85v314q0 69 -35 102t-91 33q-40 0 -73.5 -24t-53 -62t-19.5 -79v-284h-85v716z" />
    <glyph glyph-name="i" unicode="i" horiz-adv-x="226" 
d="M70 622q-18 18 -18 43t18 42.5t43 17.5t43 -17.5t18 -42.5t-17.5 -43t-43.5 -18q-25 0 -43 18zM71 510h84v-510h-84v510z" />
    <glyph glyph-name="j" unicode="j" horiz-adv-x="226" 
d="M70 622q-18 18 -18 43t18 42.5t43 17.5t43 -17.5t18 -42.5t-17.5 -43t-43.5 -18q-25 0 -43 18zM-30 -219v81q8 -5 20 -8t22 -3q31 0 45 19.5t14 57.5v582h84v-582q0 -77 -37 -115.5t-103 -38.5q-24 0 -45 7z" />
    <glyph glyph-name="k" unicode="k" horiz-adv-x="505" 
d="M63 716h85v-450l240 244h108v-4l-200 -202l205 -300v-4h-101l-164 245l-88 -88v-157h-85v716z" />
    <glyph glyph-name="l" unicode="l" horiz-adv-x="211" 
d="M63 716h85v-716h-85v716z" />
    <glyph glyph-name="m" unicode="m" horiz-adv-x="875" 
d="M63 510h81v-75h4q22 39 66 65t93 26q56 0 97.5 -27t59.5 -72q27 45 71.5 72t103.5 27q88 0 132.5 -53.5t44.5 -145.5v-327h-84v314q0 71 -29 103t-86 32q-38 0 -69 -22t-48.5 -59t-17.5 -80v-288h-85v313q0 72 -29 104t-85 32q-38 0 -69 -22.5t-48.5 -60t-17.5 -80.5
v-286h-85v510z" />
    <glyph glyph-name="n" unicode="n" horiz-adv-x="561" 
d="M63 510h81v-75h4q21 38 67 64.5t98 26.5q92 0 140.5 -53.5t48.5 -145.5v-327h-85v314q0 71 -34 103t-93 32q-41 0 -73.5 -23t-50.5 -60.5t-18 -78.5v-287h-85v510z" />
    <glyph glyph-name="o" unicode="o" horiz-adv-x="596" 
d="M163 20q-60 36 -93.5 98t-33.5 137t33.5 137t93.5 98t135 36t135 -36t93.5 -98t33.5 -137t-33.5 -137t-93.5 -98t-135 -36t-135 36zM385.5 84.5q40.5 23.5 65 67.5t24.5 103t-24.5 103t-65 67.5t-87.5 23.5t-88 -23.5t-65.5 -67.5t-24.5 -103t24.5 -103t65.5 -67.5
t88 -23.5t87.5 23.5z" />
    <glyph glyph-name="p" unicode="p" horiz-adv-x="598" 
d="M59 510h81v-76h4q23 39 69.5 65.5t104.5 26.5q68 0 124 -35t88 -97t32 -139q0 -78 -32 -139.5t-88 -96.5t-124 -35q-58 0 -104.5 26.5t-69.5 64.5h-4l4 -70v-221h-85v726zM391 85q39 24 62.5 68.5t23.5 101.5t-23.5 101.5t-62.5 68.5t-83 24t-83 -24t-62 -68t-23 -102
t23 -102t62 -68t83 -24t83 24z" />
    <glyph glyph-name="q" unicode="q" horiz-adv-x="598" 
d="M454 5l4 70h-4q-24 -38 -70 -64.5t-105 -26.5q-68 0 -123.5 35t-87.5 96.5t-32 139.5q0 77 32 139t87.5 97t123.5 35q59 0 105 -26.5t70 -65.5h4v76h81v-726h-85v221zM372.5 85q38.5 24 62 68t23.5 102t-23.5 102t-62 68t-83.5 24q-44 0 -83 -24t-62.5 -68.5
t-23.5 -101.5t23.5 -101.5t62.5 -68.5t83 -24q45 0 83.5 24z" />
    <glyph glyph-name="r" unicode="r" horiz-adv-x="375" 
d="M63 510h81v-82h4q15 42 58 69.5t90 27.5q35 0 60 -10v-92q-32 16 -72 16q-37 0 -68 -21t-49.5 -56.5t-18.5 -76.5v-285h-85v510z" />
    <glyph glyph-name="s" unicode="s" horiz-adv-x="473" 
d="M104 22.5q-55 38.5 -78 98.5l76 34q19 -46 56.5 -71t82.5 -25q48 0 82 19.5t34 55.5q0 32 -27 51.5t-85 33.5l-62 16q-61 15 -100 51t-39 93q0 44 26.5 77.5t70.5 51.5t95 18q67 0 119.5 -29t74.5 -81l-74 -34q-34 68 -121 68q-42 0 -73.5 -19.5t-31.5 -49.5
q0 -28 22 -45.5t66 -28.5l74 -19q75 -19 113 -56.5t38 -91.5q0 -47 -27 -82.5t-73 -54.5t-102 -19q-82 0 -137 38.5z" />
    <glyph glyph-name="t" unicode="t" horiz-adv-x="366" 
d="M201.5 2q-26.5 10 -44.5 27q-20 19 -30 44t-10 61v299h-89v77h89v144h85v-144h124v-77h-124v-278q0 -42 16 -62q19 -22 55 -22q29 0 56 17v-83q-15 -7 -30.5 -10t-39.5 -3q-31 0 -57.5 10z" />
    <glyph glyph-name="u" unicode="u" horiz-adv-x="561" 
d="M107.5 38q-48.5 54 -48.5 151v321h85v-308q0 -73 33 -107t89 -34q43 0 76.5 23t52 60t18.5 78v288h85v-510h-81v74h-4q-21 -38 -67 -64t-98 -26q-92 0 -140.5 54z" />
    <glyph glyph-name="v" unicode="v" horiz-adv-x="514" 
d="M7 510h91l158 -410h2l160 410h89l-208 -510h-86z" />
    <glyph glyph-name="w" unicode="w" horiz-adv-x="777" 
d="M7 510h87l122 -403h1l128 403h88l129 -402h1l121 402h86l-165 -510h-86l-132 407l-131 -407h-85z" />
    <glyph glyph-name="x" unicode="x" horiz-adv-x="487" 
d="M193 259l-177 251h96l132 -189l127 189h99l-178 -251l182 -259h-99l-133 196l-130 -196h-99z" />
    <glyph glyph-name="y" unicode="y" horiz-adv-x="516" 
d="M219 32l-211 478h92l160 -379h2l154 379h92l-315 -726h-88z" />
    <glyph glyph-name="z" unicode="z" horiz-adv-x="487" 
d="M37 73l301 360h-292v77h396v-73l-302 -360h310v-77h-413v73z" />
    <glyph glyph-name="braceleft" unicode="{" horiz-adv-x="313" 
d="M141 -79.5q-44 44.5 -44 118.5v175q0 41 -20.5 63t-53.5 22v70q33 0 53.5 22t20.5 63v175q0 74 44 118.5t119 44.5h22v-70h-21q-38 0 -62 -26t-24 -70v-175q0 -47 -17 -75t-51 -40v-4q34 -12 51 -39.5t17 -75.5v-175q0 -44 24 -70t62 -26h21v-70h-22q-75 0 -119 44.5z
" />
    <glyph glyph-name="bar" unicode="|" horiz-adv-x="237" 
d="M80 792h77v-912h-77v912z" />
    <glyph glyph-name="braceright" unicode="}" horiz-adv-x="313" 
d="M31 -54h21q38 0 62.5 26t24.5 70v175q0 48 16.5 75.5t50.5 39.5v4q-34 12 -50.5 40t-16.5 75v175q0 44 -24.5 70t-62.5 26h-21v70h22q75 0 119 -44.5t44 -118.5v-175q0 -41 20.5 -63t53.5 -22v-70q-33 0 -53.5 -22t-20.5 -63v-175q0 -74 -44 -118.5t-119 -44.5h-22v70z
" />
    <glyph glyph-name="asciitilde" unicode="~" horiz-adv-x="535" 
d="M327.5 245.5q-28.5 9.5 -70.5 27.5q-37 16 -59.5 23.5t-39.5 7.5q-23 0 -38 -16.5t-17 -38.5h-66q0 39 17 69t44.5 46t57.5 16q25 0 53 -9.5t72 -27.5q36 -16 58 -23.5t39 -7.5q23 0 37.5 16.5t16.5 38.5h67q0 -39 -17.5 -69t-45 -46t-57.5 -16q-23 0 -51.5 9.5z" />
    <glyph glyph-name="uni00A0" unicode="&#xa0;" horiz-adv-x="232" 
 />
    <glyph glyph-name="exclamdown" unicode="&#xa1;" horiz-adv-x="238" 
d="M73.5 416.5q-18.5 18.5 -18.5 45.5t18.5 45.5t45.5 18.5q26 0 44.5 -18.5t18.5 -45.5t-18.5 -45.5t-44.5 -18.5q-27 0 -45.5 18.5zM77 27l9 277h65l10 -277v-243h-84v243z" />
    <glyph glyph-name="cent" unicode="&#xa2;" horiz-adv-x="531" 
d="M432.5 130.5q-46.5 -37.5 -113.5 -45.5v-85h-70v85q-62 8 -110.5 43.5t-75.5 91t-27 122.5t27 122.5t75.5 91t110.5 43.5v85h70v-85q67 -8 112 -45.5t68 -91.5l-77 -32q-31 76 -103 92v-360q37 8 64.5 32t43.5 60l75 -32q-23 -54 -69.5 -91.5zM157.5 224
q37.5 -49 91.5 -62v360q-54 -13 -91.5 -62t-37.5 -118t37.5 -118z" />
    <glyph glyph-name="sterling" unicode="&#xa3;" horiz-adv-x="525" 
d="M505 111q-42 -111 -158 -111h-309v73q49 22 74.5 63t25.5 89q0 8 -2 24h-97v71h70q-2 4 -17 29q-26 44 -39.5 77.5t-13.5 76.5q0 52 25.5 97.5t72 72.5t106.5 27q80 0 129 -42.5t68 -98.5l-78 -32q-12 39 -41.5 65.5t-77.5 26.5q-55 0 -87.5 -35t-32.5 -81
q0 -34 12 -62.5t37 -69.5q4 -7 13.5 -22.5t15.5 -28.5h138v-71h-118v-11q0 -42 -16.5 -82.5t-46.5 -71.5l4 -3h185q37 0 57 14.5t31 44.5z" />
    <glyph glyph-name="currency" unicode="&#xa4;" horiz-adv-x="611" 
d="M68 143l60 58q-38 57 -38 124q0 69 38 124l-60 59l50 50l59 -57q56 43 128 43q73 0 129 -43l59 57l50 -50l-59 -58q37 -58 37 -125q0 -66 -37 -124l59 -58l-50 -50l-59 57q-57 -44 -129 -44q-71 0 -128 44l-59 -57zM374.5 199.5q31.5 19.5 50 53t18.5 72.5t-18.5 72.5
t-50 53t-69.5 19.5q-37 0 -68.5 -19.5t-50 -53t-18.5 -72.5t18.5 -72.5t50 -53t68.5 -19.5q38 0 69.5 19.5z" />
    <glyph glyph-name="yen" unicode="&#xa5;" horiz-adv-x="572" 
d="M246 169h-171v70h171v85h-171v70h126l-186 290h97l140 -232l34 -57h4l33 57l137 232h97l-183 -290h123v-70h-167v-85h167v-70h-167v-169h-84v169z" />
    <glyph glyph-name="brokenbar" unicode="&#xa6;" horiz-adv-x="237" 
d="M80 756h77v-380h-77v380zM80 292h77v-412h-77v412z" />
    <glyph glyph-name="section" unicode="&#xa7;" horiz-adv-x="545" 
d="M498 -42q0 -59 -32 -102t-83 -65.5t-106 -22.5q-78 0 -142 49.5t-88 140.5l80 32q17 -63 55.5 -102t94.5 -39t95 30.5t39 76.5q0 51 -38.5 82.5t-126.5 58.5q-89 28 -132.5 71.5t-43.5 108.5q0 40 23 77t64 61q-88 53 -88 144q0 42 24 82t70.5 65.5t109.5 25.5
q53 0 95.5 -22.5t70 -56t37.5 -66.5l-78 -32q-11 36 -43.5 66t-79.5 30q-35 0 -62.5 -13t-42.5 -34.5t-15 -44.5q0 -37 30 -61t95 -46q104 -33 161 -79.5t57 -132.5q0 -43 -18.5 -80t-49.5 -59q68 -55 68 -143zM186 218q29 -24 94 -45q43 -13 83 -31q22 15 35.5 42t13.5 52
q0 52 -38.5 82.5t-127.5 58.5l-7 2q-37 -11 -59.5 -40t-22.5 -59q0 -38 29 -62z" />
    <glyph glyph-name="dieresis" unicode="&#xa8;" horiz-adv-x="392" 
d="M76 621.5q-16 16.5 -16 37.5q0 23 16 38.5t38 15.5q23 0 38 -15.5t15 -38.5q0 -22 -15 -38t-38 -16q-22 0 -38 16.5zM240.5 621.5q-16.5 16.5 -16.5 37.5q0 23 16 38.5t38 15.5q23 0 38.5 -15.5t15.5 -38.5q0 -22 -15.5 -38t-38.5 -16q-21 0 -37.5 16.5z" />
    <glyph glyph-name="copyright" unicode="&#xa9;" horiz-adv-x="530" 
d="M150 303q-53 31 -84 84t-31 115t31 115t84 84t115 31t115 -31t84 -84t31 -115t-31 -115t-84 -84t-115 -31t-115 31zM357.5 343q42.5 25 67.5 67.5t25 91.5q0 50 -25 92.5t-67.5 67t-92.5 24.5q-49 0 -91.5 -24.5t-67.5 -67t-25 -92.5q0 -49 25 -91.5t67.5 -67.5t91.5 -25
q50 0 92.5 25zM185 418q-34 35 -34 84q0 50 34 84.5t84 34.5q28 0 48 -10t39 -29l-31 -28q-11 13 -23.5 19t-32.5 6q-30 0 -52 -22.5t-22 -54.5t22 -54.5t52 -22.5q37 0 61 32l33 -26q-36 -48 -94 -48q-50 0 -84 35z" />
    <glyph glyph-name="ordfeminine" unicode="&#xaa;" horiz-adv-x="474" 
d="M124 290.5q-38 18.5 -60.5 52t-22.5 76.5q0 69 54.5 108t134.5 39q39 0 72.5 -9.5t52.5 -20.5v16q0 50 -33 79t-81 29q-39 0 -65 -13.5t-43 -43.5l-72 35q19 39 63.5 66.5t113.5 27.5q54 0 98.5 -21.5t70.5 -63t26 -99.5v-262h-78v66h-4q-20 -35 -57.5 -57.5t-86.5 -22.5
q-45 0 -83 18.5zM284.5 359q31.5 17 51 46.5t19.5 66.5q-1 1 -12.5 9t-38.5 15.5t-57 7.5q-61 0 -91.5 -24.5t-30.5 -64.5q0 -35 28 -54t66 -19q34 0 65.5 17z" />
    <glyph glyph-name="guillemotleft" unicode="&#xab;" horiz-adv-x="548" 
d="M37 271l200 217l50 -46l-161 -171l161 -171l-50 -46zM237 271l200 217l50 -46l-161 -171l161 -171l-50 -46z" />
    <glyph glyph-name="logicalnot" unicode="&#xac;" horiz-adv-x="573" 
d="M418 312h-363v70h431v-277h-68v207z" />
    <glyph glyph-name="uni00AD" unicode="&#xad;" horiz-adv-x="441" 
d="M62 345h317v-70h-317v70z" />
    <glyph glyph-name="registered" unicode="&#xae;" horiz-adv-x="530" 
d="M150 303q-53 31 -84 84t-31 115t31 115t84 84t115 31t115 -31t84 -84t31 -115t-31 -115t-84 -84t-115 -31t-115 31zM357.5 343q42.5 25 67.5 67.5t25 91.5q0 50 -25 92.5t-67.5 67t-92.5 24.5q-49 0 -91.5 -24.5t-67.5 -67t-25 -92.5q0 -49 25 -91.5t67.5 -67.5t91.5 -25
q50 0 92.5 25zM189 615h95q29 0 51 -21t22 -51q0 -23 -14.5 -41t-35.5 -24l-2 -2l60 -85v-2h-50l-56 85h-26v-85h-44v226zM280 514q13 0 23 8t10 21q0 12 -9 21t-23 9h-48v-59h47z" />
    <glyph glyph-name="macron" unicode="&#xaf;" horiz-adv-x="399" 
d="M61 692h277v-66h-277v66z" />
    <glyph glyph-name="degree" unicode="&#xb0;" horiz-adv-x="323" 
d="M96.5 459.5q-30.5 17.5 -48 47t-17.5 64.5t17.5 65t48 47t65.5 17t64.5 -17t47 -47t17.5 -65t-17.5 -64.5t-47 -47t-64.5 -17.5t-65.5 17.5zM209 521.5q19 20.5 19 49.5t-19 49.5t-47 20.5t-47.5 -20.5t-19.5 -49.5t19.5 -49.5t47.5 -20.5t47 20.5z" />
    <glyph glyph-name="plusminus" unicode="&#xb1;" horiz-adv-x="544" 
d="M237 299h-182v70h182v157h70v-157h182v-70h-182v-157h-70v157zM55 70h434v-70h-434v70z" />
    <glyph glyph-name="uni00B2" unicode="&#xb2;" horiz-adv-x="302" 
d="M23 406l135 135q21 22 32.5 39t11.5 37t-16 34t-40 14t-41.5 -15.5t-23.5 -45.5l-60 25q10 44 45 69.5t79 25.5q50 0 86.5 -29.5t36.5 -77.5q0 -31 -18 -58t-44 -53l-97 -97h161v-59h-247v56z" />
    <glyph glyph-name="uni00B3" unicode="&#xb3;" horiz-adv-x="322" 
d="M71 367q-37 25 -49 74l60 23q8 -32 28.5 -47.5t45.5 -15.5q26 0 45.5 16.5t19.5 41.5q0 24 -18.5 38.5t-45.5 14.5h-41v56h36q25 0 40.5 14t15.5 36q0 21 -15.5 34t-37.5 13q-44 0 -62 -45l-57 23q13 37 43.5 59t75.5 22q53 0 86.5 -29.5t33.5 -75.5t-46 -76
q58 -32 58 -84q0 -53 -38.5 -85t-92.5 -32q-48 0 -85 25z" />
    <glyph glyph-name="acute" unicode="&#xb4;" horiz-adv-x="397" 
d="M207 716h93l-71 -127h-74z" />
    <glyph glyph-name="mu" unicode="&#xb5;" horiz-adv-x="561" 
d="M59 510h85v-305q0 -74 33.5 -109t88.5 -35q43 0 76.5 23t52 60.5t18.5 78.5v287h85v-510h-81v74h-4q-23 -39 -66.5 -64.5t-98.5 -25.5q-30 0 -57.5 12.5t-46.5 32.5h-4l4 -60v-185h-85v726z" />
    <glyph glyph-name="paragraph" unicode="&#xb6;" horiz-adv-x="614" 
d="M292 296h-44q-61 0 -112.5 25.5t-82 73.5t-30.5 111t30.5 111t82 73.5t112.5 25.5h288v-932h-78v851h-89v-851h-77v512z" />
    <glyph glyph-name="periodcentered" unicode="&#xb7;" horiz-adv-x="183" 
d="M46.5 278.5q-18.5 18.5 -18.5 45.5t18.5 45.5t45.5 18.5q26 0 44.5 -18.5t18.5 -45.5t-18.5 -45.5t-44.5 -18.5q-27 0 -45.5 18.5z" />
    <glyph glyph-name="cedilla" unicode="&#xb8;" horiz-adv-x="403" 
d="M108.5 -218q-25.5 19 -36.5 48l50 22q5 -15 16.5 -25.5t27.5 -10.5q20 0 32 12.5t12 30.5q0 19 -12 32t-32 13q-21 0 -35 -17l-44 20l35 93h53l-22 -49q18 3 23 3q38 0 64.5 -27t26.5 -68q0 -40 -29 -68t-72 -28q-32 0 -57.5 19z" />
    <glyph glyph-name="uni00B9" unicode="&#xb9;" horiz-adv-x="239" 
d="M112 632l-52 -43l-37 48l98 79h56v-366h-65v282z" />
    <glyph glyph-name="ordmasculine" unicode="&#xba;" horiz-adv-x="515" 
d="M144.5 302q-50.5 30 -79 82.5t-28.5 117.5t28.5 117.5t79 82.5t113.5 30t113.5 -30t79 -82.5t28.5 -117.5t-28.5 -117.5t-79 -82.5t-113.5 -30t-113.5 30zM326 366q32 20 51.5 55.5t19.5 80.5t-19.5 80.5t-51.5 55.5t-68 20q-37 0 -69 -20t-51.5 -55.5t-19.5 -80.5
t19.5 -80.5t51.5 -55.5t69 -20q36 0 68 20z" />
    <glyph glyph-name="guillemotright" unicode="&#xbb;" horiz-adv-x="548" 
d="M57 100l160 171l-160 171l50 46l200 -217l-200 -217zM257 100l160 171l-160 171l50 46l200 -217l-200 -217z" />
    <glyph glyph-name="onequarter" unicode="&#xbc;" horiz-adv-x="732" 
d="M137 632l-52 -43l-37 48l98 79h56v-366h-65v282zM100 28l466 695l53 -36l-466 -694zM562 74h-172v44l176 248h61v-236h49v-56h-49v-74h-65v74zM562 130v137h-4l-98 -137h102z" />
    <glyph glyph-name="onehalf" unicode="&#xbd;" horiz-adv-x="774" 
d="M137 632l-52 -43l-37 48l98 79h56v-366h-65v282zM92 28l466 695l53 -36l-466 -694zM469 56l135 135q21 22 32.5 39t11.5 37t-16 34t-40 14t-41.5 -15.5t-23.5 -45.5l-60 25q10 44 45 69.5t79 25.5q50 0 86.5 -29.5t36.5 -77.5q0 -31 -18 -58t-44 -53l-97 -97h161v-59
h-247v56z" />
    <glyph glyph-name="threequarters" unicode="&#xbe;" horiz-adv-x="825" 
d="M97 367q-37 25 -49 74l60 23q8 -32 28.5 -47.5t45.5 -15.5q26 0 45.5 16.5t19.5 41.5q0 24 -18.5 38.5t-45.5 14.5h-41v56h36q25 0 40.5 14t15.5 36q0 21 -15.5 34t-37.5 13q-44 0 -62 -45l-57 23q13 37 43.5 59t75.5 22q53 0 86.5 -29.5t33.5 -75.5t-46 -76
q58 -32 58 -84q0 -53 -38.5 -85t-92.5 -32q-48 0 -85 25zM180 28l466 695l53 -36l-466 -694zM655 74h-172v44l176 248h61v-236h49v-56h-49v-74h-65v74zM655 130v137h-4l-98 -137h102z" />
    <glyph glyph-name="questiondown" unicode="&#xbf;" horiz-adv-x="493" 
d="M205.5 416.5q-18.5 18.5 -18.5 45.5t18.5 45.5t45.5 18.5q26 0 44.5 -18.5t18.5 -45.5t-18.5 -45.5t-44.5 -18.5q-27 0 -45.5 18.5zM143.5 -207.5q-46.5 24.5 -72 67.5t-25.5 96q0 38 16 70.5t34.5 53t47.5 47.5q33 30 48.5 57t15.5 63v57h86v-63q0 -50 -18.5 -83.5
t-68.5 -78.5q-39 -37 -56.5 -62t-17.5 -61q0 -48 31 -77.5t86 -29.5q50 0 79.5 28.5t43.5 70.5l79 -33q-20 -58 -71 -102.5t-131 -44.5q-60 0 -106.5 24.5z" />
    <glyph glyph-name="Agrave" unicode="&#xc0;" horiz-adv-x="669" 
d="M286 716h96l272 -716h-93l-72 197h-309l-72 -197h-93zM460 277l-95 258l-29 77h-4l-28 -77l-95 -258h251zM227 900h93l52 -127h-75z" />
    <glyph glyph-name="Aacute" unicode="&#xc1;" horiz-adv-x="669" 
d="M286 716h96l272 -716h-93l-72 197h-309l-72 -197h-93zM460 277l-95 258l-29 77h-4l-28 -77l-95 -258h251zM349 900h93l-71 -127h-74z" />
    <glyph glyph-name="Acircumflex" unicode="&#xc2;" horiz-adv-x="669" 
d="M286 716h96l272 -716h-93l-72 197h-309l-72 -197h-93zM460 277l-95 258l-29 77h-4l-28 -77l-95 -258h251zM195 784l102 116h75l102 -116v-5h-82l-54 63h-8l-53 -63h-82v5z" />
    <glyph glyph-name="Atilde" unicode="&#xc3;" horiz-adv-x="669" 
d="M286 716h96l272 -716h-93l-72 197h-309l-72 -197h-93zM460 277l-95 258l-29 77h-4l-28 -77l-95 -258h251zM356.5 787.5q-17.5 7.5 -42.5 21.5q-29 18 -40 18q-33 0 -36 -37h-70q0 38 16 63.5t41 38t50 12.5q31 0 80 -30q30 -17 39 -17q33 0 36 37h70q0 -55 -33.5 -84.5
t-74.5 -29.5q-18 0 -35.5 7.5z" />
    <glyph glyph-name="Adieresis" unicode="&#xc4;" horiz-adv-x="669" 
d="M286 716h96l272 -716h-93l-72 197h-309l-72 -197h-93zM460 277l-95 258l-29 77h-4l-28 -77l-95 -258h251zM214 805.5q-16 16.5 -16 37.5q0 23 16 38.5t38 15.5q23 0 38 -15.5t15 -38.5q0 -22 -15 -38t-38 -16q-22 0 -38 16.5zM378.5 805.5q-16.5 16.5 -16.5 37.5
q0 23 16 38.5t38 15.5q23 0 38.5 -15.5t15.5 -38.5q0 -22 -15.5 -38t-38.5 -16q-21 0 -37.5 16.5z" />
    <glyph glyph-name="Aring" unicode="&#xc5;" horiz-adv-x="669" 
d="M654 0h-93l-72 197h-309l-72 -197h-93l256 674q-18 15 -29 36.5t-11 45.5q0 43 30 73t73 30t73.5 -30t30.5 -73q0 -24 -10.5 -45t-29.5 -36zM304 787q-13 -13 -13 -31t13 -31t30 -13q18 0 31 13t13 31t-13 31t-31 13q-17 0 -30 -13zM460 277l-95 258l-29 77h-4l-28 -77
l-95 -258h251z" />
    <glyph glyph-name="AE" unicode="&#xc6;" horiz-adv-x="960" 
d="M439 716h464v-81h-329v-237h297v-80h-297v-237h329v-81h-414v197h-264l-118 -197h-100zM489 277v358h-4l-29 -50l-184 -308h217z" />
    <glyph glyph-name="Ccedilla" unicode="&#xc7;" horiz-adv-x="741" 
d="M579 19.5q-71 -34.5 -156 -35.5l-15 -33q18 3 23 3q38 0 64.5 -27t26.5 -68q0 -40 -29 -68t-72 -28q-32 0 -57.5 19t-36.5 48l50 22q5 -15 16.5 -25.5t27.5 -10.5q20 0 32 12.5t12 30.5q0 19 -12 32t-32 13q-21 0 -35 -17l-44 20l30 79q-94 10 -168.5 61.5t-116.5 132.5
t-42 178q0 105 48.5 190.5t133.5 134.5t189 49q80 0 146.5 -30.5t115.5 -86.5l-61 -59q-41 49 -89.5 72t-111.5 23q-78 0 -143 -36.5t-103.5 -103t-38.5 -153.5t38.5 -153.5t103.5 -103t143 -36.5q130 0 221 107l62 -60q-49 -58 -120 -92.5z" />
    <glyph glyph-name="Egrave" unicode="&#xc8;" horiz-adv-x="551" 
d="M80 716h414v-81h-330v-237h298v-80h-298v-237h330v-81h-414v716zM180 900h93l52 -127h-75z" />
    <glyph glyph-name="Eacute" unicode="&#xc9;" horiz-adv-x="551" 
d="M80 716h414v-81h-330v-237h298v-80h-298v-237h330v-81h-414v716zM302 900h93l-71 -127h-74z" />
    <glyph glyph-name="Ecircumflex" unicode="&#xca;" horiz-adv-x="551" 
d="M80 716h414v-81h-330v-237h298v-80h-298v-237h330v-81h-414v716zM148 784l102 116h75l102 -116v-5h-82l-54 63h-8l-53 -63h-82v5z" />
    <glyph glyph-name="Edieresis" unicode="&#xcb;" horiz-adv-x="551" 
d="M80 716h414v-81h-330v-237h298v-80h-298v-237h330v-81h-414v716zM167 805.5q-16 16.5 -16 37.5q0 23 16 38.5t38 15.5q23 0 38 -15.5t15 -38.5q0 -22 -15 -38t-38 -16q-22 0 -38 16.5zM331.5 805.5q-16.5 16.5 -16.5 37.5q0 23 16 38.5t38 15.5q23 0 38.5 -15.5
t15.5 -38.5q0 -22 -15.5 -38t-38.5 -16q-21 0 -37.5 16.5z" />
    <glyph glyph-name="Igrave" unicode="&#xcc;" horiz-adv-x="244" 
d="M80 716h84v-716h-84v716zM15 900h93l52 -127h-75z" />
    <glyph glyph-name="Iacute" unicode="&#xcd;" horiz-adv-x="244" 
d="M80 716h84v-716h-84v716zM137 900h93l-71 -127h-74z" />
    <glyph glyph-name="Icircumflex" unicode="&#xce;" horiz-adv-x="244" 
d="M80 716h84v-716h-84v716zM-17 784l102 116h75l102 -116v-5h-82l-54 63h-8l-53 -63h-82v5z" />
    <glyph glyph-name="Idieresis" unicode="&#xcf;" horiz-adv-x="244" 
d="M18 806q-16 16 -16 38q0 23 16 38.5t38 15.5q23 0 38 -15.5t15 -38.5q0 -22 -15 -38t-38 -16q-22 0 -38 16zM151 806q-16 16 -16 38q0 23 16 38.5t38 15.5q23 0 38 -15.5t15 -38.5q0 -22 -15 -38t-38 -16q-22 0 -38 16zM80 716h84v-716h-84v716z" />
    <glyph glyph-name="Eth" unicode="&#xd0;" horiz-adv-x="758" 
d="M135 322h-76v70h76v324h216q110 0 192 -45.5t126 -126.5t44 -186t-44 -186t-126 -126.5t-192 -45.5h-216v322zM351 81q127 0 201.5 73t74.5 204t-74.5 204t-201.5 73h-132v-243h204v-70h-204v-241h132z" />
    <glyph glyph-name="Ntilde" unicode="&#xd1;" horiz-adv-x="708" 
d="M80 716h104l359 -570h4l-4 138v432h85v-716h-88l-376 597h-4l4 -138v-459h-84v716zM386.5 787.5q-17.5 7.5 -42.5 21.5q-29 18 -40 18q-33 0 -36 -37h-70q0 38 16 63.5t41 38t50 12.5q31 0 80 -30q30 -17 39 -17q33 0 36 37h70q0 -55 -33.5 -84.5t-74.5 -29.5
q-18 0 -35.5 7.5z" />
    <glyph glyph-name="Ograve" unicode="&#xd2;" horiz-adv-x="825" 
d="M225 34q-84 50 -132 135.5t-48 188.5q0 102 48 188t132 136t187 50t187 -50t132.5 -136t48.5 -188q0 -103 -48 -188.5t-132.5 -135.5t-187.5 -50t-187 50zM553.5 102.5q64.5 37.5 102 104t37.5 151.5t-37.5 151.5t-102 104t-141.5 37.5t-141 -37.5t-102 -104.5t-38 -151
t38 -151t102 -104.5t141 -37.5t141.5 37.5zM305 900h93l52 -127h-75z" />
    <glyph glyph-name="Oacute" unicode="&#xd3;" horiz-adv-x="825" 
d="M225 34q-84 50 -132 135.5t-48 188.5q0 102 48 188t132 136t187 50t187 -50t132.5 -136t48.5 -188q0 -103 -48 -188.5t-132.5 -135.5t-187.5 -50t-187 50zM553.5 102.5q64.5 37.5 102 104t37.5 151.5t-37.5 151.5t-102 104t-141.5 37.5t-141 -37.5t-102 -104.5t-38 -151
t38 -151t102 -104.5t141 -37.5t141.5 37.5zM427 900h93l-71 -127h-74z" />
    <glyph glyph-name="Ocircumflex" unicode="&#xd4;" horiz-adv-x="825" 
d="M225 34q-84 50 -132 135.5t-48 188.5q0 102 48 188t132 136t187 50t187 -50t132.5 -136t48.5 -188q0 -103 -48 -188.5t-132.5 -135.5t-187.5 -50t-187 50zM553.5 102.5q64.5 37.5 102 104t37.5 151.5t-37.5 151.5t-102 104t-141.5 37.5t-141 -37.5t-102 -104.5t-38 -151
t38 -151t102 -104.5t141 -37.5t141.5 37.5zM273 784l102 116h75l102 -116v-5h-82l-54 63h-8l-53 -63h-82v5z" />
    <glyph glyph-name="Otilde" unicode="&#xd5;" horiz-adv-x="825" 
d="M225 34q-84 50 -132 135.5t-48 188.5q0 102 48 188t132 136t187 50t187 -50t132.5 -136t48.5 -188q0 -103 -48 -188.5t-132.5 -135.5t-187.5 -50t-187 50zM553.5 102.5q64.5 37.5 102 104t37.5 151.5t-37.5 151.5t-102 104t-141.5 37.5t-141 -37.5t-102 -104.5t-38 -151
t38 -151t102 -104.5t141 -37.5t141.5 37.5zM434.5 787.5q-17.5 7.5 -42.5 21.5q-29 18 -40 18q-33 0 -36 -37h-70q0 38 16 63.5t41 38t50 12.5q31 0 80 -30q30 -17 39 -17q33 0 36 37h70q0 -55 -33.5 -84.5t-74.5 -29.5q-18 0 -35.5 7.5z" />
    <glyph glyph-name="Odieresis" unicode="&#xd6;" horiz-adv-x="825" 
d="M225 34q-84 50 -132 135.5t-48 188.5q0 102 48 188t132 136t187 50t187 -50t132.5 -136t48.5 -188q0 -103 -48 -188.5t-132.5 -135.5t-187.5 -50t-187 50zM553.5 102.5q64.5 37.5 102 104t37.5 151.5t-37.5 151.5t-102 104t-141.5 37.5t-141 -37.5t-102 -104.5t-38 -151
t38 -151t102 -104.5t141 -37.5t141.5 37.5zM292 805.5q-16 16.5 -16 37.5q0 23 16 38.5t38 15.5q23 0 38 -15.5t15 -38.5q0 -22 -15 -38t-38 -16q-22 0 -38 16.5zM456.5 805.5q-16.5 16.5 -16.5 37.5q0 23 16 38.5t38 15.5q23 0 38.5 -15.5t15.5 -38.5q0 -22 -15.5 -38
t-38.5 -16q-21 0 -37.5 16.5z" />
    <glyph glyph-name="multiply" unicode="&#xd7;" horiz-adv-x="546" 
d="M66 116l159 155l-159 155l47 47l160 -156l160 156l47 -47l-160 -155l160 -155l-47 -47l-160 156l-160 -156z" />
    <glyph glyph-name="Oslash" unicode="&#xd8;" horiz-adv-x="825" 
d="M742.5 525.5q37.5 -77.5 37.5 -167.5q0 -103 -48 -188.5t-132.5 -135.5t-187.5 -50q-91 0 -167 39l-37 -59l-59 37l37 59q-66 52 -103.5 130t-37.5 168q0 102 48 188t132 136t187 50q91 0 168 -40l38 61l58 -38l-37 -60q66 -52 103.5 -129.5zM157.5 229.5
q26.5 -58.5 72.5 -98.5l307 492q-59 28 -125 28q-77 0 -141 -37.5t-102 -104.5t-38 -151q0 -70 26.5 -128.5zM553.5 102.5q64.5 37.5 102 104t37.5 151.5q0 70 -26 128t-72 98l-307 -491q59 -28 124 -28q77 0 141.5 37.5z" />
    <glyph glyph-name="Ugrave" unicode="&#xd9;" horiz-adv-x="652" 
d="M193 19.5q-60 35.5 -93 99t-33 146.5v451h85v-455q0 -87 46 -141.5t132 -54.5t132.5 54.5t46.5 141.5v455h84v-451q0 -83 -31.5 -147t-91 -99t-140.5 -35q-77 0 -137 35.5zM223 900h93l52 -127h-75z" />
    <glyph glyph-name="Uacute" unicode="&#xda;" horiz-adv-x="652" 
d="M193 19.5q-60 35.5 -93 99t-33 146.5v451h85v-455q0 -87 46 -141.5t132 -54.5t132.5 54.5t46.5 141.5v455h84v-451q0 -83 -31.5 -147t-91 -99t-140.5 -35q-77 0 -137 35.5zM345 900h93l-71 -127h-74z" />
    <glyph glyph-name="Ucircumflex" unicode="&#xdb;" horiz-adv-x="652" 
d="M193 19.5q-60 35.5 -93 99t-33 146.5v451h85v-455q0 -87 46 -141.5t132 -54.5t132.5 54.5t46.5 141.5v455h84v-451q0 -83 -31.5 -147t-91 -99t-140.5 -35q-77 0 -137 35.5zM191 784l102 116h75l102 -116v-5h-82l-54 63h-8l-53 -63h-82v5z" />
    <glyph glyph-name="Udieresis" unicode="&#xdc;" horiz-adv-x="652" 
d="M193 19.5q-60 35.5 -93 99t-33 146.5v451h85v-455q0 -87 46 -141.5t132 -54.5t132.5 54.5t46.5 141.5v455h84v-451q0 -83 -31.5 -147t-91 -99t-140.5 -35q-77 0 -137 35.5zM210 805.5q-16 16.5 -16 37.5q0 23 16 38.5t38 15.5q23 0 38 -15.5t15 -38.5q0 -22 -15 -38
t-38 -16q-22 0 -38 16.5zM374.5 805.5q-16.5 16.5 -16.5 37.5q0 23 16 38.5t38 15.5q23 0 38.5 -15.5t15.5 -38.5q0 -22 -15.5 -38t-38.5 -16q-21 0 -37.5 16.5z" />
    <glyph glyph-name="Yacute" unicode="&#xdd;" horiz-adv-x="595" 
d="M257 331l-242 385h99l183 -300h4l180 300h99l-238 -385v-331h-85v331zM312 900h93l-71 -127h-74z" />
    <glyph glyph-name="Thorn" unicode="&#xde;" horiz-adv-x="576" 
d="M80 716h84v-123h157q60 0 111 -27t81.5 -75.5t30.5 -109.5t-30.5 -109.5t-81.5 -75.5t-111 -27h-157v-169h-84v716zM323 250q40 0 70.5 19t47.5 49t17 63t-17 63t-47.5 49t-70.5 19h-159v-262h159z" />
    <glyph glyph-name="germandbls" unicode="&#xdf;" horiz-adv-x="571" 
d="M249 -3v80q28 -4 55 -4q60 0 100.5 39t40.5 97q0 37 -20.5 68t-55 49t-73.5 18h-39v78h27q60 0 94.5 32.5t34.5 85.5q0 49 -35.5 80t-86.5 31q-59 0 -92.5 -36.5t-33.5 -98.5v-516h-86v516q0 62 25 111t73 77t114 28q60 0 107.5 -25t74 -68.5t26.5 -98.5q0 -106 -89 -151
v-4q53 -21 87 -66t34 -110q0 -62 -29 -111.5t-81 -77.5t-117 -28q-30 0 -55 5z" />
    <glyph glyph-name="agrave" unicode="&#xe0;" horiz-adv-x="531" 
d="M126 6q-44 22 -68 60.5t-24 87.5q0 81 61 126.5t154 45.5q46 0 85.5 -10t60.5 -23v31q0 57 -40 91.5t-101 34.5q-43 0 -79 -18.5t-57 -51.5l-64 48q30 46 82.5 72t116.5 26q104 0 163.5 -54.5t59.5 -148.5v-323h-81v73h-4q-22 -37 -66 -63t-99 -26q-56 0 -100 22zM314 81
q37 22 59 59t22 81q-24 16 -59 26t-74 10q-70 0 -105.5 -29t-35.5 -75q0 -42 32 -68t81 -26q43 0 80 22zM152 736h93l52 -127h-75z" />
    <glyph glyph-name="aacute" unicode="&#xe1;" horiz-adv-x="531" 
d="M126 6q-44 22 -68 60.5t-24 87.5q0 81 61 126.5t154 45.5q46 0 85.5 -10t60.5 -23v31q0 57 -40 91.5t-101 34.5q-43 0 -79 -18.5t-57 -51.5l-64 48q30 46 82.5 72t116.5 26q104 0 163.5 -54.5t59.5 -148.5v-323h-81v73h-4q-22 -37 -66 -63t-99 -26q-56 0 -100 22zM314 81
q37 22 59 59t22 81q-24 16 -59 26t-74 10q-70 0 -105.5 -29t-35.5 -75q0 -42 32 -68t81 -26q43 0 80 22zM274 736h93l-71 -127h-74z" />
    <glyph glyph-name="acircumflex" unicode="&#xe2;" horiz-adv-x="531" 
d="M126 6q-44 22 -68 60.5t-24 87.5q0 81 61 126.5t154 45.5q46 0 85.5 -10t60.5 -23v31q0 57 -40 91.5t-101 34.5q-43 0 -79 -18.5t-57 -51.5l-64 48q30 46 82.5 72t116.5 26q104 0 163.5 -54.5t59.5 -148.5v-323h-81v73h-4q-22 -37 -66 -63t-99 -26q-56 0 -100 22zM314 81
q37 22 59 59t22 81q-24 16 -59 26t-74 10q-70 0 -105.5 -29t-35.5 -75q0 -42 32 -68t81 -26q43 0 80 22zM120 619l102 117h75l102 -117v-5h-82l-54 64h-8l-53 -64h-82v5z" />
    <glyph glyph-name="atilde" unicode="&#xe3;" horiz-adv-x="531" 
d="M126 6q-44 22 -68 60.5t-24 87.5q0 81 61 126.5t154 45.5q46 0 85.5 -10t60.5 -23v31q0 57 -40 91.5t-101 34.5q-43 0 -79 -18.5t-57 -51.5l-64 48q30 46 82.5 72t116.5 26q104 0 163.5 -54.5t59.5 -148.5v-323h-81v73h-4q-22 -37 -66 -63t-99 -26q-56 0 -100 22zM314 81
q37 22 59 59t22 81q-24 16 -59 26t-74 10q-70 0 -105.5 -29t-35.5 -75q0 -42 32 -68t81 -26q43 0 80 22zM281.5 623.5q-17.5 7.5 -42.5 21.5q-29 18 -40 18q-33 0 -36 -37h-70q0 55 33 84t74 29q31 0 80 -30q30 -17 39 -17q33 0 36 37h70q0 -55 -33 -84t-75 -29
q-18 0 -35.5 7.5z" />
    <glyph glyph-name="adieresis" unicode="&#xe4;" horiz-adv-x="531" 
d="M126 6q-44 22 -68 60.5t-24 87.5q0 81 61 126.5t154 45.5q46 0 85.5 -10t60.5 -23v31q0 57 -40 91.5t-101 34.5q-43 0 -79 -18.5t-57 -51.5l-64 48q30 46 82.5 72t116.5 26q104 0 163.5 -54.5t59.5 -148.5v-323h-81v73h-4q-22 -37 -66 -63t-99 -26q-56 0 -100 22zM314 81
q37 22 59 59t22 81q-24 16 -59 26t-74 10q-70 0 -105.5 -29t-35.5 -75q0 -42 32 -68t81 -26q43 0 80 22zM139 641q-16 16 -16 38q0 23 16 38t38 15q23 0 38 -15t15 -38q0 -22 -15 -38t-38 -16q-22 0 -38 16zM303.5 641q-16.5 16 -16.5 38q0 23 16 38t38 15q23 0 38.5 -15
t15.5 -38q0 -22 -15.5 -38t-38.5 -16q-21 0 -37.5 16z" />
    <glyph glyph-name="aring" unicode="&#xe5;" horiz-adv-x="531" 
d="M126 6q-44 22 -68 60.5t-24 87.5q0 81 61 126.5t154 45.5q46 0 85.5 -10t60.5 -23v31q0 57 -40 91.5t-101 34.5q-43 0 -79 -18.5t-57 -51.5l-64 48q30 46 82.5 72t116.5 26q104 0 163.5 -54.5t59.5 -148.5v-323h-81v73h-4q-22 -37 -66 -63t-99 -26q-56 0 -100 22zM314 81
q37 22 59 59t22 81q-24 16 -59 26t-74 10q-70 0 -105.5 -29t-35.5 -75q0 -42 32 -68t81 -26q43 0 80 22zM186 618.5q-30 30.5 -30 73.5t30 73t73 30t73.5 -30t30.5 -73t-30.5 -73.5t-73.5 -30.5t-73 30.5zM292.5 658q13.5 14 13.5 34t-14 33.5t-33 13.5t-33 -14t-14 -33
q0 -20 14 -34t33 -14q20 0 33.5 14z" />
    <glyph glyph-name="ae" unicode="&#xe6;" horiz-adv-x="919" 
d="M126 6q-44 22 -68 60.5t-24 87.5q0 81 61 126.5t154 45.5q46 0 85.5 -10t60.5 -23v31q0 57 -38 91.5t-98 34.5q-41 0 -72 -19.5t-49 -53.5l-72 36q23 51 74.5 82t116.5 31q69 0 118 -26.5t75 -74.5q31 47 79.5 73.5t109.5 26.5q75 0 130 -33t84.5 -92t29.5 -135
q0 -12 -2 -26h-404q3 -58 28 -98t63.5 -60t80.5 -20q100 0 151 92l72 -35q-32 -61 -89 -97.5t-137 -36.5q-73 0 -129 34.5t-85 93.5q-72 -128 -206 -128q-56 0 -100 22zM793 309q-2 32 -18 64t-50 53.5t-86 21.5q-61 0 -102.5 -38t-54.5 -101h311zM314 81q37 22 59 59t22 81
q-22 15 -57.5 25.5t-75.5 10.5q-70 0 -105.5 -29t-35.5 -75q0 -42 32 -68t81 -26q43 0 80 22z" />
    <glyph glyph-name="ccedilla" unicode="&#xe7;" horiz-adv-x="546" 
d="M435 24q-56 -39 -137 -40l-15 -33q18 3 23 3q38 0 64.5 -27t26.5 -68q0 -40 -29 -68t-72 -28q-32 0 -57.5 19t-36.5 48l50 22q5 -15 16.5 -25.5t27.5 -10.5q20 0 32 12.5t12 30.5q0 19 -12 32t-32 13q-21 0 -35 -17l-44 20l30 81q-62 10 -110 47t-74.5 94t-26.5 126
q0 77 33 139t92 97t133 35q83 0 139.5 -38.5t80.5 -102.5l-77 -32q-19 47 -56.5 71.5t-90.5 24.5q-45 0 -84 -24.5t-62.5 -68.5t-23.5 -101t23.5 -101t62.5 -68.5t84 -24.5q54 0 93 25t58 71l76 -32q-26 -62 -82 -101z" />
    <glyph glyph-name="egrave" unicode="&#xe8;" horiz-adv-x="563" 
d="M159 19q-58 35 -90.5 96.5t-32.5 138.5q0 74 30.5 136t86.5 99t130 37q75 0 130 -33.5t84.5 -92.5t29.5 -135q0 -15 -3 -26h-403q3 -58 28 -98t63.5 -60t80.5 -20q98 0 151 92l72 -35q-33 -62 -89.5 -98t-136.5 -36q-73 0 -131 35zM437 309q-2 32 -18 64t-50.5 54
t-86.5 22q-60 0 -101.5 -38.5t-54.5 -101.5h311zM177 736h93l52 -127h-75z" />
    <glyph glyph-name="eacute" unicode="&#xe9;" horiz-adv-x="563" 
d="M159 19q-58 35 -90.5 96.5t-32.5 138.5q0 74 30.5 136t86.5 99t130 37q75 0 130 -33.5t84.5 -92.5t29.5 -135q0 -15 -3 -26h-403q3 -58 28 -98t63.5 -60t80.5 -20q98 0 151 92l72 -35q-33 -62 -89.5 -98t-136.5 -36q-73 0 -131 35zM437 309q-2 32 -18 64t-50.5 54
t-86.5 22q-60 0 -101.5 -38.5t-54.5 -101.5h311zM299 736h93l-71 -127h-74z" />
    <glyph glyph-name="ecircumflex" unicode="&#xea;" horiz-adv-x="563" 
d="M159 19q-58 35 -90.5 96.5t-32.5 138.5q0 74 30.5 136t86.5 99t130 37q75 0 130 -33.5t84.5 -92.5t29.5 -135q0 -15 -3 -26h-403q3 -58 28 -98t63.5 -60t80.5 -20q98 0 151 92l72 -35q-33 -62 -89.5 -98t-136.5 -36q-73 0 -131 35zM437 309q-2 32 -18 64t-50.5 54
t-86.5 22q-60 0 -101.5 -38.5t-54.5 -101.5h311zM145 619l102 117h75l102 -117v-5h-82l-54 64h-8l-53 -64h-82v5z" />
    <glyph glyph-name="edieresis" unicode="&#xeb;" horiz-adv-x="563" 
d="M159 19q-58 35 -90.5 96.5t-32.5 138.5q0 74 30.5 136t86.5 99t130 37q75 0 130 -33.5t84.5 -92.5t29.5 -135q0 -15 -3 -26h-403q3 -58 28 -98t63.5 -60t80.5 -20q98 0 151 92l72 -35q-33 -62 -89.5 -98t-136.5 -36q-73 0 -131 35zM437 309q-2 32 -18 64t-50.5 54
t-86.5 22q-60 0 -101.5 -38.5t-54.5 -101.5h311zM164 641q-16 16 -16 38q0 23 16 38t38 15q23 0 38 -15t15 -38q0 -22 -15 -38t-38 -16q-22 0 -38 16zM328.5 641q-16.5 16 -16.5 38q0 23 16 38t38 15q23 0 38.5 -15t15.5 -38q0 -22 -15.5 -38t-38.5 -16q-21 0 -37.5 16z" />
    <glyph glyph-name="igrave" unicode="&#xec;" horiz-adv-x="226" 
d="M71 510h84v-510h-84v510zM6 736h93l52 -127h-75z" />
    <glyph glyph-name="iacute" unicode="&#xed;" horiz-adv-x="226" 
d="M71 510h84v-510h-84v510zM128 736h93l-71 -127h-74z" />
    <glyph glyph-name="icircumflex" unicode="&#xee;" horiz-adv-x="226" 
d="M71 510h84v-510h-84v510zM-26 619l102 117h75l102 -117v-5h-82l-54 64h-8l-53 -64h-82v5z" />
    <glyph glyph-name="idieresis" unicode="&#xef;" horiz-adv-x="226" 
d="M9 641q-16 16 -16 38q0 23 16 38t38 15q23 0 38 -15t15 -38q0 -22 -15 -38t-38 -16q-22 0 -38 16zM142 641q-16 16 -16 38q0 23 16 38t38 15q23 0 38 -15t15 -38q0 -22 -15 -38t-38 -16q-22 0 -38 16zM71 510h84v-510h-84v510z" />
    <glyph glyph-name="eth" unicode="&#xf0;" horiz-adv-x="588" 
d="M169 19q-57 35 -90 93.5t-33 127.5q0 71 33.5 128.5t88.5 90t118 32.5q47 0 83 -17t55 -39l4 3q-16 42 -40 73t-59 58l-128 -56l-26 62l89 39q-57 31 -116 44l28 72q100 -29 171 -79l101 45l26 -62l-68 -30q68 -64 102 -152t34 -192q0 -81 -31.5 -143.5t-88 -97.5
t-129.5 -35q-67 0 -124 35zM375 87q37 22 58.5 62t21.5 90t-21.5 89.5t-58 62t-80.5 22.5q-45 0 -82.5 -22t-59 -62t-21.5 -90t21.5 -90t58.5 -62t81 -22q45 0 82 22z" />
    <glyph glyph-name="ntilde" unicode="&#xf1;" horiz-adv-x="561" 
d="M63 510h81v-75h4q21 38 67 64.5t98 26.5q92 0 140.5 -53.5t48.5 -145.5v-327h-85v314q0 71 -34 103t-93 32q-41 0 -73.5 -23t-50.5 -60.5t-18 -78.5v-287h-85v510zM315.5 623.5q-17.5 7.5 -42.5 21.5q-29 18 -40 18q-33 0 -36 -37h-70q0 55 33 84t74 29q31 0 80 -30
q30 -17 39 -17q33 0 36 37h70q0 -55 -33 -84t-75 -29q-18 0 -35.5 7.5z" />
    <glyph glyph-name="ograve" unicode="&#xf2;" horiz-adv-x="596" 
d="M163 20q-60 36 -93.5 98t-33.5 137t33.5 137t93.5 98t135 36t135 -36t93.5 -98t33.5 -137t-33.5 -137t-93.5 -98t-135 -36t-135 36zM385.5 84.5q40.5 23.5 65 67.5t24.5 103t-24.5 103t-65 67.5t-87.5 23.5t-88 -23.5t-65.5 -67.5t-24.5 -103t24.5 -103t65.5 -67.5
t88 -23.5t87.5 23.5zM191 736h93l52 -127h-75z" />
    <glyph glyph-name="oacute" unicode="&#xf3;" horiz-adv-x="596" 
d="M163 20q-60 36 -93.5 98t-33.5 137t33.5 137t93.5 98t135 36t135 -36t93.5 -98t33.5 -137t-33.5 -137t-93.5 -98t-135 -36t-135 36zM385.5 84.5q40.5 23.5 65 67.5t24.5 103t-24.5 103t-65 67.5t-87.5 23.5t-88 -23.5t-65.5 -67.5t-24.5 -103t24.5 -103t65.5 -67.5
t88 -23.5t87.5 23.5zM313 736h93l-71 -127h-74z" />
    <glyph glyph-name="ocircumflex" unicode="&#xf4;" horiz-adv-x="596" 
d="M163 20q-60 36 -93.5 98t-33.5 137t33.5 137t93.5 98t135 36t135 -36t93.5 -98t33.5 -137t-33.5 -137t-93.5 -98t-135 -36t-135 36zM385.5 84.5q40.5 23.5 65 67.5t24.5 103t-24.5 103t-65 67.5t-87.5 23.5t-88 -23.5t-65.5 -67.5t-24.5 -103t24.5 -103t65.5 -67.5
t88 -23.5t87.5 23.5zM159 619l102 117h75l102 -117v-5h-82l-54 64h-8l-53 -64h-82v5z" />
    <glyph glyph-name="otilde" unicode="&#xf5;" horiz-adv-x="596" 
d="M163 20q-60 36 -93.5 98t-33.5 137t33.5 137t93.5 98t135 36t135 -36t93.5 -98t33.5 -137t-33.5 -137t-93.5 -98t-135 -36t-135 36zM385.5 84.5q40.5 23.5 65 67.5t24.5 103t-24.5 103t-65 67.5t-87.5 23.5t-88 -23.5t-65.5 -67.5t-24.5 -103t24.5 -103t65.5 -67.5
t88 -23.5t87.5 23.5zM320.5 623.5q-17.5 7.5 -42.5 21.5q-29 18 -40 18q-33 0 -36 -37h-70q0 55 33 84t74 29q31 0 80 -30q30 -17 39 -17q33 0 36 37h70q0 -55 -33 -84t-75 -29q-18 0 -35.5 7.5z" />
    <glyph glyph-name="odieresis" unicode="&#xf6;" horiz-adv-x="596" 
d="M163 20q-60 36 -93.5 98t-33.5 137t33.5 137t93.5 98t135 36t135 -36t93.5 -98t33.5 -137t-33.5 -137t-93.5 -98t-135 -36t-135 36zM385.5 84.5q40.5 23.5 65 67.5t24.5 103t-24.5 103t-65 67.5t-87.5 23.5t-88 -23.5t-65.5 -67.5t-24.5 -103t24.5 -103t65.5 -67.5
t88 -23.5t87.5 23.5zM178 641q-16 16 -16 38q0 23 16 38t38 15q23 0 38 -15t15 -38q0 -22 -15 -38t-38 -16q-22 0 -38 16zM342.5 641q-16.5 16 -16.5 38q0 23 16 38t38 15q23 0 38.5 -15t15.5 -38q0 -22 -15.5 -38t-38.5 -16q-21 0 -37.5 16z" />
    <glyph glyph-name="divide" unicode="&#xf7;" horiz-adv-x="544" 
d="M226.5 413.5q-18.5 18.5 -18.5 44.5q0 27 18.5 45.5t45.5 18.5t45.5 -18.5t18.5 -45.5q0 -26 -18.5 -44.5t-45.5 -18.5t-45.5 18.5zM55 306h434v-70h-434v70zM226.5 38.5q-18.5 18.5 -18.5 45.5q0 26 18.5 44.5t45.5 18.5t45.5 -18.5t18.5 -44.5q0 -27 -18.5 -45.5
t-45.5 -18.5t-45.5 18.5z" />
    <glyph glyph-name="oslash" unicode="&#xf8;" horiz-adv-x="596" 
d="M535.5 373q24.5 -55 24.5 -118q0 -75 -33.5 -137t-93.5 -98t-135 -36q-62 0 -115 25l-26 -41l-55 31l28 44q-45 38 -69.5 92.5t-24.5 119.5q0 75 33.5 137t93.5 98t135 36q64 0 116 -26l27 43l54 -32l-28 -45q44 -38 68.5 -93zM134 175q14 -36 39 -62l199 319
q-36 17 -74 17q-47 0 -88 -23.5t-65.5 -67.5t-24.5 -103q0 -44 14 -80zM385.5 84.5q40.5 23.5 65 67.5t24.5 103q0 86 -52 141l-198 -319q33 -16 73 -16q47 0 87.5 23.5z" />
    <glyph glyph-name="ugrave" unicode="&#xf9;" horiz-adv-x="561" 
d="M107.5 38q-48.5 54 -48.5 151v321h85v-308q0 -73 33 -107t89 -34q43 0 76.5 23t52 60t18.5 78v288h85v-510h-81v74h-4q-21 -38 -67 -64t-98 -26q-92 0 -140.5 54zM171 736h93l52 -127h-75z" />
    <glyph glyph-name="uacute" unicode="&#xfa;" horiz-adv-x="561" 
d="M107.5 38q-48.5 54 -48.5 151v321h85v-308q0 -73 33 -107t89 -34q43 0 76.5 23t52 60t18.5 78v288h85v-510h-81v74h-4q-21 -38 -67 -64t-98 -26q-92 0 -140.5 54zM293 736h93l-71 -127h-74z" />
    <glyph glyph-name="ucircumflex" unicode="&#xfb;" horiz-adv-x="561" 
d="M107.5 38q-48.5 54 -48.5 151v321h85v-308q0 -73 33 -107t89 -34q43 0 76.5 23t52 60t18.5 78v288h85v-510h-81v74h-4q-21 -38 -67 -64t-98 -26q-92 0 -140.5 54zM139 619l102 117h75l102 -117v-5h-82l-54 64h-8l-53 -64h-82v5z" />
    <glyph glyph-name="udieresis" unicode="&#xfc;" horiz-adv-x="561" 
d="M107.5 38q-48.5 54 -48.5 151v321h85v-308q0 -73 33 -107t89 -34q43 0 76.5 23t52 60t18.5 78v288h85v-510h-81v74h-4q-21 -38 -67 -64t-98 -26q-92 0 -140.5 54zM158 641q-16 16 -16 38q0 23 16 38t38 15q23 0 38 -15t15 -38q0 -22 -15 -38t-38 -16q-22 0 -38 16z
M322.5 641q-16.5 16 -16.5 38q0 23 16 38t38 15q23 0 38.5 -15t15.5 -38q0 -22 -15.5 -38t-38.5 -16q-21 0 -37.5 16z" />
    <glyph glyph-name="yacute" unicode="&#xfd;" horiz-adv-x="516" 
d="M219 32l-211 478h92l160 -379h2l154 379h92l-315 -726h-88zM273 736h93l-71 -127h-74z" />
    <glyph glyph-name="thorn" unicode="&#xfe;" horiz-adv-x="599" 
d="M60 716h85v-214l-4 -68h4q24 39 70 65.5t104 26.5q69 0 124.5 -35t87.5 -97t32 -139q0 -78 -32 -139.5t-87.5 -96.5t-124.5 -35q-58 0 -104 26.5t-70 64.5h-4l4 -68v-223h-85v932zM393 85q39 24 62.5 68.5t23.5 101.5t-23.5 101.5t-62.5 68.5t-83 24q-45 0 -83.5 -24
t-62 -68t-23.5 -102t23.5 -102t62 -68t83.5 -24q44 0 83 24z" />
    <glyph glyph-name="ydieresis" unicode="&#xff;" horiz-adv-x="516" 
d="M219 32l-211 478h92l160 -379h2l154 379h92l-315 -726h-88zM138 641q-16 16 -16 38q0 23 16 38t38 15q23 0 38 -15t15 -38q0 -22 -15 -38t-38 -16q-22 0 -38 16zM302.5 641q-16.5 16 -16.5 38q0 23 16 38t38 15q23 0 38.5 -15t15.5 -38q0 -22 -15.5 -38t-38.5 -16
q-21 0 -37.5 16z" />
    <glyph glyph-name="Amacron" unicode="&#x100;" horiz-adv-x="669" 
d="M286 716h96l272 -716h-93l-72 197h-309l-72 -197h-93zM460 277l-95 258l-29 77h-4l-28 -77l-95 -258h251zM196 876h277v-66h-277v66z" />
    <glyph glyph-name="amacron" unicode="&#x101;" horiz-adv-x="531" 
d="M126 6q-44 22 -68 60.5t-24 87.5q0 81 61 126.5t154 45.5q46 0 85.5 -10t60.5 -23v31q0 57 -40 91.5t-101 34.5q-43 0 -79 -18.5t-57 -51.5l-64 48q30 46 82.5 72t116.5 26q104 0 163.5 -54.5t59.5 -148.5v-323h-81v73h-4q-22 -37 -66 -63t-99 -26q-56 0 -100 22zM314 81
q37 22 59 59t22 81q-24 16 -59 26t-74 10q-70 0 -105.5 -29t-35.5 -75q0 -42 32 -68t81 -26q43 0 80 22zM121 712h277v-67h-277v67z" />
    <glyph glyph-name="Abreve" unicode="&#x102;" horiz-adv-x="669" 
d="M286 716h96l272 -716h-93l-72 197h-309l-72 -197h-93zM460 277l-95 258l-29 77h-4l-28 -77l-95 -258h251zM272.5 788.5q-29.5 16.5 -47.5 45t-18 62.5h69q0 -25 16 -42.5t43 -17.5q25 0 41 17.5t16 42.5h68q0 -34 -17.5 -62.5t-46.5 -45t-61 -16.5q-33 0 -62.5 16.5z" />
    <glyph glyph-name="abreve" unicode="&#x103;" horiz-adv-x="531" 
d="M126 6q-44 22 -68 60.5t-24 87.5q0 81 61 126.5t154 45.5q46 0 85.5 -10t60.5 -23v31q0 57 -40 91.5t-101 34.5q-43 0 -79 -18.5t-57 -51.5l-64 48q30 46 82.5 72t116.5 26q104 0 163.5 -54.5t59.5 -148.5v-323h-81v73h-4q-22 -37 -66 -63t-99 -26q-56 0 -100 22zM314 81
q37 22 59 59t22 81q-24 16 -59 26t-74 10q-70 0 -105.5 -29t-35.5 -75q0 -42 32 -68t81 -26q43 0 80 22zM197.5 623.5q-29.5 16.5 -47.5 45t-18 63.5h69q0 -25 16 -43t43 -18q25 0 41 18t16 43h68q0 -35 -17.5 -63.5t-46.5 -45t-61 -16.5q-33 0 -62.5 16.5z" />
    <glyph glyph-name="Aogonek" unicode="&#x104;" horiz-adv-x="669" 
d="M538.5 -190.5q-32.5 33.5 -32.5 82.5q0 60 55 108l-72 197h-309l-72 -197h-93l271 716h96l272 -716q-36 -28 -54 -50t-18 -50q0 -23 13.5 -38.5t36.5 -15.5q21 0 40 10v-72q-18 -8 -47 -8q-54 0 -86.5 33.5zM460 277l-95 258l-29 77h-4l-28 -77l-95 -258h251z" />
    <glyph glyph-name="aogonek" unicode="&#x105;" horiz-adv-x="531" 
d="M359.5 -191.5q-32.5 32.5 -32.5 79.5q0 38 20 66t48 46v73h-4q-22 -37 -66 -63t-99 -26q-56 0 -100 22t-68 60.5t-24 87.5q0 81 61 126.5t154 45.5q46 0 85.5 -10t60.5 -23v31q0 57 -40 91.5t-101 34.5q-43 0 -79 -18.5t-57 -51.5l-64 48q30 46 82.5 72t116.5 26
q104 0 163.5 -54.5t59.5 -148.5v-323q-36 -28 -54.5 -50t-18.5 -50q0 -23 14 -38.5t37 -15.5q20 0 40 10v-72q-18 -8 -47 -8q-55 0 -87.5 32.5zM314 81q37 22 59 59t22 81q-24 16 -59 26t-74 10q-70 0 -105.5 -29t-35.5 -75q0 -42 32 -68t81 -26q43 0 80 22z" />
    <glyph glyph-name="Cacute" unicode="&#x106;" horiz-adv-x="741" 
d="M227 33q-85 49 -133.5 134.5t-48.5 190.5t48.5 190.5t133.5 134.5t189 49q80 0 146.5 -30.5t115.5 -86.5l-61 -59q-41 49 -89.5 72t-111.5 23q-78 0 -143 -36.5t-103.5 -103t-38.5 -153.5t38.5 -153.5t103.5 -103t143 -36.5q130 0 221 107l62 -60q-50 -59 -123 -93.5
t-160 -34.5q-104 0 -189 49zM423 900h93l-71 -127h-74z" />
    <glyph glyph-name="cacute" unicode="&#x107;" horiz-adv-x="546" 
d="M161 19.5q-59 35.5 -92 97t-33 138.5t33 139t92 97t133 35q83 0 139.5 -38.5t80.5 -102.5l-77 -32q-19 47 -56.5 71.5t-90.5 24.5q-45 0 -84 -24.5t-62.5 -68.5t-23.5 -101t23.5 -101t62.5 -68.5t84 -24.5q54 0 93 25t58 71l76 -32q-26 -63 -83.5 -102t-139.5 -39
q-74 0 -133 35.5zM307 736h93l-71 -127h-74z" />
    <glyph glyph-name="Ccircumflex" unicode="&#x108;" horiz-adv-x="741" 
d="M227 33q-85 49 -133.5 134.5t-48.5 190.5t48.5 190.5t133.5 134.5t189 49q80 0 146.5 -30.5t115.5 -86.5l-61 -59q-41 49 -89.5 72t-111.5 23q-78 0 -143 -36.5t-103.5 -103t-38.5 -153.5t38.5 -153.5t103.5 -103t143 -36.5q130 0 221 107l62 -60q-50 -59 -123 -93.5
t-160 -34.5q-104 0 -189 49zM269 784l102 116h75l102 -116v-5h-82l-54 63h-8l-53 -63h-82v5z" />
    <glyph glyph-name="ccircumflex" unicode="&#x109;" horiz-adv-x="546" 
d="M161 19.5q-59 35.5 -92 97t-33 138.5t33 139t92 97t133 35q83 0 139.5 -38.5t80.5 -102.5l-77 -32q-19 47 -56.5 71.5t-90.5 24.5q-45 0 -84 -24.5t-62.5 -68.5t-23.5 -101t23.5 -101t62.5 -68.5t84 -24.5q54 0 93 25t58 71l76 -32q-26 -63 -83.5 -102t-139.5 -39
q-74 0 -133 35.5zM153 619l102 117h75l102 -117v-5h-82l-54 64h-8l-53 -64h-82v5z" />
    <glyph glyph-name="Cdotaccent" unicode="&#x10a;" horiz-adv-x="741" 
d="M227 33q-85 49 -133.5 134.5t-48.5 190.5t48.5 190.5t133.5 134.5t189 49q80 0 146.5 -30.5t115.5 -86.5l-61 -59q-41 49 -89.5 72t-111.5 23q-78 0 -143 -36.5t-103.5 -103t-38.5 -153.5t38.5 -153.5t103.5 -103t143 -36.5q130 0 221 107l62 -60q-50 -59 -123 -93.5
t-160 -34.5q-104 0 -189 49zM374 822q-15 15 -15 34q0 20 15 34.5t34 14.5q22 0 36 -14t14 -35q0 -20 -14.5 -34.5t-35.5 -14.5q-19 0 -34 15z" />
    <glyph glyph-name="cdotaccent" unicode="&#x10b;" horiz-adv-x="546" 
d="M161 19.5q-59 35.5 -92 97t-33 138.5t33 139t92 97t133 35q83 0 139.5 -38.5t80.5 -102.5l-77 -32q-19 47 -56.5 71.5t-90.5 24.5q-45 0 -84 -24.5t-62.5 -68.5t-23.5 -101t23.5 -101t62.5 -68.5t84 -24.5q54 0 93 25t58 71l76 -32q-26 -63 -83.5 -102t-139.5 -39
q-74 0 -133 35.5zM254 641q-16 16 -16 38q0 23 16 38t38 15q23 0 38 -15t15 -38q0 -22 -15 -38t-38 -16q-22 0 -38 16z" />
    <glyph glyph-name="Ccaron" unicode="&#x10c;" horiz-adv-x="741" 
d="M227 33q-85 49 -133.5 134.5t-48.5 190.5t48.5 190.5t133.5 134.5t189 49q80 0 146.5 -30.5t115.5 -86.5l-61 -59q-41 49 -89.5 72t-111.5 23q-78 0 -143 -36.5t-103.5 -103t-38.5 -153.5t38.5 -153.5t103.5 -103t143 -36.5q130 0 221 107l62 -60q-50 -59 -123 -93.5
t-160 -34.5q-104 0 -189 49zM269 895v5h82l53 -63h8l54 63h82v-5l-102 -116h-75z" />
    <glyph glyph-name="ccaron" unicode="&#x10d;" horiz-adv-x="546" 
d="M161 19.5q-59 35.5 -92 97t-33 138.5t33 139t92 97t133 35q83 0 139.5 -38.5t80.5 -102.5l-77 -32q-19 47 -56.5 71.5t-90.5 24.5q-45 0 -84 -24.5t-62.5 -68.5t-23.5 -101t23.5 -101t62.5 -68.5t84 -24.5q54 0 93 25t58 71l76 -32q-26 -63 -83.5 -102t-139.5 -39
q-74 0 -133 35.5zM153 731v5h82l53 -64h8l54 64h82v-5l-102 -117h-75z" />
    <glyph glyph-name="Dcaron" unicode="&#x10e;" horiz-adv-x="703" 
d="M80 716h216q110 0 192 -45.5t126 -126.5t44 -186t-44 -186t-126 -126.5t-192 -45.5h-216v716zM296 81q127 0 201.5 73t74.5 204t-74.5 204t-201.5 73h-132v-554h132zM179 895v5h82l53 -63h8l54 63h82v-5l-102 -116h-75z" />
    <glyph glyph-name="dcaron" unicode="&#x10f;" horiz-adv-x="681" 
d="M155.5 19q-55.5 35 -87.5 96.5t-32 139.5q0 77 32 139t87.5 97t123.5 35q59 0 105 -26.5t70 -65.5h4l-4 71v211h85v-716h-81v75h-4q-24 -38 -70 -64.5t-105 -26.5q-68 0 -123.5 35zM372.5 85q38.5 24 62 68t23.5 102t-23.5 102t-62 68t-83.5 24q-44 0 -83 -24
t-62.5 -68.5t-23.5 -101.5t23.5 -101.5t62.5 -68.5t83 -24q45 0 83.5 24zM606 716h91l-29 -189h-62v189z" />
    <glyph glyph-name="Dcroat" unicode="&#x110;" horiz-adv-x="705" 
d="M82 339h-81v66h81v311h216q110 0 192 -45.5t126 -126.5t44 -186t-44 -186t-126 -126.5t-192 -45.5h-216v339zM298 81q127 0 201.5 73t74.5 204t-74.5 204t-201.5 73h-131v-230h184v-66h-184v-258h131z" />
    <glyph glyph-name="dcroat" unicode="&#x111;" horiz-adv-x="602" 
d="M602 583h-63v-583h-81v75h-4q-24 -38 -70 -64.5t-105 -26.5q-68 0 -123.5 35t-87.5 96.5t-32 139.5q0 77 32 139t87.5 97t123.5 35q59 0 105 -26.5t70 -65.5h4l-4 68v81h-154v67h154v66h85v-66h63v-67zM372.5 85q38.5 24 62 68t23.5 102t-23.5 102t-62 68t-83.5 24
q-44 0 -83 -24t-62.5 -68.5t-23.5 -101.5t23.5 -101.5t62.5 -68.5t83 -24q45 0 83.5 24z" />
    <glyph glyph-name="Emacron" unicode="&#x112;" horiz-adv-x="551" 
d="M80 716h414v-81h-330v-237h298v-80h-298v-237h330v-81h-414v716zM149 876h277v-66h-277v66z" />
    <glyph glyph-name="emacron" unicode="&#x113;" horiz-adv-x="563" 
d="M159 19q-58 35 -90.5 96.5t-32.5 138.5q0 74 30.5 136t86.5 99t130 37q75 0 130 -33.5t84.5 -92.5t29.5 -135q0 -15 -3 -26h-403q3 -58 28 -98t63.5 -60t80.5 -20q98 0 151 92l72 -35q-33 -62 -89.5 -98t-136.5 -36q-73 0 -131 35zM437 309q-2 32 -18 64t-50.5 54
t-86.5 22q-60 0 -101.5 -38.5t-54.5 -101.5h311zM146 712h277v-67h-277v67z" />
    <glyph glyph-name="Ebreve" unicode="&#x114;" horiz-adv-x="551" 
d="M80 716h414v-81h-330v-237h298v-80h-298v-237h330v-81h-414v716zM225.5 788.5q-29.5 16.5 -47.5 45t-18 62.5h69q0 -25 16 -42.5t43 -17.5q25 0 41 17.5t16 42.5h68q0 -34 -17.5 -62.5t-46.5 -45t-61 -16.5q-33 0 -62.5 16.5z" />
    <glyph glyph-name="ebreve" unicode="&#x115;" horiz-adv-x="563" 
d="M159 19q-58 35 -90.5 96.5t-32.5 138.5q0 74 30.5 136t86.5 99t130 37q75 0 130 -33.5t84.5 -92.5t29.5 -135q0 -15 -3 -26h-403q3 -58 28 -98t63.5 -60t80.5 -20q98 0 151 92l72 -35q-33 -62 -89.5 -98t-136.5 -36q-73 0 -131 35zM437 309q-2 32 -18 64t-50.5 54
t-86.5 22q-60 0 -101.5 -38.5t-54.5 -101.5h311zM222.5 623.5q-29.5 16.5 -47.5 45t-18 63.5h69q0 -25 16 -43t43 -18q25 0 41 18t16 43h68q0 -35 -17.5 -63.5t-46.5 -45t-61 -16.5q-33 0 -62.5 16.5z" />
    <glyph glyph-name="Edotaccent" unicode="&#x116;" horiz-adv-x="551" 
d="M80 716h414v-81h-330v-237h298v-80h-298v-237h330v-81h-414v716zM253 822q-15 15 -15 34q0 20 15 34.5t34 14.5q22 0 36 -14t14 -35q0 -20 -14.5 -34.5t-35.5 -14.5q-19 0 -34 15z" />
    <glyph glyph-name="edotaccent" unicode="&#x117;" horiz-adv-x="563" 
d="M159 19q-58 35 -90.5 96.5t-32.5 138.5q0 74 30.5 136t86.5 99t130 37q75 0 130 -33.5t84.5 -92.5t29.5 -135q0 -15 -3 -26h-403q3 -58 28 -98t63.5 -60t80.5 -20q98 0 151 92l72 -35q-33 -62 -89.5 -98t-136.5 -36q-73 0 -131 35zM437 309q-2 32 -18 64t-50.5 54
t-86.5 22q-60 0 -101.5 -38.5t-54.5 -101.5h311zM246 641q-16 16 -16 38q0 23 16 38t38 15q23 0 38 -15t15 -38q0 -22 -15 -38t-38 -16q-22 0 -38 16z" />
    <glyph glyph-name="Eogonek" unicode="&#x118;" horiz-adv-x="551" 
d="M378.5 -192q-32.5 32 -32.5 80q0 37 19 65t45 47h-330v716h414v-81h-330v-237h298v-80h-298v-237h330v-81q-36 -27 -54 -49.5t-18 -50.5q0 -23 13.5 -38.5t36.5 -15.5q21 0 40 10v-72q-18 -8 -47 -8q-54 0 -86.5 32z" />
    <glyph glyph-name="eogonek" unicode="&#x119;" horiz-adv-x="563" 
d="M282.5 -191.5q-32.5 32.5 -32.5 79.5q0 51 47 96h-7q-73 0 -131 35t-90.5 96.5t-32.5 138.5q0 74 30.5 136t86.5 99t130 37q75 0 130 -33.5t84.5 -92.5t29.5 -135q0 -15 -3 -26h-403q3 -58 28 -98t63.5 -60t80.5 -20q98 0 151 92l72 -35q-29 -55 -97 -102
q-52 -36 -72.5 -61t-20.5 -55q0 -23 14 -38.5t37 -15.5q20 0 40 10v-72q-18 -8 -47 -8q-55 0 -87.5 32.5zM437 309q-2 32 -18 64t-50.5 54t-86.5 22q-60 0 -101.5 -38.5t-54.5 -101.5h311z" />
    <glyph glyph-name="Ecaron" unicode="&#x11a;" horiz-adv-x="551" 
d="M80 716h414v-81h-330v-237h298v-80h-298v-237h330v-81h-414v716zM148 895v5h82l53 -63h8l54 63h82v-5l-102 -116h-75z" />
    <glyph glyph-name="ecaron" unicode="&#x11b;" horiz-adv-x="563" 
d="M159 19q-58 35 -90.5 96.5t-32.5 138.5q0 74 30.5 136t86.5 99t130 37q75 0 130 -33.5t84.5 -92.5t29.5 -135q0 -15 -3 -26h-403q3 -58 28 -98t63.5 -60t80.5 -20q98 0 151 92l72 -35q-33 -62 -89.5 -98t-136.5 -36q-73 0 -131 35zM437 309q-2 32 -18 64t-50.5 54
t-86.5 22q-60 0 -101.5 -38.5t-54.5 -101.5h311zM145 731v5h82l53 -64h8l54 64h82v-5l-102 -117h-75z" />
    <glyph glyph-name="Gcircumflex" unicode="&#x11c;" horiz-adv-x="813" 
d="M230 33q-85 49 -135 135t-50 190t50 190t135 135t186 49q79 0 148.5 -28t114.5 -79l-61 -61q-34 42 -87 64.5t-114 22.5q-76 0 -141.5 -36.5t-105 -103t-39.5 -153.5t39.5 -153.5t105.5 -103t141 -36.5q72 0 120.5 22.5t83.5 59.5q26 28 42 67.5t20 87.5h-265v79h344
q5 -28 5 -52q0 -66 -21 -128.5t-67 -109.5q-99 -107 -263 -107q-101 0 -186 49zM277 784l102 116h75l102 -116v-5h-82l-54 63h-8l-53 -63h-82v5z" />
    <glyph glyph-name="gcircumflex" unicode="&#x11d;" horiz-adv-x="597" 
d="M138.5 -190q-58.5 42 -78.5 101l77 33q17 -44 56.5 -71.5t93.5 -27.5q79 0 122.5 46t43.5 130v57h-4q-25 -39 -70.5 -63.5t-103.5 -24.5q-66 0 -120.5 34t-86.5 95t-32 139q0 77 32 138.5t86.5 95.5t120.5 34q58 0 103.5 -24.5t70.5 -64.5h4v73h81v-490
q0 -123 -68 -187.5t-179 -64.5q-90 0 -148.5 42zM370.5 90q37.5 23 60 66t22.5 102q0 60 -22.5 103t-60 65.5t-83.5 22.5t-84 -23t-60.5 -66t-22.5 -102t22.5 -102.5t60.5 -66t84 -22.5t83.5 23zM158 619l102 117h75l102 -117v-5h-82l-54 64h-8l-53 -64h-82v5z" />
    <glyph glyph-name="Gbreve" unicode="&#x11e;" horiz-adv-x="813" 
d="M230 33q-85 49 -135 135t-50 190t50 190t135 135t186 49q79 0 148.5 -28t114.5 -79l-61 -61q-34 42 -87 64.5t-114 22.5q-76 0 -141.5 -36.5t-105 -103t-39.5 -153.5t39.5 -153.5t105.5 -103t141 -36.5q72 0 120.5 22.5t83.5 59.5q26 28 42 67.5t20 87.5h-265v79h344
q5 -28 5 -52q0 -66 -21 -128.5t-67 -109.5q-99 -107 -263 -107q-101 0 -186 49zM354.5 788.5q-29.5 16.5 -47.5 45t-18 62.5h69q0 -25 16 -42.5t43 -17.5q25 0 41 17.5t16 42.5h68q0 -34 -17.5 -62.5t-46.5 -45t-61 -16.5q-33 0 -62.5 16.5z" />
    <glyph glyph-name="gbreve" unicode="&#x11f;" horiz-adv-x="597" 
d="M138.5 -190q-58.5 42 -78.5 101l77 33q17 -44 56.5 -71.5t93.5 -27.5q79 0 122.5 46t43.5 130v57h-4q-25 -39 -70.5 -63.5t-103.5 -24.5q-66 0 -120.5 34t-86.5 95t-32 139q0 77 32 138.5t86.5 95.5t120.5 34q58 0 103.5 -24.5t70.5 -64.5h4v73h81v-490
q0 -123 -68 -187.5t-179 -64.5q-90 0 -148.5 42zM370.5 90q37.5 23 60 66t22.5 102q0 60 -22.5 103t-60 65.5t-83.5 22.5t-84 -23t-60.5 -66t-22.5 -102t22.5 -102.5t60.5 -66t84 -22.5t83.5 23zM235.5 623.5q-29.5 16.5 -47.5 45t-18 63.5h69q0 -25 16 -43t43 -18
q25 0 41 18t16 43h68q0 -35 -17.5 -63.5t-46.5 -45t-61 -16.5q-33 0 -62.5 16.5z" />
    <glyph glyph-name="Gdotaccent" unicode="&#x120;" horiz-adv-x="813" 
d="M230 33q-85 49 -135 135t-50 190t50 190t135 135t186 49q79 0 148.5 -28t114.5 -79l-61 -61q-34 42 -87 64.5t-114 22.5q-76 0 -141.5 -36.5t-105 -103t-39.5 -153.5t39.5 -153.5t105.5 -103t141 -36.5q72 0 120.5 22.5t83.5 59.5q26 28 42 67.5t20 87.5h-265v79h344
q5 -28 5 -52q0 -66 -21 -128.5t-67 -109.5q-99 -107 -263 -107q-101 0 -186 49zM382 822q-15 15 -15 34q0 20 15 34.5t34 14.5q22 0 36 -14t14 -35q0 -20 -14.5 -34.5t-35.5 -14.5q-19 0 -34 15z" />
    <glyph glyph-name="gdotaccent" unicode="&#x121;" horiz-adv-x="597" 
d="M138.5 -190q-58.5 42 -78.5 101l77 33q17 -44 56.5 -71.5t93.5 -27.5q79 0 122.5 46t43.5 130v57h-4q-25 -39 -70.5 -63.5t-103.5 -24.5q-66 0 -120.5 34t-86.5 95t-32 139q0 77 32 138.5t86.5 95.5t120.5 34q58 0 103.5 -24.5t70.5 -64.5h4v73h81v-490
q0 -123 -68 -187.5t-179 -64.5q-90 0 -148.5 42zM370.5 90q37.5 23 60 66t22.5 102q0 60 -22.5 103t-60 65.5t-83.5 22.5t-84 -23t-60.5 -66t-22.5 -102t22.5 -102.5t60.5 -66t84 -22.5t83.5 23zM259 641q-16 16 -16 38q0 23 16 38t38 15q23 0 38 -15t15 -38q0 -22 -15 -38
t-38 -16q-22 0 -38 16z" />
    <glyph glyph-name="uni0122" unicode="&#x122;" horiz-adv-x="813" 
d="M230 33q-85 49 -135 135t-50 190t50 190t135 135t186 49q79 0 148.5 -28t114.5 -79l-61 -61q-34 42 -87 64.5t-114 22.5q-76 0 -141.5 -36.5t-105 -103t-39.5 -153.5t39.5 -153.5t105.5 -103t141 -36.5q72 0 120.5 22.5t83.5 59.5q26 28 42 67.5t20 87.5h-265v79h344
q5 -28 5 -52q0 -66 -21 -128.5t-67 -109.5q-99 -107 -263 -107q-101 0 -186 49zM352 -212l40 57q-18 4 -29.5 18.5t-11.5 33.5q0 21 16 38t40 17q25 0 40.5 -16.5t15.5 -41.5q0 -19 -12 -43l-61 -89z" />
    <glyph glyph-name="uni0123" unicode="&#x123;" horiz-adv-x="597" 
d="M138.5 -190q-58.5 42 -78.5 101l77 33q17 -44 56.5 -71.5t93.5 -27.5q79 0 122.5 46t43.5 130v57h-4q-25 -39 -70.5 -63.5t-103.5 -24.5q-66 0 -120.5 34t-86.5 95t-32 139q0 77 32 138.5t86.5 95.5t120.5 34q58 0 103.5 -24.5t70.5 -64.5h4v73h81v-490
q0 -123 -68 -187.5t-179 -64.5q-90 0 -148.5 42zM370.5 90q37.5 23 60 66t22.5 102q0 60 -22.5 103t-60 65.5t-83.5 22.5t-84 -23t-60.5 -66t-22.5 -102t22.5 -102.5t60.5 -66t84 -22.5t83.5 23zM350 756l-40 -57q18 -4 29.5 -18.5t11.5 -33.5q0 -21 -16 -38t-40 -17
q-25 0 -40.5 16.5t-15.5 41.5q0 19 12 43l61 89z" />
    <glyph glyph-name="Hcircumflex" unicode="&#x124;" horiz-adv-x="698" 
d="M80 716h84v-310h370v310h84v-716h-84v326h-370v-326h-84v716zM210 784l102 116h75l102 -116v-5h-82l-54 63h-8l-53 -63h-82v5z" />
    <glyph glyph-name="hcircumflex" unicode="&#x125;" horiz-adv-x="564" 
d="M63 716h85v-211l-4 -70h4q21 39 66.5 65t99.5 26q93 0 142 -54.5t49 -144.5v-327h-85v314q0 69 -35 102t-91 33q-40 0 -73.5 -24t-53 -62t-19.5 -79v-284h-85v716zM148 783l102 117h75l102 -117v-5h-82l-54 64h-8l-53 -64h-82v5z" />
    <glyph glyph-name="Hbar" unicode="&#x126;" horiz-adv-x="698" 
d="M682 509h-64v-509h-84v326h-370v-326h-84v509h-64v66h64v141h84v-141h370v141h84v-141h64v-66zM534 509h-370v-103h370v103z" />
    <glyph glyph-name="hbar" unicode="&#x127;" horiz-adv-x="564" 
d="M456 471.5q49 -54.5 49 -144.5v-327h-85v314q0 69 -35 102t-91 33q-40 0 -73.5 -24t-53 -62t-19.5 -79v-284h-85v583h-64v67h64v66h85v-66h153v-67h-153v-78l-4 -70h4q21 39 66.5 65t99.5 26q93 0 142 -54.5z" />
    <glyph glyph-name="Itilde" unicode="&#x128;" horiz-adv-x="244" 
d="M80 716h84v-716h-84v716zM144.5 787.5q-17.5 7.5 -42.5 21.5q-29 18 -40 18q-33 0 -36 -37h-70q0 38 16 63.5t41 38t50 12.5q31 0 80 -30q30 -17 39 -17q33 0 36 37h70q0 -55 -33.5 -84.5t-74.5 -29.5q-18 0 -35.5 7.5z" />
    <glyph glyph-name="itilde" unicode="&#x129;" horiz-adv-x="226" 
d="M71 510h84v-510h-84v510zM135.5 623.5q-17.5 7.5 -42.5 21.5q-29 18 -40 18q-33 0 -36 -37h-70q0 55 33 84t74 29q31 0 80 -30q30 -17 39 -17q33 0 36 37h70q0 -55 -33 -84t-75 -29q-18 0 -35.5 7.5z" />
    <glyph glyph-name="Imacron" unicode="&#x12a;" horiz-adv-x="244" 
d="M-1 876h246v-66h-246v66zM81 716h84v-716h-84v716z" />
    <glyph glyph-name="imacron" unicode="&#x12b;" horiz-adv-x="226" 
d="M71 510h84v-510h-84v510zM-25 712h277v-67h-277v67z" />
    <glyph glyph-name="Ibreve" unicode="&#x12c;" horiz-adv-x="244" 
d="M80 716h84v-716h-84v716zM60.5 788.5q-29.5 16.5 -47.5 45t-18 62.5h69q0 -25 16 -42.5t43 -17.5q25 0 41 17.5t16 42.5h68q0 -34 -17.5 -62.5t-46.5 -45t-61 -16.5q-33 0 -62.5 16.5z" />
    <glyph glyph-name="ibreve" unicode="&#x12d;" horiz-adv-x="226" 
d="M71 510h84v-510h-84v510zM51.5 623.5q-29.5 16.5 -47.5 45t-18 63.5h69q0 -25 16 -43t43 -18q25 0 41 18t16 43h68q0 -35 -17.5 -63.5t-46.5 -45t-61 -16.5q-33 0 -62.5 16.5z" />
    <glyph glyph-name="Iogonek" unicode="&#x12e;" horiz-adv-x="242" 
d="M47.5 -192q-32.5 32 -32.5 80q0 37 19 65t45 47v716h84v-716q-36 -28 -54 -50t-18 -50q0 -23 13.5 -38.5t36.5 -15.5q21 0 40 10v-72q-18 -8 -47 -8q-54 0 -86.5 32z" />
    <glyph glyph-name="iogonek" unicode="&#x12f;" horiz-adv-x="226" 
d="M70 622q-18 18 -18 43t18 42.5t43 17.5t43 -17.5t18 -42.5t-17.5 -43t-43.5 -18q-25 0 -43 18zM39.5 -191.5q-32.5 32.5 -32.5 79.5q0 63 64 112v510h84v-510q-36 -28 -54 -50t-18 -50q0 -23 13.5 -38.5t36.5 -15.5q21 0 40 10v-72q-18 -8 -47 -8q-54 0 -86.5 32.5z" />
    <glyph glyph-name="Idotaccent" unicode="&#x130;" horiz-adv-x="244" 
d="M80 716h84v-716h-84v716zM88 822q-15 15 -15 34q0 20 15 34.5t34 14.5q22 0 36 -14t14 -35q0 -20 -14.5 -34.5t-35.5 -14.5q-19 0 -34 15z" />
    <glyph glyph-name="dotlessi" unicode="&#x131;" horiz-adv-x="226" 
d="M71 510h84v-510h-84v510z" />
    <glyph glyph-name="Jcircumflex" unicode="&#x134;" horiz-adv-x="530" 
d="M109 27.5q-59 43.5 -83 122.5l80 33q36 -118 141 -118q59 0 94.5 41t35.5 108v502h85v-495q0 -75 -27.5 -128.5t-76 -81t-111.5 -27.5q-79 0 -138 43.5zM281 784l102 116h75l102 -116v-5h-82l-54 63h-8l-53 -63h-82v5z" />
    <glyph glyph-name="jcircumflex" unicode="&#x135;" horiz-adv-x="226" 
d="M-30 -219v81q8 -5 20 -8t22 -3q31 0 45 19.5t14 57.5v582h84v-582q0 -77 -37 -115.5t-103 -38.5q-24 0 -45 7zM-26 619l102 117h75l102 -117v-5h-82l-54 64h-8l-53 -64h-82v5z" />
    <glyph glyph-name="uni0136" unicode="&#x136;" horiz-adv-x="625" 
d="M80 716h84v-377h4l323 377h109v-4l-265 -306l284 -402v-4h-103l-238 341l-114 -131v-210h-84v716zM257 -212l40 57q-18 4 -29.5 18.5t-11.5 33.5q0 21 16 38t40 17q25 0 40.5 -16.5t15.5 -41.5q0 -19 -12 -43l-61 -89z" />
    <glyph glyph-name="uni0137" unicode="&#x137;" horiz-adv-x="505" 
d="M63 716h85v-450l240 244h108v-4l-200 -202l205 -300v-4h-101l-164 245l-88 -88v-157h-85v716zM207 -212l40 57q-18 4 -29.5 18.5t-11.5 33.5q0 21 16 38t40 17q25 0 40.5 -16.5t15.5 -41.5q0 -19 -12 -43l-61 -89z" />
    <glyph glyph-name="kgreenlandic" unicode="&#x138;" horiz-adv-x="488" 
d="M63 510h85v-231h4l215 231h107v-4l-230 -238l240 -264v-4h-104l-228 257h-4v-257h-85v510z" />
    <glyph glyph-name="Lacute" unicode="&#x139;" horiz-adv-x="509" 
d="M80 716h84v-635h314v-81h-398v716zM137 900h93l-71 -127h-74z" />
    <glyph glyph-name="lacute" unicode="&#x13a;" horiz-adv-x="211" 
d="M63 716h85v-716h-85v716zM120 900h93l-71 -127h-74z" />
    <glyph glyph-name="uni013B" unicode="&#x13b;" horiz-adv-x="509" 
d="M80 716h84v-635h314v-81h-398v716zM224 -212l40 57q-18 4 -29.5 18.5t-11.5 33.5q0 21 16 38t40 17q25 0 40.5 -16.5t15.5 -41.5q0 -19 -12 -43l-61 -89z" />
    <glyph glyph-name="uni013C" unicode="&#x13c;" horiz-adv-x="211" 
d="M63 716h85v-716h-85v716zM50 -212l40 57q-18 4 -29.5 18.5t-11.5 33.5q0 21 16 38t40 17q25 0 40.5 -16.5t15.5 -41.5q0 -19 -12 -43l-61 -89z" />
    <glyph glyph-name="Lcaron" unicode="&#x13d;" horiz-adv-x="509" 
d="M80 716h84v-635h314v-81h-398v716zM317 716h91l-29 -189h-62v189z" />
    <glyph glyph-name="lcaron" unicode="&#x13e;" horiz-adv-x="298" 
d="M63 716h85v-716h-85v716zM232 716h91l-29 -189h-62v189z" />
    <glyph glyph-name="Ldot" unicode="&#x13f;" horiz-adv-x="509" 
d="M80 716h84v-635h314v-81h-398v716zM285.5 298.5q-18.5 18.5 -18.5 45.5t18.5 45.5t45.5 18.5q26 0 44.5 -18.5t18.5 -45.5t-18.5 -45.5t-44.5 -18.5q-27 0 -45.5 18.5z" />
    <glyph glyph-name="Lslash" unicode="&#x141;" horiz-adv-x="582" 
d="M153 281l-65 -40l-39 62l104 65v348h85v-289l131 81l38 -63l-169 -105v-259h314v-81h-399v281z" />
    <glyph glyph-name="lslash" unicode="&#x142;" horiz-adv-x="369" 
d="M139 315l-59 -43l-44 58l103 76v310h84v-253l74 54l44 -59l-118 -86v-372h-84v315z" />
    <glyph glyph-name="Nacute" unicode="&#x143;" horiz-adv-x="708" 
d="M80 716h104l359 -570h4l-4 138v432h85v-716h-88l-376 597h-4l4 -138v-459h-84v716zM379 900h93l-71 -127h-74z" />
    <glyph glyph-name="nacute" unicode="&#x144;" horiz-adv-x="561" 
d="M63 510h81v-75h4q21 38 67 64.5t98 26.5q92 0 140.5 -53.5t48.5 -145.5v-327h-85v314q0 71 -34 103t-93 32q-41 0 -73.5 -23t-50.5 -60.5t-18 -78.5v-287h-85v510zM308 736h93l-71 -127h-74z" />
    <glyph glyph-name="uni0145" unicode="&#x145;" horiz-adv-x="708" 
d="M80 716h104l359 -570h4l-4 138v432h85v-716h-88l-376 597h-4l4 -138v-459h-84v716zM299 -212l40 57q-18 4 -29.5 18.5t-11.5 33.5q0 21 16 38t40 17q25 0 40.5 -16.5t15.5 -41.5q0 -19 -12 -43l-61 -89z" />
    <glyph glyph-name="uni0146" unicode="&#x146;" horiz-adv-x="561" 
d="M63 510h81v-75h4q21 38 67 64.5t98 26.5q92 0 140.5 -53.5t48.5 -145.5v-327h-85v314q0 71 -34 103t-93 32q-41 0 -73.5 -23t-50.5 -60.5t-18 -78.5v-287h-85v510zM228 -212l40 57q-18 4 -29.5 18.5t-11.5 33.5q0 21 16 38t40 17q25 0 40.5 -16.5t15.5 -41.5
q0 -19 -12 -43l-61 -89z" />
    <glyph glyph-name="Ncaron" unicode="&#x147;" horiz-adv-x="708" 
d="M80 716h104l359 -570h4l-4 138v432h85v-716h-88l-376 597h-4l4 -138v-459h-84v716zM225 895v5h82l53 -63h8l54 63h82v-5l-102 -116h-75z" />
    <glyph glyph-name="ncaron" unicode="&#x148;" horiz-adv-x="561" 
d="M63 510h81v-75h4q21 38 67 64.5t98 26.5q92 0 140.5 -53.5t48.5 -145.5v-327h-85v314q0 71 -34 103t-93 32q-41 0 -73.5 -23t-50.5 -60.5t-18 -78.5v-287h-85v510zM154 731v5h82l53 -64h8l54 64h82v-5l-102 -117h-75z" />
    <glyph glyph-name="Eng" unicode="&#x14a;" horiz-adv-x="708" 
d="M444 -220v81q18 -10 40 -10q31 0 45 19.5t14 57.5v75l-379 594h-4l4 -138v-459h-84v716h104l359 -570h4l-4 138v432h85v-788q0 -77 -37 -115.5t-104 -38.5q-24 0 -43 6z" />
    <glyph glyph-name="eng" unicode="&#x14b;" horiz-adv-x="561" 
d="M316 -219v81q8 -5 20.5 -8t22.5 -3q31 0 44.5 19.5t13.5 57.5v386q0 71 -34 103t-93 32q-41 0 -73.5 -23t-50.5 -60.5t-18 -78.5v-287h-85v510h81v-75h4q21 38 67 64.5t98 26.5q92 0 140.5 -53.5t48.5 -145.5v-399q0 -77 -37 -115.5t-104 -38.5q-22 0 -45 7z" />
    <glyph glyph-name="Omacron" unicode="&#x14c;" horiz-adv-x="825" 
d="M225 34q-84 50 -132 135.5t-48 188.5q0 102 48 188t132 136t187 50t187 -50t132.5 -136t48.5 -188q0 -103 -48 -188.5t-132.5 -135.5t-187.5 -50t-187 50zM553.5 102.5q64.5 37.5 102 104t37.5 151.5t-37.5 151.5t-102 104t-141.5 37.5t-141 -37.5t-102 -104.5t-38 -151
t38 -151t102 -104.5t141 -37.5t141.5 37.5zM274 876h277v-66h-277v66z" />
    <glyph glyph-name="omacron" unicode="&#x14d;" horiz-adv-x="596" 
d="M163 20q-60 36 -93.5 98t-33.5 137t33.5 137t93.5 98t135 36t135 -36t93.5 -98t33.5 -137t-33.5 -137t-93.5 -98t-135 -36t-135 36zM385.5 84.5q40.5 23.5 65 67.5t24.5 103t-24.5 103t-65 67.5t-87.5 23.5t-88 -23.5t-65.5 -67.5t-24.5 -103t24.5 -103t65.5 -67.5
t88 -23.5t87.5 23.5zM160 712h277v-67h-277v67z" />
    <glyph glyph-name="Obreve" unicode="&#x14e;" horiz-adv-x="825" 
d="M225 34q-84 50 -132 135.5t-48 188.5q0 102 48 188t132 136t187 50t187 -50t132.5 -136t48.5 -188q0 -103 -48 -188.5t-132.5 -135.5t-187.5 -50t-187 50zM553.5 102.5q64.5 37.5 102 104t37.5 151.5t-37.5 151.5t-102 104t-141.5 37.5t-141 -37.5t-102 -104.5t-38 -151
t38 -151t102 -104.5t141 -37.5t141.5 37.5zM350.5 788.5q-29.5 16.5 -47.5 45t-18 62.5h69q0 -25 16 -42.5t43 -17.5q25 0 41 17.5t16 42.5h68q0 -34 -17.5 -62.5t-46.5 -45t-61 -16.5q-33 0 -62.5 16.5z" />
    <glyph glyph-name="obreve" unicode="&#x14f;" horiz-adv-x="596" 
d="M163 20q-60 36 -93.5 98t-33.5 137t33.5 137t93.5 98t135 36t135 -36t93.5 -98t33.5 -137t-33.5 -137t-93.5 -98t-135 -36t-135 36zM385.5 84.5q40.5 23.5 65 67.5t24.5 103t-24.5 103t-65 67.5t-87.5 23.5t-88 -23.5t-65.5 -67.5t-24.5 -103t24.5 -103t65.5 -67.5
t88 -23.5t87.5 23.5zM236.5 623.5q-29.5 16.5 -47.5 45t-18 63.5h69q0 -25 16 -43t43 -18q25 0 41 18t16 43h68q0 -35 -17.5 -63.5t-46.5 -45t-61 -16.5q-33 0 -62.5 16.5z" />
    <glyph glyph-name="Ohungarumlaut" unicode="&#x150;" horiz-adv-x="825" 
d="M225 34q-84 50 -132 135.5t-48 188.5q0 102 48 188t132 136t187 50t187 -50t132.5 -136t48.5 -188q0 -103 -48 -188.5t-132.5 -135.5t-187.5 -50t-187 50zM553.5 102.5q64.5 37.5 102 104t37.5 151.5t-37.5 151.5t-102 104t-141.5 37.5t-141 -37.5t-102 -104.5t-38 -151
t38 -151t102 -104.5t141 -37.5t141.5 37.5zM364 900h93l-71 -127h-74zM491 900h93l-71 -127h-74z" />
    <glyph glyph-name="ohungarumlaut" unicode="&#x151;" horiz-adv-x="596" 
d="M163 20q-60 36 -93.5 98t-33.5 137t33.5 137t93.5 98t135 36t135 -36t93.5 -98t33.5 -137t-33.5 -137t-93.5 -98t-135 -36t-135 36zM385.5 84.5q40.5 23.5 65 67.5t24.5 103t-24.5 103t-65 67.5t-87.5 23.5t-88 -23.5t-65.5 -67.5t-24.5 -103t24.5 -103t65.5 -67.5
t88 -23.5t87.5 23.5zM234 736h93l-71 -127h-74zM393 736h93l-71 -127h-74z" />
    <glyph glyph-name="OE" unicode="&#x152;" horiz-adv-x="1164" 
d="M225 34q-84 50 -132 135.5t-48 188.5q0 102 48 188t132 136t187 50q89 0 161.5 -36.5t119.5 -101.5v122h415v-81h-330v-237h298v-80h-298v-237h330v-81h-415v121q-47 -64 -119.5 -100.5t-161.5 -36.5q-103 0 -187 50zM553.5 102.5q64.5 37.5 102 104t37.5 151.5
t-37.5 151.5t-102 104t-141.5 37.5t-141 -37.5t-102 -104.5t-38 -151t38 -151t102 -104.5t141 -37.5t141.5 37.5z" />
    <glyph glyph-name="oe" unicode="&#x153;" horiz-adv-x="1003" 
d="M163 20q-60 36 -93.5 98t-33.5 137t33.5 137t93.5 98t135 36q71 0 128 -33.5t90 -92.5q31 59 85 92.5t122 33.5q75 0 130 -33.5t84.5 -92.5t29.5 -135q0 -12 -2 -26h-404q3 -58 28 -98t63.5 -60t80.5 -20q100 0 151 92l72 -35q-32 -61 -89 -97.5t-137 -36.5
q-71 0 -126 33t-88 93q-33 -60 -90 -93t-128 -33q-75 0 -135 36zM385.5 84.5q40.5 23.5 65 67.5t24.5 103t-24.5 103t-65 67.5t-87.5 23.5t-88 -23.5t-65.5 -67.5t-24.5 -103t24.5 -103t65.5 -67.5t88 -23.5t87.5 23.5zM877 309q-2 32 -18 64t-50 54t-86 22
q-60 0 -102 -38.5t-55 -101.5h311z" />
    <glyph glyph-name="Racute" unicode="&#x154;" horiz-adv-x="586" 
d="M80 716h242q59 0 110 -27t81.5 -75.5t30.5 -109.5q0 -50 -22.5 -93t-62 -72t-87.5 -39l-2 -3l202 -293v-4h-100l-195 292h-113v-292h-84v716zM317 371q37 0 69.5 17t52 47.5t19.5 68.5q0 33 -17 63t-47.5 49t-70.5 19h-159v-264h153zM295 900h93l-71 -127h-74z" />
    <glyph glyph-name="racute" unicode="&#x155;" horiz-adv-x="375" 
d="M63 510h81v-82h4q15 42 58 69.5t90 27.5q35 0 60 -10v-92q-32 16 -72 16q-37 0 -68 -21t-49.5 -56.5t-18.5 -76.5v-285h-85v510zM219 736h93l-71 -127h-74z" />
    <glyph glyph-name="uni0156" unicode="&#x156;" horiz-adv-x="586" 
d="M80 716h242q59 0 110 -27t81.5 -75.5t30.5 -109.5q0 -50 -22.5 -93t-62 -72t-87.5 -39l-2 -3l202 -293v-4h-100l-195 292h-113v-292h-84v716zM317 371q37 0 69.5 17t52 47.5t19.5 68.5q0 33 -17 63t-47.5 49t-70.5 19h-159v-264h153zM238 -212l40 57q-18 4 -29.5 18.5
t-11.5 33.5q0 21 16 38t40 17q25 0 40.5 -16.5t15.5 -41.5q0 -19 -12 -43l-61 -89z" />
    <glyph glyph-name="uni0157" unicode="&#x157;" horiz-adv-x="375" 
d="M63 510h81v-82h4q15 42 58 69.5t90 27.5q35 0 60 -10v-92q-32 16 -72 16q-37 0 -68 -21t-49.5 -56.5t-18.5 -76.5v-285h-85v510zM50 -212l40 57q-18 4 -29.5 18.5t-11.5 33.5q0 21 16 38t40 17q25 0 40.5 -16.5t15.5 -41.5q0 -19 -12 -43l-61 -89z" />
    <glyph glyph-name="Rcaron" unicode="&#x158;" horiz-adv-x="586" 
d="M80 716h242q59 0 110 -27t81.5 -75.5t30.5 -109.5q0 -50 -22.5 -93t-62 -72t-87.5 -39l-2 -3l202 -293v-4h-100l-195 292h-113v-292h-84v716zM317 371q37 0 69.5 17t52 47.5t19.5 68.5q0 33 -17 63t-47.5 49t-70.5 19h-159v-264h153zM141 895v5h82l53 -63h8l54 63h82v-5
l-102 -116h-75z" />
    <glyph glyph-name="rcaron" unicode="&#x159;" horiz-adv-x="375" 
d="M63 510h81v-82h4q15 42 58 69.5t90 27.5q35 0 60 -10v-92q-32 16 -72 16q-37 0 -68 -21t-49.5 -56.5t-18.5 -76.5v-285h-85v510zM65 731v5h82l53 -64h8l54 64h82v-5l-102 -117h-75z" />
    <glyph glyph-name="Sacute" unicode="&#x15a;" horiz-adv-x="561" 
d="M126 35q-70 51 -96 143l81 33q17 -64 63 -105t108 -41t105 33.5t43 91.5q0 50 -36.5 82.5t-119.5 60.5l-45 16q-76 27 -124 71t-48 122q0 51 28 94.5t78 69.5t112 26t108 -23t73.5 -56t38.5 -65l-80 -34q-10 37 -45.5 67t-93.5 30q-55 0 -94 -31t-39 -78q0 -42 33 -68.5
t100 -49.5l47 -16q91 -33 142 -82.5t51 -134.5q0 -69 -35.5 -116t-89.5 -69t-111 -22q-84 0 -154 51zM290 900h93l-71 -127h-74z" />
    <glyph glyph-name="sacute" unicode="&#x15b;" horiz-adv-x="473" 
d="M104 22.5q-55 38.5 -78 98.5l76 34q19 -46 56.5 -71t82.5 -25q48 0 82 19.5t34 55.5q0 32 -27 51.5t-85 33.5l-62 16q-61 15 -100 51t-39 93q0 44 26.5 77.5t70.5 51.5t95 18q67 0 119.5 -29t74.5 -81l-74 -34q-34 68 -121 68q-42 0 -73.5 -19.5t-31.5 -49.5
q0 -28 22 -45.5t66 -28.5l74 -19q75 -19 113 -56.5t38 -91.5q0 -47 -27 -82.5t-73 -54.5t-102 -19q-82 0 -137 38.5zM251 736h93l-71 -127h-74z" />
    <glyph glyph-name="Scircumflex" unicode="&#x15c;" horiz-adv-x="561" 
d="M126 35q-70 51 -96 143l81 33q17 -64 63 -105t108 -41t105 33.5t43 91.5q0 50 -36.5 82.5t-119.5 60.5l-45 16q-76 27 -124 71t-48 122q0 51 28 94.5t78 69.5t112 26t108 -23t73.5 -56t38.5 -65l-80 -34q-10 37 -45.5 67t-93.5 30q-55 0 -94 -31t-39 -78q0 -42 33 -68.5
t100 -49.5l47 -16q91 -33 142 -82.5t51 -134.5q0 -69 -35.5 -116t-89.5 -69t-111 -22q-84 0 -154 51zM136 784l102 116h75l102 -116v-5h-82l-54 63h-8l-53 -63h-82v5z" />
    <glyph glyph-name="scircumflex" unicode="&#x15d;" horiz-adv-x="473" 
d="M104 22.5q-55 38.5 -78 98.5l76 34q19 -46 56.5 -71t82.5 -25q48 0 82 19.5t34 55.5q0 32 -27 51.5t-85 33.5l-62 16q-61 15 -100 51t-39 93q0 44 26.5 77.5t70.5 51.5t95 18q67 0 119.5 -29t74.5 -81l-74 -34q-34 68 -121 68q-42 0 -73.5 -19.5t-31.5 -49.5
q0 -28 22 -45.5t66 -28.5l74 -19q75 -19 113 -56.5t38 -91.5q0 -47 -27 -82.5t-73 -54.5t-102 -19q-82 0 -137 38.5zM97 619l102 117h75l102 -117v-5h-82l-54 64h-8l-53 -64h-82v5z" />
    <glyph glyph-name="Scedilla" unicode="&#x15e;" horiz-adv-x="561" 
d="M483 78.5q-33 -45.5 -84 -68.5t-106 -26l-15 -33q18 3 23 3q38 0 64.5 -27t26.5 -68q0 -40 -29 -68t-72 -28q-32 0 -57.5 19t-36.5 48l50 22q5 -15 16.5 -25.5t27.5 -10.5q20 0 32 12.5t12 30.5q0 19 -12 32t-32 13q-21 0 -35 -17l-44 20l30 80q-73 11 -131 60.5
t-81 130.5l81 33q17 -64 63 -105t108 -41t105 33.5t43 91.5q0 50 -36.5 82.5t-119.5 60.5l-45 16q-76 27 -124 71t-48 122q0 51 28 94.5t78 69.5t112 26t108 -23t73.5 -56t38.5 -65l-80 -34q-10 37 -45.5 67t-93.5 30q-55 0 -94 -31t-39 -78q0 -42 33 -68.5t100 -49.5
l47 -16q91 -33 142 -82.5t51 -134.5q0 -67 -33 -112.5z" />
    <glyph glyph-name="scedilla" unicode="&#x15f;" horiz-adv-x="473" 
d="M392 32q-51 -42 -130 -47l-15 -34q18 3 23 3q38 0 64.5 -27t26.5 -68q0 -40 -29 -68t-72 -28q-32 0 -57.5 19t-36.5 48l50 22q5 -15 16.5 -25.5t27.5 -10.5q20 0 32 12.5t12 30.5q0 19 -12 32t-32 13q-21 0 -35 -17l-44 20l30 79q-70 6 -117.5 43.5t-67.5 91.5l76 34
q19 -46 56.5 -71t82.5 -25q48 0 82 19.5t34 55.5q0 32 -27 51.5t-85 33.5l-62 16q-61 15 -100 51t-39 93q0 44 26.5 77.5t70.5 51.5t95 18q67 0 119.5 -29t74.5 -81l-74 -34q-34 68 -121 68q-42 0 -73.5 -19.5t-31.5 -49.5q0 -28 22 -45.5t66 -28.5l74 -19q75 -19 113 -56.5
t38 -91.5q0 -66 -51 -108z" />
    <glyph glyph-name="Scaron" unicode="&#x160;" horiz-adv-x="561" 
d="M126 35q-70 51 -96 143l81 33q17 -64 63 -105t108 -41t105 33.5t43 91.5q0 50 -36.5 82.5t-119.5 60.5l-45 16q-76 27 -124 71t-48 122q0 51 28 94.5t78 69.5t112 26t108 -23t73.5 -56t38.5 -65l-80 -34q-10 37 -45.5 67t-93.5 30q-55 0 -94 -31t-39 -78q0 -42 33 -68.5
t100 -49.5l47 -16q91 -33 142 -82.5t51 -134.5q0 -69 -35.5 -116t-89.5 -69t-111 -22q-84 0 -154 51zM136 895v5h82l53 -63h8l54 63h82v-5l-102 -116h-75z" />
    <glyph glyph-name="scaron" unicode="&#x161;" horiz-adv-x="473" 
d="M104 22.5q-55 38.5 -78 98.5l76 34q19 -46 56.5 -71t82.5 -25q48 0 82 19.5t34 55.5q0 32 -27 51.5t-85 33.5l-62 16q-61 15 -100 51t-39 93q0 44 26.5 77.5t70.5 51.5t95 18q67 0 119.5 -29t74.5 -81l-74 -34q-34 68 -121 68q-42 0 -73.5 -19.5t-31.5 -49.5
q0 -28 22 -45.5t66 -28.5l74 -19q75 -19 113 -56.5t38 -91.5q0 -47 -27 -82.5t-73 -54.5t-102 -19q-82 0 -137 38.5zM97 731v5h82l53 -64h8l54 64h82v-5l-102 -117h-75z" />
    <glyph glyph-name="uni0162" unicode="&#x162;" horiz-adv-x="539" 
d="M227.5 -218q-25.5 19 -36.5 48l49 22q6 -15 17.5 -25.5t27.5 -10.5q19 0 31.5 12.5t12.5 30.5t-12.5 31.5t-31.5 13.5q-21 0 -35 -17l-44 20l34 93h-13v635h-201v81h486v-81h-200v-635h-18l-22 -49q15 3 23 3q37 0 63.5 -27t26.5 -68q0 -40 -28.5 -68t-71.5 -28
q-32 0 -57.5 19z" />
    <glyph glyph-name="uni0163" unicode="&#x163;" horiz-adv-x="366" 
d="M233 -6l-21 -43q18 3 23 3q37 0 63.5 -27t26.5 -68q0 -40 -28.5 -68t-71.5 -28q-32 0 -57.5 19t-36.5 48l50 22q5 -15 16.5 -26t27.5 -11q20 0 32 13t12 31q0 19 -12 32t-32 13q-21 0 -35 -17l-44 20l42 101q-17 8 -31 21q-20 19 -30 44t-10 61v299h-89v77h89v144h85
v-144h124v-77h-124v-278q0 -42 16 -62q19 -22 55 -22q29 0 56 17v-83q-15 -7 -30.5 -10t-39.5 -3q-10 0 -26 2z" />
    <glyph glyph-name="Tcaron" unicode="&#x164;" horiz-adv-x="539" 
d="M227 635h-201v81h486v-81h-200v-635h-85v635zM130 895v5h82l53 -63h8l54 63h82v-5l-102 -116h-75z" />
    <glyph glyph-name="tcaron" unicode="&#x165;" horiz-adv-x="359" 
d="M267 716h85l-24 -142h-61v142zM201.5 2q-26.5 10 -44.5 27q-20 19 -30 44t-10 61v299h-89v77h89v144h85v-144h124v-77h-124v-278q0 -42 16 -62q19 -22 55 -22q29 0 56 17v-83q-15 -7 -30.5 -10t-39.5 -3q-31 0 -57.5 10z" />
    <glyph glyph-name="Tbar" unicode="&#x166;" horiz-adv-x="539" 
d="M312 635v-228h130v-66h-130v-341h-85v341h-130v66h130v228h-201v81h486v-81h-200z" />
    <glyph glyph-name="tbar" unicode="&#x167;" horiz-adv-x="366" 
d="M329 88v-83q-15 -7 -30.5 -10t-39.5 -3q-31 0 -57.5 10t-44.5 27q-20 19 -30 44t-10 61v100h-89v77h89v122h-89v77h89v144h85v-144h124v-77h-124v-122h124v-77h-124v-79q0 -42 16 -62q19 -22 55 -22q29 0 56 17z" />
    <glyph glyph-name="Utilde" unicode="&#x168;" horiz-adv-x="652" 
d="M193 19.5q-60 35.5 -93 99t-33 146.5v451h85v-455q0 -87 46 -141.5t132 -54.5t132.5 54.5t46.5 141.5v455h84v-451q0 -83 -31.5 -147t-91 -99t-140.5 -35q-77 0 -137 35.5zM352.5 787.5q-17.5 7.5 -42.5 21.5q-29 18 -40 18q-33 0 -36 -37h-70q0 38 16 63.5t41 38
t50 12.5q31 0 80 -30q30 -17 39 -17q33 0 36 37h70q0 -55 -33.5 -84.5t-74.5 -29.5q-18 0 -35.5 7.5z" />
    <glyph glyph-name="utilde" unicode="&#x169;" horiz-adv-x="561" 
d="M107.5 38q-48.5 54 -48.5 151v321h85v-308q0 -73 33 -107t89 -34q43 0 76.5 23t52 60t18.5 78v288h85v-510h-81v74h-4q-21 -38 -67 -64t-98 -26q-92 0 -140.5 54zM300.5 623.5q-17.5 7.5 -42.5 21.5q-29 18 -40 18q-33 0 -36 -37h-70q0 55 33 84t74 29q31 0 80 -30
q30 -17 39 -17q33 0 36 37h70q0 -55 -33 -84t-75 -29q-18 0 -35.5 7.5z" />
    <glyph glyph-name="Umacron" unicode="&#x16a;" horiz-adv-x="652" 
d="M193 19.5q-60 35.5 -93 99t-33 146.5v451h85v-455q0 -87 46 -141.5t132 -54.5t132.5 54.5t46.5 141.5v455h84v-451q0 -83 -31.5 -147t-91 -99t-140.5 -35q-77 0 -137 35.5zM192 876h277v-66h-277v66z" />
    <glyph glyph-name="umacron" unicode="&#x16b;" horiz-adv-x="561" 
d="M107.5 38q-48.5 54 -48.5 151v321h85v-308q0 -73 33 -107t89 -34q43 0 76.5 23t52 60t18.5 78v288h85v-510h-81v74h-4q-21 -38 -67 -64t-98 -26q-92 0 -140.5 54zM140 712h277v-67h-277v67z" />
    <glyph glyph-name="Ubreve" unicode="&#x16c;" horiz-adv-x="652" 
d="M193 19.5q-60 35.5 -93 99t-33 146.5v451h85v-455q0 -87 46 -141.5t132 -54.5t132.5 54.5t46.5 141.5v455h84v-451q0 -83 -31.5 -147t-91 -99t-140.5 -35q-77 0 -137 35.5zM268.5 788.5q-29.5 16.5 -47.5 45t-18 62.5h69q0 -25 16 -42.5t43 -17.5q25 0 41 17.5t16 42.5
h68q0 -34 -17.5 -62.5t-46.5 -45t-61 -16.5q-33 0 -62.5 16.5z" />
    <glyph glyph-name="ubreve" unicode="&#x16d;" horiz-adv-x="561" 
d="M107.5 38q-48.5 54 -48.5 151v321h85v-308q0 -73 33 -107t89 -34q43 0 76.5 23t52 60t18.5 78v288h85v-510h-81v74h-4q-21 -38 -67 -64t-98 -26q-92 0 -140.5 54zM216.5 623.5q-29.5 16.5 -47.5 45t-18 63.5h69q0 -25 16 -43t43 -18q25 0 41 18t16 43h68
q0 -35 -17.5 -63.5t-46.5 -45t-61 -16.5q-33 0 -62.5 16.5z" />
    <glyph glyph-name="Uring" unicode="&#x16e;" horiz-adv-x="652" 
d="M193 19.5q-60 35.5 -93 99t-33 146.5v451h85v-455q0 -87 46 -141.5t132 -54.5t132.5 54.5t46.5 141.5v455h84v-451q0 -83 -31.5 -147t-91 -99t-140.5 -35q-77 0 -137 35.5zM257 783q-30 30 -30 73q0 44 29.5 73.5t73.5 29.5q43 0 73.5 -30t30.5 -73t-30.5 -73t-73.5 -30
t-73 30zM363 822q14 14 14 34t-14 33.5t-33 13.5t-33 -14t-14 -33t14 -33.5t33 -14.5t33 14z" />
    <glyph glyph-name="uring" unicode="&#x16f;" horiz-adv-x="561" 
d="M107.5 38q-48.5 54 -48.5 151v321h85v-308q0 -73 33 -107t89 -34q43 0 76.5 23t52 60t18.5 78v288h85v-510h-81v74h-4q-21 -38 -67 -64t-98 -26q-92 0 -140.5 54zM205 618.5q-30 30.5 -30 73.5t30 73t73 30t73.5 -30t30.5 -73t-30.5 -73.5t-73.5 -30.5t-73 30.5z
M311.5 658q13.5 14 13.5 34t-14 33.5t-33 13.5t-33 -14t-14 -33q0 -20 14 -34t33 -14q20 0 33.5 14z" />
    <glyph glyph-name="Uhungarumlaut" unicode="&#x170;" horiz-adv-x="652" 
d="M193 19.5q-60 35.5 -93 99t-33 146.5v451h85v-455q0 -87 46 -141.5t132 -54.5t132.5 54.5t46.5 141.5v455h84v-451q0 -83 -31.5 -147t-91 -99t-140.5 -35q-77 0 -137 35.5zM282 900h93l-71 -127h-74zM409 900h93l-71 -127h-74z" />
    <glyph glyph-name="uhungarumlaut" unicode="&#x171;" horiz-adv-x="561" 
d="M107.5 38q-48.5 54 -48.5 151v321h85v-308q0 -73 33 -107t89 -34q43 0 76.5 23t52 60t18.5 78v288h85v-510h-81v74h-4q-21 -38 -67 -64t-98 -26q-92 0 -140.5 54zM214 736h93l-71 -127h-74zM373 736h93l-71 -127h-74z" />
    <glyph glyph-name="Uogonek" unicode="&#x172;" horiz-adv-x="661" 
d="M332.5 -191.5q-32.5 32.5 -32.5 79.5q0 30 15.5 55t37.5 42q-7 -1 -23 -1q-77 0 -137 35.5t-93 99t-33 146.5v451h85v-455q0 -87 46 -141.5t132 -54.5t132.5 54.5t46.5 141.5v455h84v-451q0 -78 -28 -139t-78 -96q-111 -75 -111 -130q0 -23 14 -38.5t37 -15.5q20 0 40 10
v-72q-18 -8 -47 -8q-55 0 -87.5 32.5z" />
    <glyph glyph-name="uogonek" unicode="&#x173;" horiz-adv-x="561" 
d="M381.5 -191.5q-32.5 32.5 -32.5 79.5q0 37 20 65.5t48 46.5v74h-4q-21 -38 -67 -64t-98 -26q-92 0 -140.5 54t-48.5 151v321h85v-308q0 -73 33 -107t89 -34q43 0 76.5 23t52 60t18.5 78v288h85v-510q-36 -28 -54.5 -50t-18.5 -50q0 -23 14 -38.5t37 -15.5q20 0 40 10v-72
q-18 -8 -48 -8q-54 0 -86.5 32.5z" />
    <glyph glyph-name="Wcircumflex" unicode="&#x174;" horiz-adv-x="944" 
d="M17 716h94l130 -526l12 -49h4l15 49l160 526h88l153 -526l15 -49h4l141 575h94l-193 -716h-88l-152 518l-16 56h-4l-17 -56l-158 -518h-88zM337 784l102 116h75l102 -116v-5h-82l-54 63h-8l-53 -63h-82v5z" />
    <glyph glyph-name="wcircumflex" unicode="&#x175;" horiz-adv-x="777" 
d="M7 510h87l122 -403h1l128 403h88l129 -402h1l121 402h86l-165 -510h-86l-132 407l-131 -407h-85zM250 619l102 117h75l102 -117v-5h-82l-54 64h-8l-53 -64h-82v5z" />
    <glyph glyph-name="Ycircumflex" unicode="&#x176;" horiz-adv-x="595" 
d="M257 331l-242 385h99l183 -300h4l180 300h99l-238 -385v-331h-85v331zM158 784l102 116h75l102 -116v-5h-82l-54 63h-8l-53 -63h-82v5z" />
    <glyph glyph-name="ycircumflex" unicode="&#x177;" horiz-adv-x="516" 
d="M219 32l-211 478h92l160 -379h2l154 379h92l-315 -726h-88zM119 619l102 117h75l102 -117v-5h-82l-54 64h-8l-53 -64h-82v5z" />
    <glyph glyph-name="Ydieresis" unicode="&#x178;" horiz-adv-x="595" 
d="M257 331l-242 385h99l183 -300h4l180 300h99l-238 -385v-331h-85v331zM177 805.5q-16 16.5 -16 37.5q0 23 16 38.5t38 15.5q23 0 38 -15.5t15 -38.5q0 -22 -15 -38t-38 -16q-22 0 -38 16.5zM341.5 805.5q-16.5 16.5 -16.5 37.5q0 23 16 38.5t38 15.5q23 0 38.5 -15.5
t15.5 -38.5q0 -22 -15.5 -38t-38.5 -16q-21 0 -37.5 16.5z" />
    <glyph glyph-name="Zacute" unicode="&#x179;" horiz-adv-x="572" 
d="M38 89l386 546h-370v81h468v-89l-386 -546h390v-81h-488v89zM303 900h93l-71 -127h-74z" />
    <glyph glyph-name="zacute" unicode="&#x17a;" horiz-adv-x="487" 
d="M37 73l301 360h-292v77h396v-73l-302 -360h310v-77h-413v73zM259 736h93l-71 -127h-74z" />
    <glyph glyph-name="Zdotaccent" unicode="&#x17b;" horiz-adv-x="572" 
d="M38 89l386 546h-370v81h468v-89l-386 -546h390v-81h-488v89zM254 822q-15 15 -15 34q0 20 15 34.5t34 14.5q22 0 36 -14t14 -35q0 -20 -14.5 -34.5t-35.5 -14.5q-19 0 -34 15z" />
    <glyph glyph-name="zdotaccent" unicode="&#x17c;" horiz-adv-x="487" 
d="M37 73l301 360h-292v77h396v-73l-302 -360h310v-77h-413v73zM206 641q-16 16 -16 38q0 23 16 38t38 15q23 0 38 -15t15 -38q0 -22 -15 -38t-38 -16q-22 0 -38 16z" />
    <glyph glyph-name="Zcaron" unicode="&#x17d;" horiz-adv-x="572" 
d="M38 89l386 546h-370v81h468v-89l-386 -546h390v-81h-488v89zM149 895v5h82l53 -63h8l54 63h82v-5l-102 -116h-75z" />
    <glyph glyph-name="zcaron" unicode="&#x17e;" horiz-adv-x="487" 
d="M37 73l301 360h-292v77h396v-73l-302 -360h310v-77h-413v73zM105 731v5h82l53 -64h8l54 64h82v-5l-102 -117h-75z" />
    <glyph glyph-name="florin" unicode="&#x192;" horiz-adv-x="575" 
d="M427 626q-22 -17 -29 -49l-35 -174h130v-78h-145l-82 -412q-12 -59 -53 -96t-101 -37q-31 0 -60 10v82q33 -15 61 -15t47.5 18.5t26.5 50.5l79 399h-106v78h121l37 185q11 59 55.5 95.5t107.5 36.5q22 0 32.5 -2t25.5 -7v-83q-25 15 -58 15q-32 0 -54 -17z" />
    <glyph glyph-name="Aringacute" unicode="&#x1fa;" horiz-adv-x="669" 
d="M654 0h-93l-72 197h-309l-72 -197h-93l256 674q-18 15 -29 36.5t-11 45.5q0 35 20 61.5t52 36.5l33 78h85l-43 -82q27 -13 43.5 -38t16.5 -56q0 -24 -10.5 -45t-29.5 -36zM365 725q13 13 13 31t-13 31t-31 13q-17 0 -30 -13t-13 -31t13 -31t30 -13q18 0 31 13zM460 277
l-95 258l-29 77h-4l-28 -77l-95 -258h251z" />
    <glyph glyph-name="aringacute" unicode="&#x1fb;" horiz-adv-x="531" 
d="M261 919h93l-59 -105h-77zM185 618.5q-30 30.5 -30 73.5t30 73t73 30t73.5 -30t30.5 -73t-30.5 -73.5t-73.5 -30.5t-73 30.5zM291.5 658q13.5 14 13.5 34t-13.5 33.5t-33.5 13.5q-19 0 -33 -14t-14 -33q0 -20 14 -34t33 -14q20 0 33.5 14zM126 6q-44 22 -68 60.5
t-24 87.5q0 81 61 126.5t154 45.5q46 0 85.5 -10t60.5 -23v31q0 57 -40 91.5t-101 34.5q-43 0 -79 -18.5t-57 -51.5l-64 48q30 46 82.5 72t116.5 26q104 0 163.5 -54.5t59.5 -148.5v-323h-81v73h-4q-22 -37 -66 -63t-99 -26q-56 0 -100 22zM314 81q37 22 59 59t22 81
q-24 16 -59 26t-74 10q-70 0 -105.5 -29t-35.5 -75q0 -42 32 -68t81 -26q43 0 80 22z" />
    <glyph glyph-name="AEacute" unicode="&#x1fc;" horiz-adv-x="960" 
d="M439 716h464v-81h-329v-237h297v-80h-297v-237h329v-81h-414v197h-264l-118 -197h-100zM489 277v358h-4l-29 -50l-184 -308h217zM681 900h93l-71 -127h-74z" />
    <glyph glyph-name="aeacute" unicode="&#x1fd;" horiz-adv-x="919" 
d="M126 6q-44 22 -68 60.5t-24 87.5q0 81 61 126.5t154 45.5q46 0 85.5 -10t60.5 -23v31q0 57 -38 91.5t-98 34.5q-41 0 -72 -19.5t-49 -53.5l-72 36q23 51 74.5 82t116.5 31q69 0 118 -26.5t75 -74.5q31 47 79.5 73.5t109.5 26.5q75 0 130 -33t84.5 -92t29.5 -135
q0 -12 -2 -26h-404q3 -58 28 -98t63.5 -60t80.5 -20q100 0 151 92l72 -35q-32 -61 -89 -97.5t-137 -36.5q-73 0 -129 34.5t-85 93.5q-72 -128 -206 -128q-56 0 -100 22zM793 309q-2 32 -18 64t-50 53.5t-86 21.5q-61 0 -102.5 -38t-54.5 -101h311zM314 81q37 22 59 59t22 81
q-22 15 -57.5 25.5t-75.5 10.5q-70 0 -105.5 -29t-35.5 -75q0 -42 32 -68t81 -26q43 0 80 22zM465 736h93l-71 -127h-74z" />
    <glyph glyph-name="Oslashacute" unicode="&#x1fe;" horiz-adv-x="825" 
d="M742.5 525.5q37.5 -77.5 37.5 -167.5q0 -103 -48 -188.5t-132.5 -135.5t-187.5 -50q-91 0 -167 39l-37 -59l-59 37l37 59q-66 52 -103.5 130t-37.5 168q0 102 48 188t132 136t187 50q91 0 168 -40l38 61l58 -38l-37 -60q66 -52 103.5 -129.5zM157.5 229.5
q26.5 -58.5 72.5 -98.5l307 492q-59 28 -125 28q-77 0 -141 -37.5t-102 -104.5t-38 -151q0 -70 26.5 -128.5zM553.5 102.5q64.5 37.5 102 104t37.5 151.5q0 70 -26 128t-72 98l-307 -491q59 -28 124 -28q77 0 141.5 37.5zM427 900h93l-71 -127h-74z" />
    <glyph glyph-name="oslashacute" unicode="&#x1ff;" horiz-adv-x="596" 
d="M535.5 373q24.5 -55 24.5 -118q0 -75 -33.5 -137t-93.5 -98t-135 -36q-62 0 -115 25l-26 -41l-55 31l28 44q-45 38 -69.5 92.5t-24.5 119.5q0 75 33.5 137t93.5 98t135 36q64 0 116 -26l27 43l54 -32l-28 -45q44 -38 68.5 -93zM134 175q14 -36 39 -62l199 319
q-36 17 -74 17q-47 0 -88 -23.5t-65.5 -67.5t-24.5 -103q0 -44 14 -80zM385.5 84.5q40.5 23.5 65 67.5t24.5 103q0 86 -52 141l-198 -319q33 -16 73 -16q47 0 87.5 23.5zM313 736h93l-71 -127h-74z" />
    <glyph glyph-name="uni0218" unicode="&#x218;" horiz-adv-x="561" 
d="M126 35q-70 51 -96 143l81 33q17 -64 63 -105t108 -41t105 33.5t43 91.5q0 50 -36.5 82.5t-119.5 60.5l-45 16q-76 27 -124 71t-48 122q0 51 28 94.5t78 69.5t112 26t108 -23t73.5 -56t38.5 -65l-80 -34q-10 37 -45.5 67t-93.5 30q-55 0 -94 -31t-39 -78q0 -42 33 -68.5
t100 -49.5l47 -16q91 -33 142 -82.5t51 -134.5q0 -69 -35.5 -116t-89.5 -69t-111 -22q-84 0 -154 51zM227 -212l40 57q-18 4 -29.5 18.5t-11.5 33.5q0 21 16 38t40 17q25 0 40.5 -16.5t15.5 -41.5q0 -19 -12 -43l-61 -89z" />
    <glyph glyph-name="uni0219" unicode="&#x219;" horiz-adv-x="473" 
d="M104 22.5q-55 38.5 -78 98.5l76 34q19 -46 56.5 -71t82.5 -25q48 0 82 19.5t34 55.5q0 32 -27 51.5t-85 33.5l-62 16q-61 15 -100 51t-39 93q0 44 26.5 77.5t70.5 51.5t95 18q67 0 119.5 -29t74.5 -81l-74 -34q-34 68 -121 68q-42 0 -73.5 -19.5t-31.5 -49.5
q0 -28 22 -45.5t66 -28.5l74 -19q75 -19 113 -56.5t38 -91.5q0 -47 -27 -82.5t-73 -54.5t-102 -19q-82 0 -137 38.5zM187 -212l40 57q-18 4 -29.5 18.5t-11.5 33.5q0 21 16 38t40 17q25 0 40.5 -16.5t15.5 -41.5q0 -19 -12 -43l-61 -89z" />
    <glyph glyph-name="uni021A" unicode="&#x21a;" horiz-adv-x="539" 
d="M227 635h-201v81h486v-81h-200v-635h-85v635zM214 -212l40 57q-18 4 -29.5 18.5t-11.5 33.5q0 21 16 38t40 17q25 0 40.5 -16.5t15.5 -41.5q0 -19 -12 -43l-61 -89z" />
    <glyph glyph-name="uni021B" unicode="&#x21b;" horiz-adv-x="366" 
d="M201.5 2q-26.5 10 -44.5 27q-20 19 -30 44t-10 61v299h-89v77h89v144h85v-144h124v-77h-124v-278q0 -42 16 -62q19 -22 55 -22q29 0 56 17v-83q-15 -7 -30.5 -10t-39.5 -3q-31 0 -57.5 10zM179 -212l40 57q-18 4 -29.5 18.5t-11.5 33.5q0 21 16 38t40 17q25 0 40.5 -16.5
t15.5 -41.5q0 -19 -12 -43l-61 -89z" />
    <glyph glyph-name="uni0237" unicode="&#x237;" horiz-adv-x="226" 
d="M-30 -219v81q8 -5 20 -8t22 -3q31 0 45 19.5t14 57.5v582h84v-582q0 -77 -37 -115.5t-103 -38.5q-24 0 -45 7z" />
    <glyph glyph-name="uni0259" unicode="&#x259;" horiz-adv-x="563" 
d="M404 491q58 -35 90.5 -96.5t32.5 -138.5q0 -74 -30.5 -136t-86.5 -99t-130 -37q-75 0 -130 33.5t-84.5 92.5t-29.5 135q0 16 3 26h403q-3 58 -28 98t-63.5 60t-80.5 20q-98 0 -151 -92l-72 35q33 62 89.5 98t136.5 36q73 0 131 -35zM126 201q2 -32 18 -64t50.5 -54
t86.5 -22q60 0 101.5 38.5t54.5 101.5h-311z" />
    <glyph glyph-name="circumflex" unicode="&#x2c6;" horiz-adv-x="395" 
d="M58 600l102 116h75l102 -116v-5h-82l-54 63h-8l-53 -63h-82v5z" />
    <glyph glyph-name="caron" unicode="&#x2c7;" horiz-adv-x="395" 
d="M58 711v5h82l53 -63h8l54 63h82v-5l-102 -116h-75z" />
    <glyph glyph-name="breve" unicode="&#x2d8;" horiz-adv-x="399" 
d="M138.5 604.5q-29.5 16.5 -47.5 45t-18 62.5h69q0 -25 16 -42.5t43 -17.5q25 0 41 17.5t16 42.5h68q0 -34 -17.5 -62.5t-46.5 -45t-61 -16.5q-33 0 -62.5 16.5z" />
    <glyph glyph-name="dotaccent" unicode="&#x2d9;" horiz-adv-x="227" 
d="M76 621.5q-16 16.5 -16 37.5q0 23 16 38.5t38 15.5q23 0 38 -15.5t15 -38.5q0 -22 -15 -38t-38 -16q-22 0 -38 16.5z" />
    <glyph glyph-name="ring" unicode="&#x2da;" horiz-adv-x="402" 
d="M128 599q-30 30 -30 73q0 44 30 73.5t73 29.5t73.5 -30t30.5 -73t-30.5 -73t-73.5 -30t-73 30zM234 638q14 14 14 34t-13.5 33.5t-33.5 13.5q-19 0 -33 -14t-14 -33t14 -33.5t33 -14.5t33 14z" />
    <glyph glyph-name="ogonek" unicode="&#x2db;" horiz-adv-x="401" 
d="M122.5 -192q-32.5 32 -32.5 80q0 64 63 112h85q-36 -28 -54.5 -50t-18.5 -50q0 -23 14 -38.5t37 -15.5q20 0 40 10v-72q-18 -8 -47 -8q-54 0 -86.5 32z" />
    <glyph glyph-name="tilde" unicode="&#x2dc;" horiz-adv-x="398" 
d="M221.5 603.5q-17.5 7.5 -42.5 21.5q-29 18 -40 18q-33 0 -36 -37h-70q0 38 16 63.5t41 38t50 12.5q31 0 80 -30q30 -17 39 -17q33 0 36 37h70q0 -55 -33.5 -84.5t-74.5 -29.5q-18 0 -35.5 7.5z" />
    <glyph glyph-name="hungarumlaut" unicode="&#x2dd;" horiz-adv-x="389" 
d="M126 716h93l-71 -127h-74zM285 716h93l-71 -127h-74z" />
    <glyph glyph-name="gravecomb" unicode="&#x300;" horiz-adv-x="0" 
d="M-299 736h93l52 -127h-75z" />
    <glyph glyph-name="acutecomb" unicode="&#x301;" horiz-adv-x="0" 
d="M-190 736h93l-71 -127h-74z" />
    <glyph glyph-name="uni0302" unicode="&#x302;" horiz-adv-x="0" 
d="M-337 619l102 117h75l102 -117v-5h-82l-54 64h-8l-53 -64h-82v5z" />
    <glyph glyph-name="tildecomb" unicode="&#x303;" horiz-adv-x="0" 
d="M-176.5 623.5q-17.5 7.5 -42.5 21.5q-29 18 -40 18q-33 0 -36 -37h-70q0 55 33 84t74 29q31 0 80 -30q30 -17 39 -17q33 0 36 37h70q0 -55 -33 -84t-75 -29q-18 0 -35.5 7.5z" />
    <glyph glyph-name="uni0304" unicode="&#x304;" horiz-adv-x="0" 
d="M-338 712h277v-67h-277v67z" />
    <glyph glyph-name="uni0306" unicode="&#x306;" horiz-adv-x="0" 
d="M-260.5 623.5q-29.5 16.5 -47.5 45t-18 63.5h69q0 -25 16 -43t43 -18q25 0 41 18t16 43h68q0 -35 -17.5 -63.5t-46.5 -45t-61 -16.5q-33 0 -62.5 16.5z" />
    <glyph glyph-name="uni0307" unicode="&#x307;" horiz-adv-x="0" 
d="M-151 641q-16 16 -16 38q0 23 16 38t38 15q23 0 38 -15t15 -38q0 -22 -15 -38t-38 -16q-22 0 -38 16z" />
    <glyph glyph-name="uni0308" unicode="&#x308;" horiz-adv-x="0" 
d="M-316 641q-16 16 -16 38q0 23 16 38t38 15q23 0 38 -15t15 -38q0 -22 -15 -38t-38 -16q-22 0 -38 16zM-151.5 641q-16.5 16 -16.5 38q0 23 16 38t38 15q23 0 38.5 -15t15.5 -38q0 -22 -15.5 -38t-38.5 -16q-21 0 -37.5 16z" />
    <glyph glyph-name="uni030A" unicode="&#x30a;" horiz-adv-x="0" 
d="M-274 618.5q-30 30.5 -30 73.5t30 73t73 30t73.5 -30t30.5 -73t-30.5 -73.5t-73.5 -30.5t-73 30.5zM-167.5 658q13.5 14 13.5 34t-14 33.5t-33 13.5t-33 -14t-14 -33q0 -20 14 -34t33 -14q20 0 33.5 14z" />
    <glyph glyph-name="uni030B" unicode="&#x30b;" horiz-adv-x="0" 
d="M-263 736h93l-71 -127h-74zM-104 736h93l-71 -127h-74z" />
    <glyph glyph-name="uni030C" unicode="&#x30c;" horiz-adv-x="0" 
d="M-337 731v5h82l53 -64h8l54 64h82v-5l-102 -117h-75z" />
    <glyph glyph-name="uni0312" unicode="&#x312;" horiz-adv-x="0" 
d="M-147 756l-40 -57q18 -4 29.5 -18.5t11.5 -33.5q0 -21 -16 -38t-40 -17q-25 0 -40.5 16.5t-15.5 41.5q0 19 12 43l61 89z" />
    <glyph glyph-name="uni0326" unicode="&#x326;" horiz-adv-x="0" 
d="M-259 -212l40 57q-18 4 -29.5 18.5t-11.5 33.5q0 21 16 38t40 17q25 0 40.5 -16.5t15.5 -41.5q0 -19 -12 -43l-61 -89z" />
    <glyph glyph-name="uni0327" unicode="&#x327;" horiz-adv-x="0" 
d="M-294.5 -218q-25.5 19 -36.5 48l50 22q5 -15 16.5 -25.5t27.5 -10.5q20 0 32 12.5t12 30.5q0 19 -12 32t-32 13q-21 0 -35 -17l-44 20l35 93h53l-22 -49q18 3 23 3q38 0 64.5 -27t26.5 -68q0 -40 -29 -68t-72 -28q-32 0 -57.5 19z" />
    <glyph glyph-name="uni0328" unicode="&#x328;" horiz-adv-x="0" 
d="M-279 -192q-32 32 -32 80q0 64 63 112h85q-36 -28 -54.5 -50t-18.5 -50q0 -23 14 -38.5t37 -15.5q20 0 40 10v-72q-18 -8 -47 -8q-55 0 -87 32z" />
    <glyph glyph-name="uni0374" unicode="&#x374;" horiz-adv-x="270" 
d="M121 716h106l-117 -209h-71z" />
    <glyph glyph-name="uni0375" unicode="&#x375;" horiz-adv-x="270" 
d="M155 122h74l-82 -209h-106z" />
    <glyph glyph-name="uni037E" unicode="&#x37e;" horiz-adv-x="233" 
d="M71.5 406.5q-18.5 18.5 -18.5 45.5t18.5 45.5t44.5 18.5q27 0 45.5 -18.5t18.5 -45.5t-18.5 -45.5t-45.5 -18.5q-26 0 -44.5 18.5zM47 -67l53 83q-18 3 -32 19t-14 39q0 26 18.5 44.5t45.5 18.5t45.5 -18.5t18.5 -44.5q0 -17 -7 -32.5t-21 -35.5l-66 -100z" />
    <glyph glyph-name="tonos" unicode="&#x384;" horiz-adv-x="397" 
d="M182 736h93l-70 -127h-74z" />
    <glyph glyph-name="dieresistonos" unicode="&#x385;" horiz-adv-x="393" 
d="M166 752h60v-144h-60v144zM48 644q-15 15 -15 35q0 21 14.5 35t34.5 14q21 0 35 -14t14 -35q0 -20 -14 -35t-35 -15q-19 0 -34 15zM276.5 644.5q-15.5 15.5 -15.5 34.5q0 21 15 35t35 14q21 0 35 -14t14 -35q0 -20 -14 -35t-35 -15q-19 0 -34.5 15.5z" />
    <glyph glyph-name="Alphatonos" unicode="&#x386;" horiz-adv-x="669" 
d="M112 716h93l-71 -127h-74zM286 716h96l272 -716h-93l-72 197h-309l-72 -197h-93zM460 277l-95 258l-29 77h-4l-28 -77l-95 -258h251z" />
    <glyph glyph-name="anoteleia" unicode="&#x387;" horiz-adv-x="183" 
d="M46.5 278.5q-18.5 18.5 -18.5 45.5t18.5 45.5t45.5 18.5q26 0 44.5 -18.5t18.5 -45.5t-18.5 -45.5t-44.5 -18.5q-27 0 -45.5 18.5z" />
    <glyph glyph-name="Epsilontonos" unicode="&#x388;" horiz-adv-x="584" 
d="M-23 716h93l-71 -127h-74zM113 716h414v-81h-330v-237h298v-80h-298v-237h330v-81h-414v716z" />
    <glyph glyph-name="Etatonos" unicode="&#x389;" horiz-adv-x="731" 
d="M-23 716h93l-71 -127h-74zM113 716h84v-310h370v310h84v-716h-84v326h-370v-326h-84v716z" />
    <glyph glyph-name="Iotatonos" unicode="&#x38a;" horiz-adv-x="278" 
d="M-23 716h93l-71 -127h-74zM113 716h84v-716h-84v716z" />
    <glyph glyph-name="Omicrontonos" unicode="&#x38c;" horiz-adv-x="783" 
d="M-20 716h93l-71 -127h-74zM184 34q-84 50 -132 135.5t-48 188.5q0 102 48 188t132 136t187 50t187 -50t132.5 -136t48.5 -188q0 -103 -48 -188.5t-132.5 -135.5t-187.5 -50t-187 50zM512.5 102.5q64.5 37.5 102 104t37.5 151.5t-37.5 151.5t-102 104t-141.5 37.5
t-141 -37.5t-102 -104.5t-38 -151t38 -151t102 -104.5t141 -37.5t141.5 37.5z" />
    <glyph glyph-name="Upsilontonos" unicode="&#x38e;" horiz-adv-x="664" 
d="M-23 716h93l-71 -127h-74zM326 331l-242 385h99l183 -300h4l180 300h99l-238 -385v-331h-85v331z" />
    <glyph glyph-name="Omegatonos" unicode="&#x38f;" horiz-adv-x="758" 
d="M-20 716h93l-71 -127h-74zM23 81h165v4q-85 44 -133 122t-48 176q0 92 46 172.5t126 128.5t178 48t178.5 -48t126 -128t45.5 -173q0 -98 -48 -176t-133 -122v-4h166v-81h-276v120q58 14 105 51t73.5 92t26.5 120q0 75 -35.5 136t-96 96.5t-132.5 35.5t-132.5 -35.5
t-96 -96.5t-35.5 -136q0 -65 26.5 -120t73.5 -92t105 -51v-120h-275v81z" />
    <glyph glyph-name="iotadieresistonos" unicode="&#x390;" horiz-adv-x="226" 
d="M71 510h84v-510h-84v510zM83 752h60v-144h-60v144zM-35 644q-15 15 -15 35q0 21 14.5 35t34.5 14q21 0 35 -14t14 -35q0 -20 -14 -35t-35 -15q-19 0 -34 15zM193.5 644.5q-15.5 15.5 -15.5 34.5q0 21 15 35t35 14q21 0 35 -14t14 -35q0 -20 -14 -35t-35 -15
q-19 0 -34.5 15.5z" />
    <glyph glyph-name="Alpha" unicode="&#x391;" horiz-adv-x="669" 
d="M286 716h96l272 -716h-93l-72 197h-309l-72 -197h-93zM460 277l-95 258l-29 77h-4l-28 -77l-95 -258h251z" />
    <glyph glyph-name="Beta" unicode="&#x392;" horiz-adv-x="606" 
d="M80 716h257q54 0 101.5 -25t75.5 -69t28 -99q0 -52 -26.5 -91t-71.5 -60v-4q54 -18 88 -62t34 -103q0 -58 -29.5 -104.5t-79 -72.5t-106.5 -26h-271v716zM337 406q36 0 63.5 17t42.5 43.5t15 54.5q0 27 -14.5 53.5t-41 43.5t-61.5 17h-177v-229h173zM356 81q36 0 64.5 18
t44 46.5t15.5 58.5t-16 58.5t-45 46t-67 17.5h-188v-245h192z" />
    <glyph glyph-name="Gamma" unicode="&#x393;" horiz-adv-x="504" 
d="M80 716h398v-81h-314v-635h-84v716z" />
    <glyph glyph-name="uni0394" unicode="&#x394;" horiz-adv-x="659" 
d="M281 716h96l267 -716h-629zM522 81l-191 531h-4l-190 -531h385z" />
    <glyph glyph-name="Epsilon" unicode="&#x395;" horiz-adv-x="551" 
d="M80 716h414v-81h-330v-237h298v-80h-298v-237h330v-81h-414v716z" />
    <glyph glyph-name="Zeta" unicode="&#x396;" horiz-adv-x="572" 
d="M38 89l386 546h-370v81h468v-89l-386 -546h390v-81h-488v89z" />
    <glyph glyph-name="Eta" unicode="&#x397;" horiz-adv-x="698" 
d="M80 716h84v-310h370v310h84v-716h-84v326h-370v-326h-84v716z" />
    <glyph glyph-name="Theta" unicode="&#x398;" horiz-adv-x="838" 
d="M225 34q-84 50 -132 135.5t-48 188.5q0 102 48 188t132 136t187 50t187 -50t132.5 -136t48.5 -188q0 -103 -48 -188.5t-132.5 -135.5t-187.5 -50t-187 50zM553.5 102.5q64.5 37.5 102 104t37.5 151.5t-37.5 151.5t-102 104t-141.5 37.5t-141 -37.5t-102 -104.5t-38 -151
t38 -151t102 -104.5t141 -37.5t141.5 37.5zM260 398h319v-80h-319v80z" />
    <glyph glyph-name="Iota" unicode="&#x399;" horiz-adv-x="244" 
d="M80 716h84v-716h-84v716z" />
    <glyph glyph-name="Kappa" unicode="&#x39a;" horiz-adv-x="614" 
d="M80 716h84v-357h4l315 357h111v-4l-326 -362l340 -346v-4h-118l-322 337h-4v-337h-84v716z" />
    <glyph glyph-name="Lambda" unicode="&#x39b;" 
d="M277 716h96l262 -716h-94l-190 543l-24 69h-4l-24 -69l-191 -543h-93z" />
    <glyph glyph-name="Mu" unicode="&#x39c;" horiz-adv-x="866" 
d="M80 716h123l228 -587h4l228 587h123v-716h-84v455l4 136h-4l-234 -591h-70l-234 591h-4l4 -136v-455h-84v716z" />
    <glyph glyph-name="Nu" unicode="&#x39d;" horiz-adv-x="708" 
d="M80 716h104l359 -570h4l-4 138v432h85v-716h-88l-376 597h-4l4 -138v-459h-84v716z" />
    <glyph glyph-name="Xi" unicode="&#x39e;" horiz-adv-x="496" 
d="M33 716h430v-81h-430v81zM65 398h366v-80h-366v80zM33 81h430v-81h-430v81z" />
    <glyph glyph-name="Omicron" unicode="&#x39f;" horiz-adv-x="825" 
d="M225 34q-84 50 -132 135.5t-48 188.5q0 102 48 188t132 136t187 50t187 -50t132.5 -136t48.5 -188q0 -103 -48 -188.5t-132.5 -135.5t-187.5 -50t-187 50zM553.5 102.5q64.5 37.5 102 104t37.5 151.5t-37.5 151.5t-102 104t-141.5 37.5t-141 -37.5t-102 -104.5t-38 -151
t38 -151t102 -104.5t141 -37.5t141.5 37.5z" />
    <glyph glyph-name="Pi" unicode="&#x3a0;" horiz-adv-x="674" 
d="M80 716h514v-716h-84v635h-346v-635h-84v716z" />
    <glyph glyph-name="Rho" unicode="&#x3a1;" horiz-adv-x="576" 
d="M80 716h241q60 0 111 -27t81.5 -75.5t30.5 -109.5t-30.5 -109.5t-81.5 -75.5t-111 -27h-157v-292h-84v716zM323 373q40 0 70.5 19t47.5 49t17 63t-17 63t-47.5 49t-70.5 19h-159v-262h159z" />
    <glyph glyph-name="Sigma" unicode="&#x3a3;" horiz-adv-x="511" 
d="M49 88l217 278l-217 262v88h431v-81h-338l226 -269l-226 -285h338v-81h-431v88z" />
    <glyph glyph-name="Tau" unicode="&#x3a4;" horiz-adv-x="539" 
d="M227 635h-201v81h486v-81h-200v-635h-85v635z" />
    <glyph glyph-name="Upsilon" unicode="&#x3a5;" horiz-adv-x="595" 
d="M257 331l-242 385h99l183 -300h4l180 300h99l-238 -385v-331h-85v331z" />
    <glyph glyph-name="Phi" unicode="&#x3a6;" horiz-adv-x="798" 
d="M714.5 212.5q-38.5 -65.5 -109 -106t-163.5 -48.5v-58h-85v58q-92 8 -163 48.5t-110 106t-39 145.5t39 145.5t110 106t163 48.5v58h85v-58q93 -8 163.5 -48.5t109 -106t38.5 -145.5t-38.5 -145.5zM191.5 208q60.5 -60 165.5 -71v442q-105 -10 -165.5 -70t-60.5 -151
q0 -90 60.5 -150zM607 208.5q60 60.5 60 149.5q0 90 -60 150t-165 71v-442q105 11 165 71.5z" />
    <glyph glyph-name="Chi" unicode="&#x3a7;" horiz-adv-x="631" 
d="M260 370l-228 346h102l179 -279h4l181 279h101l-228 -346l242 -370h-100l-196 299h-4l-195 -299h-100z" />
    <glyph glyph-name="Psi" unicode="&#x3a8;" horiz-adv-x="747" 
d="M331 156q-74 0 -135 35t-96.5 100.5t-35.5 153.5v271h85v-275q0 -92 47.5 -148t134.5 -56v479h85v-479q87 0 134.5 56t47.5 148v275h85v-271q0 -88 -35.5 -153.5t-96.5 -100.5t-135 -35v-156h-85v156z" />
    <glyph glyph-name="uni03A9" unicode="&#x3a9;" horiz-adv-x="802" 
d="M67 81h165v4q-85 44 -133 122t-48 176q0 92 46 172.5t126 128.5t178 48t178.5 -48t126 -128t45.5 -173q0 -98 -48 -176t-133 -122v-4h166v-81h-276v120q58 14 105 51t73.5 92t26.5 120q0 75 -35.5 136t-96 96.5t-132.5 35.5t-132.5 -35.5t-96 -96.5t-35.5 -136
q0 -65 26.5 -120t73.5 -92t105 -51v-120h-275v81z" />
    <glyph glyph-name="Iotadieresis" unicode="&#x3aa;" horiz-adv-x="244" 
d="M14 820q-15 15 -15 34q0 21 15 35.5t34 14.5q22 0 36 -14t14 -36q0 -20 -14.5 -34.5t-35.5 -14.5q-19 0 -34 15zM162 820q-15 15 -15 34q0 21 14.5 35.5t34.5 14.5q21 0 35 -14t14 -36q0 -20 -14 -34.5t-35 -14.5q-19 0 -34 15zM80 716h84v-716h-84v716z" />
    <glyph glyph-name="Upsilondieresis" unicode="&#x3ab;" horiz-adv-x="595" 
d="M257 331l-242 385h99l183 -300h4l180 300h99l-238 -385v-331h-85v331zM179 805.5q-16 16.5 -16 37.5q0 23 16 38.5t38 15.5q23 0 38 -15.5t15 -38.5q0 -22 -15 -38t-38 -16q-22 0 -38 16.5zM343.5 805.5q-16.5 16.5 -16.5 37.5q0 23 16 38.5t38 15.5q23 0 38.5 -15.5
t15.5 -38.5q0 -22 -15.5 -38t-38.5 -16q-21 0 -37.5 16.5z" />
    <glyph glyph-name="alphatonos" unicode="&#x3ac;" horiz-adv-x="599" 
d="M155.5 19q-55.5 35 -87.5 96.5t-32 139.5q0 77 32 139t87.5 97t123.5 35q59 0 105 -26.5t70 -65.5h4v76h81v-510h-81v75h-4q-24 -38 -70 -64.5t-105 -26.5q-68 0 -123.5 35zM372.5 85q38.5 24 62 68t23.5 102t-23.5 102t-62 68t-83.5 24q-44 0 -83 -24t-62.5 -68.5
t-23.5 -101.5t23.5 -101.5t62.5 -68.5t83 -24q45 0 83.5 24zM304 736h93l-70 -127h-74z" />
    <glyph glyph-name="epsilontonos" unicode="&#x3ad;" horiz-adv-x="500" 
d="M100.5 26.5q-57.5 42.5 -57.5 113.5q0 41 23.5 72.5t64.5 48.5v4q-32 14 -51 42.5t-19 69.5q0 42 25 76t68.5 53.5t95.5 19.5q57 0 102 -19t83 -60l-57 -55q-29 31 -59.5 44t-68.5 13q-48 0 -76 -23t-28 -54q0 -37 26 -58t64 -21h75v-68h-81q-46 0 -73 -24t-27 -57
q0 -37 33 -60t89 -23q42 0 76.5 17.5t68.5 52.5l57 -56q-38 -43 -91 -67t-111 -24q-94 0 -151.5 42.5zM265 736h93l-70 -127h-74z" />
    <glyph glyph-name="etatonos" unicode="&#x3ae;" horiz-adv-x="561" 
d="M417 313q0 70 -34 103t-93 33q-41 0 -73.5 -23t-50.5 -60.5t-18 -78.5v-287h-85v510h81v-75h4q21 38 67 64.5t98 26.5q91 0 140 -54t49 -146v-542h-85v529zM307 736h93l-70 -127h-74z" />
    <glyph glyph-name="iotatonos" unicode="&#x3af;" horiz-adv-x="226" 
d="M71 510h84v-510h-84v510zM127 736h93l-70 -127h-74z" />
    <glyph glyph-name="upsilondieresistonos" unicode="&#x3b0;" horiz-adv-x="560" 
d="M167.5 14q-50.5 30 -79.5 82.5t-29 116.5v297h85v-280q0 -81 39 -125t102 -44q40 0 75.5 21t57 62t21.5 97q0 61 -24.5 131t-68.5 138h95q36 -59 59.5 -129t23.5 -140q0 -84 -34.5 -142t-90 -86.5t-120.5 -28.5q-61 0 -111.5 30zM241 752h60v-144h-60v144zM123 644
q-15 15 -15 35q0 21 14.5 35t34.5 14q21 0 35 -14t14 -35q0 -20 -14 -35t-35 -15q-19 0 -34 15zM351.5 644.5q-15.5 15.5 -15.5 34.5q0 21 15 35t35 14q21 0 35 -14t14 -35q0 -20 -14 -35t-35 -15q-19 0 -34.5 15.5z" />
    <glyph glyph-name="alpha" unicode="&#x3b1;" horiz-adv-x="599" 
d="M155.5 19q-55.5 35 -87.5 96.5t-32 139.5q0 77 32 139t87.5 97t123.5 35q59 0 105 -26.5t70 -65.5h4v76h81v-510h-81v75h-4q-24 -38 -70 -64.5t-105 -26.5q-68 0 -123.5 35zM372.5 85q38.5 24 62 68t23.5 102t-23.5 102t-62 68t-83.5 24q-44 0 -83 -24t-62.5 -68.5
t-23.5 -101.5t23.5 -101.5t62.5 -68.5t83 -24q45 0 83.5 24z" />
    <glyph glyph-name="beta" unicode="&#x3b2;" horiz-adv-x="571" 
d="M79 516q0 62 25 111t73 77t114 28q60 0 107.5 -25t74 -68.5t26.5 -98.5q0 -106 -89 -151v-4q52 -21 86.5 -67.5t34.5 -111.5q0 -63 -30 -113.5t-81.5 -79.5t-115.5 -29q-44 0 -80.5 19t-58.5 53h-4l4 -71v-201h-86v732zM373 84q33 19 52.5 51t19.5 70q0 37 -20.5 69
t-55 51t-73.5 19h-43v78h31q60 0 94.5 32.5t34.5 85.5q0 49 -35.5 80t-86.5 31q-59 0 -92.5 -36.5t-33.5 -98.5v-307q0 -65 35.5 -104.5t100.5 -39.5q39 0 72 19z" />
    <glyph glyph-name="gamma" unicode="&#x3b3;" horiz-adv-x="548" 
d="M231 8l-223 502h92l173 -414h2l175 414h90l-225 -502v-224h-84v224z" />
    <glyph glyph-name="delta" unicode="&#x3b4;" horiz-adv-x="596" 
d="M163 20q-60 36 -93.5 98t-33.5 137q0 104 59 175t162 89h5l-179 132v65h416v-77h-267l215 -157q53 -39 83 -96t30 -131q0 -75 -33.5 -137t-93.5 -98t-135 -36t-135 36zM385.5 84.5q40.5 23.5 65 67.5t24.5 103t-24.5 103t-65 67.5t-87.5 23.5t-88 -23.5t-65.5 -67.5
t-24.5 -103t24.5 -103t65.5 -67.5t88 -23.5t87.5 23.5z" />
    <glyph glyph-name="epsilon" unicode="&#x3b5;" horiz-adv-x="500" 
d="M100.5 26.5q-57.5 42.5 -57.5 113.5q0 41 23.5 72.5t64.5 48.5v4q-32 14 -51 42.5t-19 69.5q0 42 25 76t68.5 53.5t95.5 19.5q57 0 102 -19t83 -60l-57 -55q-29 31 -59.5 44t-68.5 13q-48 0 -76 -23t-28 -54q0 -37 26 -58t64 -21h75v-68h-81q-46 0 -73 -24t-27 -57
q0 -37 33 -60t89 -23q42 0 76.5 17.5t68.5 52.5l57 -56q-38 -43 -91 -67t-111 -24q-94 0 -151.5 42.5z" />
    <glyph glyph-name="zeta" unicode="&#x3b6;" horiz-adv-x="495" 
d="M328 -91q26 0 40.5 13t14.5 33t-14 32.5t-42 12.5h-136q-75 0 -117 40t-42 102q0 76 68 125q54 37 127.5 90.5t103.5 75.5h-281v77h403v-75l-306 -229q-16 -13 -24.5 -27.5t-8.5 -34.5q0 -29 21.5 -48t56.5 -19h127q68 0 106 -33t38 -89q0 -54 -38 -88.5t-97 -34.5v77z
" />
    <glyph glyph-name="eta" unicode="&#x3b7;" horiz-adv-x="561" 
d="M417 313q0 70 -34 103t-93 33q-41 0 -73.5 -23t-50.5 -60.5t-18 -78.5v-287h-85v510h81v-75h4q21 38 67 64.5t98 26.5q91 0 140 -54t49 -146v-542h-85v529z" />
    <glyph glyph-name="theta" unicode="&#x3b8;" horiz-adv-x="665" 
d="M180.5 31.5q-62.5 47.5 -96 129t-33.5 181.5t33.5 181.5t95.5 129t144 47.5t144 -47.5t96 -129t34 -181.5t-34 -181.5t-96.5 -129t-143.5 -47.5t-143.5 47.5zM509 393q-11 101 -60 163.5t-125 62.5q-75 0 -124 -62.5t-60 -163.5h369zM420.5 99q41.5 34 64.5 93.5
t26 134.5h-373q3 -75 26 -134.5t64.5 -93.5t95.5 -34q55 0 96.5 34z" />
    <glyph glyph-name="iota" unicode="&#x3b9;" horiz-adv-x="226" 
d="M71 510h84v-510h-84v510z" />
    <glyph glyph-name="kappa" unicode="&#x3ba;" horiz-adv-x="488" 
d="M63 510h85v-231h4l215 231h107v-4l-230 -238l240 -264v-4h-104l-228 257h-4v-257h-85v510z" />
    <glyph glyph-name="lambda" unicode="&#x3bb;" horiz-adv-x="500" 
d="M211 458l-114 248h87l308 -706h-92l-147 359h-2l-151 -359h-92z" />
    <glyph glyph-name="uni03BC" unicode="&#x3bc;" horiz-adv-x="561" 
d="M59 510h85v-305q0 -74 33.5 -109t88.5 -35q43 0 76.5 23t52 60.5t18.5 78.5v287h85v-510h-81v74h-4q-23 -39 -66.5 -64.5t-98.5 -25.5q-30 0 -57.5 12.5t-46.5 32.5h-4l4 -60v-185h-85v726z" />
    <glyph glyph-name="nu" unicode="&#x3bd;" horiz-adv-x="514" 
d="M7 510h91l158 -410h2l160 410h89l-208 -510h-86z" />
    <glyph glyph-name="xi" unicode="&#x3be;" horiz-adv-x="528" 
d="M361 -91q26 0 40.5 13t14.5 33t-14 32.5t-42 12.5h-87q-116 0 -178.5 56t-62.5 152q0 64 34 106t88 63v4q-44 22 -71 58t-27 94q0 57 27.5 102.5t77 71t112.5 25.5q62 0 112.5 -25t93.5 -74l-58 -57q-33 40 -67.5 57.5t-80.5 17.5q-57 0 -94 -33t-37 -84q0 -55 37.5 -87
t97.5 -32h97v-79h-108q-64 0 -106 -36.5t-42 -92.5q0 -59 41 -92.5t113 -33.5h80q67 0 105.5 -34t38.5 -90t-38 -90.5t-97 -34.5v77z" />
    <glyph glyph-name="omicron" unicode="&#x3bf;" horiz-adv-x="596" 
d="M163 20q-60 36 -93.5 98t-33.5 137t33.5 137t93.5 98t135 36t135 -36t93.5 -98t33.5 -137t-33.5 -137t-93.5 -98t-135 -36t-135 36zM385.5 84.5q40.5 23.5 65 67.5t24.5 103t-24.5 103t-65 67.5t-87.5 23.5t-88 -23.5t-65.5 -67.5t-24.5 -103t24.5 -103t65.5 -67.5
t88 -23.5t87.5 23.5z" />
    <glyph glyph-name="pi" unicode="&#x3c0;" horiz-adv-x="705" 
d="M503.5 32q-40.5 40 -40.5 112v289h-235v-433h-84v433h-121v77h645v-77h-121v-283q0 -40 17 -60.5t46 -20.5t54 14v-83q-27 -8 -54 -8q-66 0 -106.5 40z" />
    <glyph glyph-name="rho" unicode="&#x3c1;" horiz-adv-x="600" 
d="M62 257q0 77 32 138.5t89 96t129 34.5q73 0 130.5 -35t89.5 -96.5t32 -139.5t-32 -139.5t-87.5 -96.5t-123.5 -35q-58 0 -104.5 26.5t-70.5 64.5h-4l4 -68v-224h-84v474zM394.5 85q38.5 24 62 68t23.5 102q0 57 -23.5 101t-62.5 68t-83 24q-45 0 -83.5 -23.5t-62 -67.5
t-23.5 -102t23.5 -102t62 -68t83.5 -24t83.5 24z" />
    <glyph glyph-name="sigma1" unicode="&#x3c2;" horiz-adv-x="543" 
d="M370 -107q27 0 42 13t15 33t-14 32.5t-41 12.5h-53q-91 0 -155 36t-96 97.5t-32 137.5q0 77 33 139t91.5 97t132.5 35q84 0 140.5 -38.5t80.5 -102.5l-77 -32q-19 47 -56.5 71.5t-90.5 24.5q-45 0 -84 -24.5t-62.5 -68.5t-23.5 -101q0 -55 24 -99t68 -69.5t104 -25.5h48
q68 0 106 -33t38 -89q0 -55 -38.5 -89t-99.5 -34v77z" />
    <glyph glyph-name="sigma" unicode="&#x3c3;" horiz-adv-x="612" 
d="M157 18q-58 34 -89.5 94t-31.5 135t31.5 135t89.5 94t133 34h305v-77h-60l-70 4v-4q79 -77 79 -186q0 -75 -31.5 -135t-89.5 -94t-133 -34t-133 34zM374.5 82.5q38.5 21.5 61.5 64t23 100.5t-23 100.5t-61.5 64t-84.5 21.5t-84.5 -22t-62 -64t-23.5 -100t23.5 -100
t62 -64t84.5 -22t84.5 21.5z" />
    <glyph glyph-name="tau" unicode="&#x3c4;" horiz-adv-x="472" 
d="M194 433h-166v77h417v-77h-167v-433h-84v433z" />
    <glyph glyph-name="upsilon" unicode="&#x3c5;" horiz-adv-x="560" 
d="M167.5 14q-50.5 30 -79.5 82.5t-29 116.5v297h85v-280q0 -81 39 -125t102 -44q40 0 75.5 21t57 62t21.5 97q0 61 -24.5 131t-68.5 138h95q36 -59 59.5 -129t23.5 -140q0 -84 -34.5 -142t-90 -86.5t-120.5 -28.5q-61 0 -111.5 30z" />
    <glyph glyph-name="phi" unicode="&#x3c6;" horiz-adv-x="740" 
d="M653.5 130q-35.5 -60 -99 -98t-144.5 -46v-202h-84v202q-78 8 -140.5 45.5t-98.5 97.5t-36 134q0 168 180 263l37 -75q-55 -27 -92.5 -73.5t-37.5 -114.5q0 -86 53 -137.5t135 -61.5v314q0 71 39 109.5t101 38.5t113 -35t80.5 -95.5t29.5 -132.5q0 -73 -35.5 -133z
M548 126q54 51 54 137q0 52 -17.5 93.5t-47.5 65t-65 23.5q-29 0 -45.5 -19t-16.5 -51v-311q84 11 138 62z" />
    <glyph glyph-name="chi" unicode="&#x3c7;" horiz-adv-x="487" 
d="M193 259l-177 251h96l132 -189l127 189h99l-178 -251l182 -259h-99l-133 196l-130 -196h-99z" />
    <glyph glyph-name="psi" unicode="&#x3c8;" horiz-adv-x="706" 
d="M319 -16h-3q-76 0 -134.5 32.5t-90.5 90t-32 130.5v273h85v-272q0 -57 23 -97t62 -60t86 -20h4v449h84v-449h2q50 0 91 21.5t65.5 63t24.5 97.5q0 131 -78 267h92q32 -58 51.5 -128t19.5 -139q0 -83 -38.5 -141.5t-99.5 -88t-128 -29.5h-2v-200h-84v200z" />
    <glyph glyph-name="omega" unicode="&#x3c9;" horiz-adv-x="802" 
d="M142.5 13.5q-48.5 29.5 -77.5 87.5t-29 141q0 135 76 268h95q-87 -141 -87 -268q0 -84 34 -132.5t94 -48.5q50 0 81 44.5t31 125.5v154h81v-154q0 -81 31.5 -125.5t81.5 -44.5q60 0 93.5 48.5t33.5 132.5q0 128 -86 268h95q76 -137 76 -268q0 -83 -29 -141t-77.5 -87.5
t-106.5 -29.5q-49 0 -88.5 26t-63.5 74q-25 -49 -64 -74.5t-88 -25.5q-58 0 -106.5 29.5z" />
    <glyph glyph-name="iotadieresis" unicode="&#x3ca;" horiz-adv-x="226" 
d="M9 641q-16 16 -16 38q0 23 16 38t38 15q23 0 38 -15t15 -38q0 -22 -15 -38t-38 -16q-22 0 -38 16zM142 641q-16 16 -16 38q0 23 16 38t38 15q23 0 38 -15t15 -38q0 -22 -15 -38t-38 -16q-22 0 -38 16zM71 510h84v-510h-84v510z" />
    <glyph glyph-name="upsilondieresis" unicode="&#x3cb;" horiz-adv-x="560" 
d="M167.5 14q-50.5 30 -79.5 82.5t-29 116.5v297h85v-280q0 -81 39 -125t102 -44q40 0 75.5 21t57 62t21.5 97q0 61 -24.5 131t-68.5 138h95q36 -59 59.5 -129t23.5 -140q0 -84 -34.5 -142t-90 -86.5t-120.5 -28.5q-61 0 -111.5 30zM151 641q-16 16 -16 38q0 23 16 38t38 15
q23 0 38 -15t15 -38q0 -22 -15 -38t-38 -16q-22 0 -38 16zM315.5 641q-16.5 16 -16.5 38q0 23 16 38t38 15q23 0 38.5 -15t15.5 -38q0 -22 -15.5 -38t-38.5 -16q-21 0 -37.5 16z" />
    <glyph glyph-name="omicrontonos" unicode="&#x3cc;" horiz-adv-x="596" 
d="M163 20q-60 36 -93.5 98t-33.5 137t33.5 137t93.5 98t135 36t135 -36t93.5 -98t33.5 -137t-33.5 -137t-93.5 -98t-135 -36t-135 36zM385.5 84.5q40.5 23.5 65 67.5t24.5 103t-24.5 103t-65 67.5t-87.5 23.5t-88 -23.5t-65.5 -67.5t-24.5 -103t24.5 -103t65.5 -67.5
t88 -23.5t87.5 23.5zM312 736h93l-70 -127h-74z" />
    <glyph glyph-name="upsilontonos" unicode="&#x3cd;" horiz-adv-x="560" 
d="M167.5 14q-50.5 30 -79.5 82.5t-29 116.5v297h85v-280q0 -81 39 -125t102 -44q40 0 75.5 21t57 62t21.5 97q0 61 -24.5 131t-68.5 138h95q36 -59 59.5 -129t23.5 -140q0 -84 -34.5 -142t-90 -86.5t-120.5 -28.5q-61 0 -111.5 30zM285 736h93l-70 -127h-74z" />
    <glyph glyph-name="omegatonos" unicode="&#x3ce;" horiz-adv-x="802" 
d="M142.5 13.5q-48.5 29.5 -77.5 87.5t-29 141q0 135 76 268h95q-87 -141 -87 -268q0 -84 34 -132.5t94 -48.5q50 0 81 44.5t31 125.5v154h81v-154q0 -81 31.5 -125.5t81.5 -44.5q60 0 93.5 48.5t33.5 132.5q0 128 -86 268h95q76 -137 76 -268q0 -83 -29 -141t-77.5 -87.5
t-106.5 -29.5q-49 0 -88.5 26t-63.5 74q-25 -49 -64 -74.5t-88 -25.5q-58 0 -106.5 29.5zM415 736h93l-70 -127h-74z" />
    <glyph glyph-name="theta1" unicode="&#x3d1;" horiz-adv-x="634" 
d="M167.5 13.5q-51.5 29.5 -80 81t-28.5 117.5v298h85v-281q0 -82 38 -125t104 -43t104.5 43.5t38.5 124.5v53q-61 12 -113 52.5t-82.5 99.5t-30.5 125q0 53 20.5 92.5t55.5 60t77 20.5q73 0 115 -48.5t42 -121.5v-204h91v-77h-91v-69q0 -66 -28 -117.5t-79.5 -81
t-119.5 -29.5q-67 0 -118.5 29.5zM429 568q0 36 -19 60.5t-54 24.5q-30 0 -50 -26t-20 -69q0 -67 40.5 -123t102.5 -74v207z" />
    <glyph glyph-name="Upsilon1" unicode="&#x3d2;" horiz-adv-x="603" 
d="M259 315l-130 264q-18 35 -32.5 49t-33.5 14t-42 -15v87q9 4 23.5 7t26.5 3q42 0 70.5 -22t58.5 -86l99 -216h4l100 216q30 64 58.5 86t70.5 22q12 0 26.5 -3t23.5 -7v-87q-22 15 -43 15q-19 0 -33 -14t-32 -49l-130 -264v-315h-85v315z" />
    <glyph glyph-name="uni03D3" unicode="&#x3d3;" horiz-adv-x="683" 
d="M-19 716h93l-71 -127h-74zM340 315l-130 264q-18 35 -32.5 49t-33.5 14t-42 -15v87q9 4 23.5 7t26.5 3q42 0 70.5 -22t58.5 -86l99 -216h4l100 216q30 64 58.5 86t70.5 22q12 0 26.5 -3t23.5 -7v-87q-22 15 -43 15q-19 0 -33 -14t-32 -49l-130 -264v-315h-85v315z" />
    <glyph glyph-name="uni03D4" unicode="&#x3d4;" horiz-adv-x="603" 
d="M259 315l-130 264q-18 35 -32.5 49t-33.5 14t-42 -15v87q9 4 23.5 7t26.5 3q42 0 70.5 -22t58.5 -86l99 -216h4l100 216q30 64 58.5 86t70.5 22q12 0 26.5 -3t23.5 -7v-87q-22 15 -43 15q-19 0 -33 -14t-32 -49l-130 -264v-315h-85v315zM182 805.5q-16 16.5 -16 37.5
q0 23 16 38.5t38 15.5q23 0 38 -15.5t15 -38.5q0 -22 -15 -38t-38 -16q-22 0 -38 16.5zM346.5 805.5q-16.5 16.5 -16.5 37.5q0 23 16 38.5t38 15.5q23 0 38.5 -15.5t15.5 -38.5q0 -22 -15.5 -38t-38.5 -16q-21 0 -37.5 16.5z" />
    <glyph glyph-name="omega1" unicode="&#x3d6;" horiz-adv-x="896" 
d="M189.5 13.5q-48.5 29.5 -77.5 87.5t-29 141q0 93 42 191h-79v77h804v-77h-79q42 -98 42 -191q0 -83 -29 -141t-77.5 -87.5t-106.5 -29.5q-49 0 -88 25.5t-64 74.5q-24 -48 -63.5 -74t-88.5 -26q-58 0 -106.5 29.5zM376.5 105.5q31.5 44.5 31.5 125.5v98h81v-98
q0 -82 31 -126t82 -44q59 0 93 48.5t34 132.5q0 86 -50 191h-462q-49 -103 -49 -191q0 -84 33.5 -132.5t93.5 -48.5q50 0 81.5 44.5z" />
    <glyph glyph-name="uni0400" unicode="&#x400;" horiz-adv-x="551" 
d="M80 716h414v-81h-330v-237h298v-80h-298v-237h330v-81h-414v716zM180 900h93l52 -127h-75z" />
    <glyph glyph-name="uni0401" unicode="&#x401;" horiz-adv-x="551" 
d="M80 716h414v-81h-330v-237h298v-80h-298v-237h330v-81h-414v716zM167 805.5q-16 16.5 -16 37.5q0 23 16 38.5t38 15.5q23 0 38 -15.5t15 -38.5q0 -22 -15 -38t-38 -16q-22 0 -38 16.5zM331.5 805.5q-16.5 16.5 -16.5 37.5q0 23 16 38.5t38 15.5q23 0 38.5 -15.5
t15.5 -38.5q0 -22 -15.5 -38t-38.5 -16q-21 0 -37.5 16.5z" />
    <glyph glyph-name="uni0402" unicode="&#x402;" horiz-adv-x="751" 
d="M218 635h-192v81h471v-81h-195v-200l-4 -70h4q73 73 186 73q59 0 111.5 -27.5t84.5 -78.5t32 -117q0 -67 -28.5 -115t-77 -73.5t-105.5 -26.5h-25v81h25q58 0 91.5 38t33.5 96q0 40 -19.5 72.5t-55.5 51.5t-83 19q-55 0 -98 -22t-72 -61v-275h-84v635z" />
    <glyph glyph-name="uni0403" unicode="&#x403;" horiz-adv-x="504" 
d="M80 716h398v-81h-314v-635h-84v716zM294 900h93l-71 -127h-74z" />
    <glyph glyph-name="uni0404" unicode="&#x404;" horiz-adv-x="737" 
d="M695 112q-49 -59 -122 -93.5t-161 -34.5q-103 0 -187 49t-132 134.5t-48 190.5t48 190.5t132 134.5t187 49q81 0 147.5 -30.5t114.5 -86.5l-60 -59q-76 95 -202 95q-71 0 -132.5 -31t-101 -88.5t-48.5 -133.5h336v-80h-336q9 -76 48.5 -133.5t101 -88.5t132.5 -31
q68 0 124 28t99 78z" />
    <glyph glyph-name="uni0405" unicode="&#x405;" horiz-adv-x="561" 
d="M126 35q-70 51 -96 143l81 33q17 -64 63 -105t108 -41t105 33.5t43 91.5q0 50 -36.5 82.5t-119.5 60.5l-45 16q-76 27 -124 71t-48 122q0 51 28 94.5t78 69.5t112 26t108 -23t73.5 -56t38.5 -65l-80 -34q-10 37 -45.5 67t-93.5 30q-55 0 -94 -31t-39 -78q0 -42 33 -68.5
t100 -49.5l47 -16q91 -33 142 -82.5t51 -134.5q0 -69 -35.5 -116t-89.5 -69t-111 -22q-84 0 -154 51z" />
    <glyph glyph-name="uni0406" unicode="&#x406;" horiz-adv-x="244" 
d="M80 716h84v-716h-84v716z" />
    <glyph glyph-name="uni0407" unicode="&#x407;" horiz-adv-x="244" 
d="M13 822q-15 15 -15 34q0 21 14.5 35t34.5 14q21 0 35 -14t14 -35q0 -20 -14 -34.5t-35 -14.5q-19 0 -34 15zM163 822q-15 15 -15 34q0 20 15 34.5t34 14.5q22 0 36 -14t14 -35q0 -20 -14.5 -34.5t-35.5 -14.5q-19 0 -34 15zM80 716h84v-716h-84v716z" />
    <glyph glyph-name="uni0408" unicode="&#x408;" horiz-adv-x="530" 
d="M109 27.5q-59 43.5 -83 122.5l80 33q36 -118 141 -118q59 0 94.5 41t35.5 108v502h85v-495q0 -75 -27.5 -128.5t-76 -81t-111.5 -27.5q-79 0 -138 43.5z" />
    <glyph glyph-name="uni0409" unicode="&#x409;" horiz-adv-x="1071" 
d="M26 -5v83q13 -5 33 -5q39 0 64 25q20 22 27.5 70.5t7.5 147.5v400h475v-306h182q58 0 107.5 -25t79 -71.5t29.5 -107.5t-29.5 -108t-79 -72.5t-107.5 -25.5h-267v635h-305v-355q0 -100 -15.5 -157t-47.5 -89q-42 -42 -121 -42q-18 0 -33 3zM819 81q37 0 66 17.5t44.5 46
t15.5 60.5t-15.5 61t-44 46.5t-66.5 17.5h-186v-249h186z" />
    <glyph glyph-name="uni040A" unicode="&#x40a;" horiz-adv-x="1016" 
d="M80 716h84v-306h330v306h84v-306h182q58 0 108 -25t79.5 -71.5t29.5 -107.5t-29.5 -108t-79.5 -72.5t-108 -25.5h-266v330h-330v-330h-84v716zM764 81q38 0 67 17.5t44.5 46t15.5 60.5t-15.5 61t-44.5 46.5t-67 17.5h-186v-249h186z" />
    <glyph glyph-name="uni040B" unicode="&#x40b;" horiz-adv-x="749" 
d="M218 635h-192v81h471v-81h-195v-200l-4 -70h4q68 73 177 73q58 0 106.5 -26t77 -74.5t28.5 -113.5v-224h-86v209q0 71 -37.5 110t-107.5 39q-50 0 -89.5 -21.5t-68.5 -61.5v-275h-84v635z" />
    <glyph glyph-name="uni040C" unicode="&#x40c;" horiz-adv-x="614" 
d="M80 716h84v-357h4l315 357h111v-4l-326 -362l340 -346v-4h-118l-322 337h-4v-337h-84v716zM321 900h93l-71 -127h-74z" />
    <glyph glyph-name="uni040D" unicode="&#x40d;" horiz-adv-x="700" 
d="M80 716h84v-432l-4 -138h4l352 570h104v-716h-85v459l4 138h-4l-367 -597h-88v716zM243 900h93l52 -127h-75z" />
    <glyph glyph-name="uni040E" unicode="&#x40e;" horiz-adv-x="601" 
d="M92 -3v85q34 -17 58 -17q31 0 48 12.5t34 47.5l25 55l-242 536h99l185 -437h4l184 437h99l-274 -604q-30 -65 -69.5 -96.5t-94.5 -31.5q-33 0 -56 13zM238.5 788.5q-29.5 16.5 -47.5 45t-18 62.5h69q0 -25 16 -42.5t43 -17.5q25 0 41 17.5t16 42.5h68q0 -34 -17.5 -62.5
t-46.5 -45t-61 -16.5q-33 0 -62.5 16.5z" />
    <glyph glyph-name="uni040F" unicode="&#x40f;" horiz-adv-x="674" 
d="M296 0h-216v716h84v-635h346v635h84v-716h-216v-152h-82v152z" />
    <glyph glyph-name="uni0410" unicode="&#x410;" horiz-adv-x="669" 
d="M286 716h96l272 -716h-93l-72 197h-309l-72 -197h-93zM460 277l-95 258l-29 77h-4l-28 -77l-95 -258h251z" />
    <glyph glyph-name="uni0411" unicode="&#x411;" horiz-adv-x="606" 
d="M80 716h413v-81h-329v-224h187q57 0 106.5 -25.5t79 -72.5t29.5 -107q0 -61 -29.5 -107.5t-79 -72.5t-106.5 -26h-271v716zM355 81q37 0 65.5 18t44 46.5t15.5 59.5t-15.5 60t-44 47t-65.5 18h-191v-249h191z" />
    <glyph glyph-name="uni0412" unicode="&#x412;" horiz-adv-x="606" 
d="M80 716h257q54 0 101.5 -25t75.5 -69t28 -99q0 -52 -26.5 -91t-71.5 -60v-4q54 -18 88 -62t34 -103q0 -58 -29.5 -104.5t-79 -72.5t-106.5 -26h-271v716zM337 406q36 0 63.5 17t42.5 43.5t15 54.5q0 27 -14.5 53.5t-41 43.5t-61.5 17h-177v-229h173zM356 81q36 0 64.5 18
t44 46.5t15.5 58.5t-16 58.5t-45 46t-67 17.5h-188v-245h192z" />
    <glyph glyph-name="uni0413" unicode="&#x413;" horiz-adv-x="504" 
d="M80 716h398v-81h-314v-635h-84v716z" />
    <glyph glyph-name="uni0414" unicode="&#x414;" horiz-adv-x="780" 
d="M734 -152h-81v152h-526v-152h-81v233h65q49 49 73 159t24 239v237h450v-635h76v-233zM573 81v554h-282v-168q0 -122 -21.5 -221.5t-62.5 -164.5h366z" />
    <glyph glyph-name="uni0415" unicode="&#x415;" horiz-adv-x="551" 
d="M80 716h414v-81h-330v-237h298v-80h-298v-237h330v-81h-414v716z" />
    <glyph glyph-name="uni0416" unicode="&#x416;" horiz-adv-x="893" 
d="M6 4l306 346l-296 362v4h103l281 -350h4v350h85v-350h4l281 350h103v-4l-295 -362l306 -346v-4h-110l-285 330h-4v-330h-85v330h-4l-285 -330h-109v4z" />
    <glyph glyph-name="uni0417" unicode="&#x417;" horiz-adv-x="550" 
d="M180.5 2.5q-46.5 18.5 -84 59t-54.5 102.5l78 32q16 -60 57.5 -95.5t95.5 -35.5q40 0 74 18t54.5 49t20.5 70q0 37 -21 67.5t-56 48t-76 17.5h-61v80h55q58 0 96.5 33t38.5 87q0 51 -38 83.5t-93 32.5q-50 0 -84 -31t-46 -70l-79 33q19 57 72.5 103t136.5 46
q62 0 111.5 -25.5t77.5 -70.5t28 -100q0 -59 -27.5 -97t-70.5 -58v-4q54 -22 88 -66.5t34 -108.5q0 -63 -31 -112.5t-85 -77.5t-119 -28q-46 0 -92.5 18.5z" />
    <glyph glyph-name="uni0418" unicode="&#x418;" horiz-adv-x="700" 
d="M80 716h84v-432l-4 -138h4l352 570h104v-716h-85v459l4 138h-4l-367 -597h-88v716z" />
    <glyph glyph-name="uni0419" unicode="&#x419;" horiz-adv-x="700" 
d="M80 716h84v-432l-4 -138h4l352 570h104v-716h-85v459l4 138h-4l-367 -597h-88v716zM288.5 788.5q-29.5 16.5 -47.5 45t-18 62.5h69q0 -25 16 -42.5t43 -17.5q25 0 41 17.5t16 42.5h68q0 -34 -17.5 -62.5t-46.5 -45t-61 -16.5q-33 0 -62.5 16.5z" />
    <glyph glyph-name="uni041A" unicode="&#x41a;" horiz-adv-x="614" 
d="M80 716h84v-357h4l315 357h111v-4l-326 -362l340 -346v-4h-118l-322 337h-4v-337h-84v716z" />
    <glyph glyph-name="uni041B" unicode="&#x41b;" horiz-adv-x="712" 
d="M26 -5v83q13 -5 33 -5q39 0 64 25q20 22 27.5 70.5t7.5 147.5v400h475v-716h-85v635h-305v-355q0 -100 -15.5 -157t-47.5 -89q-42 -42 -121 -42q-18 0 -33 3z" />
    <glyph glyph-name="uni041C" unicode="&#x41c;" horiz-adv-x="866" 
d="M80 716h123l228 -587h4l228 587h123v-716h-84v455l4 136h-4l-234 -591h-70l-234 591h-4l4 -136v-455h-84v716z" />
    <glyph glyph-name="uni041D" unicode="&#x41d;" horiz-adv-x="698" 
d="M80 716h84v-310h370v310h84v-716h-84v326h-370v-326h-84v716z" />
    <glyph glyph-name="uni041E" unicode="&#x41e;" horiz-adv-x="825" 
d="M225 34q-84 50 -132 135.5t-48 188.5q0 102 48 188t132 136t187 50t187 -50t132.5 -136t48.5 -188q0 -103 -48 -188.5t-132.5 -135.5t-187.5 -50t-187 50zM553.5 102.5q64.5 37.5 102 104t37.5 151.5t-37.5 151.5t-102 104t-141.5 37.5t-141 -37.5t-102 -104.5t-38 -151
t38 -151t102 -104.5t141 -37.5t141.5 37.5z" />
    <glyph glyph-name="uni041F" unicode="&#x41f;" horiz-adv-x="674" 
d="M80 716h514v-716h-84v635h-346v-635h-84v716z" />
    <glyph glyph-name="uni0420" unicode="&#x420;" horiz-adv-x="576" 
d="M80 716h241q60 0 111 -27t81.5 -75.5t30.5 -109.5t-30.5 -109.5t-81.5 -75.5t-111 -27h-157v-292h-84v716zM323 373q40 0 70.5 19t47.5 49t17 63t-17 63t-47.5 49t-70.5 19h-159v-262h159z" />
    <glyph glyph-name="uni0421" unicode="&#x421;" horiz-adv-x="741" 
d="M227 33q-85 49 -133.5 134.5t-48.5 190.5t48.5 190.5t133.5 134.5t189 49q80 0 146.5 -30.5t115.5 -86.5l-61 -59q-41 49 -89.5 72t-111.5 23q-78 0 -143 -36.5t-103.5 -103t-38.5 -153.5t38.5 -153.5t103.5 -103t143 -36.5q130 0 221 107l62 -60q-50 -59 -123 -93.5
t-160 -34.5q-104 0 -189 49z" />
    <glyph glyph-name="uni0422" unicode="&#x422;" horiz-adv-x="539" 
d="M227 635h-201v81h486v-81h-200v-635h-85v635z" />
    <glyph glyph-name="uni0423" unicode="&#x423;" horiz-adv-x="601" 
d="M92 -3v85q34 -17 58 -17q31 0 48 12.5t34 47.5l25 55l-242 536h99l185 -437h4l184 437h99l-274 -604q-30 -65 -69.5 -96.5t-94.5 -31.5q-33 0 -56 13z" />
    <glyph glyph-name="uni0424" unicode="&#x424;" horiz-adv-x="814" 
d="M729 211.5q-40 -65.5 -112.5 -105.5t-166.5 -48v-106h-85v106q-93 7 -166 47.5t-113.5 106t-40.5 146.5t40.5 146.5t113.5 106t166 47.5v106h85v-106q94 -8 166.5 -48t112.5 -105.5t40 -146.5t-40 -146.5zM194.5 207.5q63.5 -59.5 170.5 -70.5v442q-107 -11 -170.5 -70.5
t-63.5 -150.5t63.5 -150.5zM620 207.5q63 59.5 63 150.5t-63 150.5t-170 70.5v-442q107 11 170 70.5z" />
    <glyph glyph-name="uni0425" unicode="&#x425;" horiz-adv-x="631" 
d="M260 370l-228 346h102l179 -279h4l181 279h101l-228 -346l242 -370h-100l-196 299h-4l-195 -299h-100z" />
    <glyph glyph-name="uni0426" unicode="&#x426;" horiz-adv-x="696" 
d="M565 0h-485v716h84v-635h322v635h84v-635h80v-249h-85v168z" />
    <glyph glyph-name="uni0427" unicode="&#x427;" horiz-adv-x="597" 
d="M453 328q-35 -33 -77 -50.5t-101 -17.5q-63 0 -115 25.5t-82.5 74t-30.5 114.5v242h87v-227q0 -71 42.5 -110t114.5 -39q51 0 92.5 22.5t69.5 61.5v292h85v-716h-85v328z" />
    <glyph glyph-name="uni0428" unicode="&#x428;" horiz-adv-x="908" 
d="M80 716h84v-635h248v635h84v-635h248v635h84v-716h-748v716z" />
    <glyph glyph-name="uni0429" unicode="&#x429;" horiz-adv-x="954" 
d="M823 0h-743v716h84v-635h248v635h84v-635h248v635h84v-635h80v-249h-85v168z" />
    <glyph glyph-name="uni042A" unicode="&#x42a;" horiz-adv-x="747" 
d="M214 635h-188v81h273v-265h172q63 0 117.5 -28t87 -79.5t32.5 -117.5q0 -67 -32.5 -118.5t-87 -79.5t-117.5 -28h-257v635zM477 81q43 0 76 20.5t50.5 54t17.5 69.5t-17.5 69.5t-50.5 54.5t-76 21h-178v-289h178z" />
    <glyph glyph-name="uni042B" unicode="&#x42b;" horiz-adv-x="819" 
d="M80 716h84v-265h173q63 0 117 -28t86.5 -79.5t32.5 -117.5q0 -67 -32.5 -118.5t-86.5 -79.5t-117 -28h-257v716zM655 716h84v-716h-84v716zM342 81q43 0 76 20.5t51 54t18 69.5t-18 69.5t-51 54.5t-76 21h-178v-289h178z" />
    <glyph glyph-name="uni042C" unicode="&#x42c;" horiz-adv-x="613" 
d="M80 716h84v-265h173q63 0 117 -28t86.5 -79.5t32.5 -117.5q0 -67 -32.5 -118.5t-86.5 -79.5t-117 -28h-257v716zM342 81q43 0 76 20.5t51 54t18 69.5t-18 69.5t-51 54.5t-76 21h-178v-289h178z" />
    <glyph glyph-name="uni042D" unicode="&#x42d;" horiz-adv-x="737" 
d="M512 683q84 -49 132 -134.5t48 -190.5t-48 -190.5t-132 -134.5t-187 -49q-88 0 -161 34.5t-122 93.5l61 59q90 -106 222 -106q71 0 132.5 31t101 88.5t48.5 133.5h-336v80h336q-9 76 -48.5 133.5t-101 88.5t-132.5 31q-125 0 -202 -95l-60 59q49 57 115.5 87t146.5 30
q103 0 187 -49z" />
    <glyph glyph-name="uni042E" unicode="&#x42e;" horiz-adv-x="1084" 
d="M859 682q84 -50 132 -136t48 -188q0 -103 -48 -188.5t-132 -135.5t-187 -50q-98 0 -179 45t-130.5 123t-56.5 174h-142v-326h-84v716h84v-310h144q11 91 61 165.5t129 117.5t174 43q103 0 187 -50zM813.5 102.5q64.5 37.5 102 104t37.5 151.5t-37.5 151.5t-102 104
t-141.5 37.5t-141 -37.5t-102 -104.5t-38 -151t38 -151t102 -104.5t141 -37.5t141.5 37.5z" />
    <glyph glyph-name="uni042F" unicode="&#x42f;" horiz-adv-x="581" 
d="M9 4l202 293l-2 3q-48 10 -87.5 39t-62 72t-22.5 93q0 61 30.5 109.5t81.5 75.5t110 27h242v-716h-84v292h-113l-195 -292h-100v4zM417 371v264h-159q-40 0 -70.5 -19t-47.5 -49t-17 -63q0 -38 19.5 -68.5t52 -47.5t70.5 -17h152z" />
    <glyph glyph-name="uni0430" unicode="&#x430;" horiz-adv-x="531" 
d="M126 6q-44 22 -68 60.5t-24 87.5q0 81 61 126.5t154 45.5q46 0 85.5 -10t60.5 -23v31q0 57 -40 91.5t-101 34.5q-43 0 -79 -18.5t-57 -51.5l-64 48q30 46 82.5 72t116.5 26q104 0 163.5 -54.5t59.5 -148.5v-323h-81v73h-4q-22 -37 -66 -63t-99 -26q-56 0 -100 22zM314 81
q37 22 59 59t22 81q-24 16 -59 26t-74 10q-70 0 -105.5 -29t-35.5 -75q0 -42 32 -68t81 -26q43 0 80 22z" />
    <glyph glyph-name="uni0431" unicode="&#x431;" horiz-adv-x="618" 
d="M189 19.5q-59 35.5 -93.5 109t-34.5 183.5q0 120 24.5 192t67.5 116q38 37 90.5 57.5t115.5 20.5q38 0 57.5 3.5t28 10.5t13.5 21h84q-14 -65 -54.5 -88.5t-123.5 -23.5q-58 0 -92 -13.5t-59 -38.5q-54 -54 -65 -144h4q28 43 75.5 72t115.5 29q69 0 124 -36t86 -98
t31 -137q0 -76 -33.5 -138t-93 -97.5t-134.5 -35.5t-134 35.5zM410.5 84.5q40.5 23.5 65 67.5t24.5 103t-24.5 103t-65 67.5t-87.5 23.5t-87 -23.5t-64 -67.5t-24 -103q0 -58 24 -102t64 -68t87 -24t87.5 23.5z" />
    <glyph glyph-name="uni0432" unicode="&#x432;" horiz-adv-x="509" 
d="M63 510h245q42 0 77 -17.5t55 -48.5t20 -68q0 -38 -17.5 -67.5t-46.5 -44.5v-4q37 -15 59.5 -44t22.5 -68q0 -43 -21 -76.5t-57 -52.5t-78 -19h-259v510zM304 295q31 0 51.5 19.5t20.5 49.5t-21 49.5t-52 19.5h-155v-138h156zM315 77q32 0 54.5 21.5t22.5 53.5
q0 31 -22.5 52.5t-54.5 21.5h-167v-149h167z" />
    <glyph glyph-name="uni0433" unicode="&#x433;" horiz-adv-x="431" 
d="M63 510h340v-77h-255v-433h-85v510z" />
    <glyph glyph-name="uni0434" unicode="&#x434;" horiz-adv-x="652" 
d="M32 77h53q24 25 40.5 92.5t16.5 143.5v197h402v-433h76v-229h-81v152h-426v-152h-81v229zM460 77v356h-235v-127q0 -65 -13.5 -124.5t-37.5 -104.5h286z" />
    <glyph glyph-name="uni0435" unicode="&#x435;" horiz-adv-x="563" 
d="M159 19q-58 35 -90.5 96.5t-32.5 138.5q0 74 30.5 136t86.5 99t130 37q75 0 130 -33.5t84.5 -92.5t29.5 -135q0 -15 -3 -26h-403q3 -58 28 -98t63.5 -60t80.5 -20q98 0 151 92l72 -35q-33 -62 -89.5 -98t-136.5 -36q-73 0 -131 35zM437 309q-2 32 -18 64t-50.5 54
t-86.5 22q-60 0 -101.5 -38.5t-54.5 -101.5h311z" />
    <glyph glyph-name="uni0436" unicode="&#x436;" horiz-adv-x="738" 
d="M4 4l230 266l-219 236v4h106l202 -226h4v226h84v-226h4l203 226h106v-4l-220 -236l231 -266v-4h-106l-214 252h-4v-252h-84v252h-4l-213 -252h-106v4z" />
    <glyph glyph-name="uni0437" unicode="&#x437;" horiz-adv-x="501" 
d="M138 8q-53 24 -91 67l58 56q33 -35 67.5 -52.5t76.5 -17.5q57 0 90 23t33 60q0 33 -27.5 57t-73.5 24h-81v68h75q38 0 64.5 21t26.5 58q0 31 -28.5 54t-76.5 23q-38 0 -68 -13t-60 -44l-56 55q38 41 82.5 60t101.5 19q52 0 95.5 -19.5t68.5 -53.5t25 -76q0 -41 -19 -69.5
t-51 -42.5v-4q41 -17 64.5 -48.5t23.5 -72.5q0 -71 -57 -113.5t-152 -42.5q-58 0 -111 24z" />
    <glyph glyph-name="uni0438" unicode="&#x438;" horiz-adv-x="570" 
d="M63 510h85v-287l-4 -96h4l275 383h84v-510h-84v287l4 96h-4l-275 -383h-85v510z" />
    <glyph glyph-name="uni0439" unicode="&#x439;" horiz-adv-x="570" 
d="M63 510h85v-287l-4 -96h4l275 383h84v-510h-84v287l4 96h-4l-275 -383h-85v510zM223.5 623.5q-29.5 16.5 -47.5 45t-18 63.5h69q0 -25 16 -43t43 -18q25 0 41 18t16 43h68q0 -35 -17.5 -63.5t-46.5 -45t-61 -16.5q-33 0 -62.5 16.5z" />
    <glyph glyph-name="uni043A" unicode="&#x43a;" horiz-adv-x="488" 
d="M63 510h85v-231h4l215 231h107v-4l-230 -238l240 -264v-4h-104l-228 257h-4v-257h-85v510z" />
    <glyph glyph-name="uni043B" unicode="&#x43b;" horiz-adv-x="624" 
d="M48 0l1 76q16 -5 34 -5q23 0 35 15.5t16.5 51t4.5 99.5v273h421v-510h-84v433h-254v-223q0 -118 -35 -168t-93 -50q-26 0 -46 8z" />
    <glyph glyph-name="uni043C" unicode="&#x43c;" horiz-adv-x="690" 
d="M62 510h101l180 -343h3l180 343h102v-510h-85v281l4 96h-4l-168 -313h-60l-169 313h-4l4 -96v-281h-84v510z" />
    <glyph glyph-name="uni043D" unicode="&#x43d;" horiz-adv-x="573" 
d="M63 510h85v-214h278v214h84v-510h-84v217h-278v-217h-85v510z" />
    <glyph glyph-name="uni043E" unicode="&#x43e;" horiz-adv-x="596" 
d="M163 20q-60 36 -93.5 98t-33.5 137t33.5 137t93.5 98t135 36t135 -36t93.5 -98t33.5 -137t-33.5 -137t-93.5 -98t-135 -36t-135 36zM385.5 84.5q40.5 23.5 65 67.5t24.5 103t-24.5 103t-65 67.5t-87.5 23.5t-88 -23.5t-65.5 -67.5t-24.5 -103t24.5 -103t65.5 -67.5
t88 -23.5t87.5 23.5z" />
    <glyph glyph-name="uni043F" unicode="&#x43f;" horiz-adv-x="556" 
d="M63 510h430v-510h-85v433h-260v-433h-85v510z" />
    <glyph glyph-name="uni0440" unicode="&#x440;" horiz-adv-x="598" 
d="M59 510h81v-76h4q23 39 69.5 65.5t104.5 26.5q68 0 124 -35t88 -97t32 -139q0 -78 -32 -139.5t-88 -96.5t-124 -35q-58 0 -104.5 26.5t-69.5 64.5h-4l4 -70v-221h-85v726zM391 85q39 24 62.5 68.5t23.5 101.5t-23.5 101.5t-62.5 68.5t-83 24t-83 -24t-62 -68t-23 -102
t23 -102t62 -68t83 -24t83 24z" />
    <glyph glyph-name="uni0441" unicode="&#x441;" horiz-adv-x="546" 
d="M161 19.5q-59 35.5 -92 97t-33 138.5t33 139t92 97t133 35q83 0 139.5 -38.5t80.5 -102.5l-77 -32q-19 47 -56.5 71.5t-90.5 24.5q-45 0 -84 -24.5t-62.5 -68.5t-23.5 -101t23.5 -101t62.5 -68.5t84 -24.5q54 0 93 25t58 71l76 -32q-26 -63 -83.5 -102t-139.5 -39
q-74 0 -133 35.5z" />
    <glyph glyph-name="uni0442" unicode="&#x442;" horiz-adv-x="472" 
d="M194 433h-166v77h417v-77h-167v-433h-84v433z" />
    <glyph glyph-name="uni0443" unicode="&#x443;" horiz-adv-x="516" 
d="M219 32l-211 478h92l160 -379h2l154 379h92l-315 -726h-88z" />
    <glyph glyph-name="uni0444" unicode="&#x444;" horiz-adv-x="771" 
d="M688 118.5q-38 -58.5 -105.5 -92t-154.5 -40.5v-202h-85v202q-87 7 -154.5 40.5t-105.5 92t-38 136.5q0 77 38 135.5t105.5 92.5t154.5 41v192h85v-192q87 -7 154.5 -41t105.5 -92.5t38 -135.5q0 -78 -38 -136.5zM586.5 123.5q58.5 49.5 58.5 131.5q0 81 -58.5 131
t-158.5 59v-380q100 9 158.5 58.5zM184.5 124q58.5 -50 158.5 -59v380q-100 -9 -158.5 -59t-58.5 -131t58.5 -131z" />
    <glyph glyph-name="uni0445" unicode="&#x445;" horiz-adv-x="487" 
d="M193 259l-177 251h96l132 -189l127 189h99l-178 -251l182 -259h-99l-133 196l-130 -196h-99z" />
    <glyph glyph-name="uni0446" unicode="&#x446;" horiz-adv-x="601" 
d="M488 0h-425v510h85v-433h260v433h85v-433h76v-229h-81v152z" />
    <glyph glyph-name="uni0447" unicode="&#x447;" horiz-adv-x="518" 
d="M370 195q-46 -37 -138 -37q-57 0 -101.5 24.5t-68.5 67.5t-24 95v165h86v-164q0 -51 33.5 -81t87.5 -30q41 0 73.5 11t51.5 32v232h85v-510h-85v195z" />
    <glyph glyph-name="uni0448" unicode="&#x448;" horiz-adv-x="788" 
d="M63 510h85v-433h194v433h85v-433h194v433h85v-510h-643v510z" />
    <glyph glyph-name="uni0449" unicode="&#x449;" horiz-adv-x="837" 
d="M700 0h-637v510h85v-433h194v433h85v-433h194v433h85v-433h75v-229h-81v152z" />
    <glyph glyph-name="uni044A" unicode="&#x44a;" horiz-adv-x="594" 
d="M147 433h-119v77h203v-179h159q49 0 89.5 -21t63.5 -59t23 -86t-23 -85.5t-63.5 -58.5t-89.5 -21h-243v433zM388 77q38 0 65 24.5t27 63.5t-27 64t-65 25h-157v-177h157z" />
    <glyph glyph-name="uni044B" unicode="&#x44b;" horiz-adv-x="709" 
d="M63 510h85v-179h158q49 0 89.5 -21t63.5 -59t23 -86t-23 -85.5t-63.5 -58.5t-89.5 -21h-243v510zM561 510h84v-510h-84v510zM304 77q38 0 65 24.5t27 63.5t-27 64t-65 25h-156v-177h156z" />
    <glyph glyph-name="uni044C" unicode="&#x44c;" horiz-adv-x="510" 
d="M63 510h85v-179h158q49 0 89.5 -21t63.5 -59t23 -86t-23 -85.5t-63.5 -58.5t-89.5 -21h-243v510zM304 77q38 0 65 24.5t27 63.5t-27 64t-65 25h-156v-177h156z" />
    <glyph glyph-name="uni044D" unicode="&#x44d;" horiz-adv-x="540" 
d="M110.5 23q-55.5 39 -81.5 102l75 32q41 -96 148 -96q62 0 111 43.5t60 115.5h-229v69h229q-7 48 -32 84.5t-61.5 56t-77.5 19.5q-105 0 -143 -96l-77 32q25 65 79 103t137 38q74 0 132.5 -35t91.5 -97t33 -139t-33 -138.5t-91.5 -97t-132.5 -35.5q-82 0 -137.5 39z" />
    <glyph glyph-name="uni044E" unicode="&#x44e;" horiz-adv-x="803" 
d="M380.5 14q-55.5 30 -91 82.5t-43.5 118.5h-96v-215h-85v510h85v-216h96q8 66 43 119t91 83t125 30q75 0 135 -36t93.5 -98t33.5 -137t-33.5 -137t-93.5 -98t-135 -36q-69 0 -124.5 30zM593 84.5q41 23.5 65.5 67.5t24.5 103t-24.5 103t-65.5 67.5t-88 23.5t-87.5 -23.5
t-65 -67.5t-24.5 -103t24.5 -103t65 -67.5t87.5 -23.5t88 23.5z" />
    <glyph glyph-name="uni044F" unicode="&#x44f;" horiz-adv-x="500" 
d="M3 5l148 184l-3 2q-53 13 -86.5 55t-33.5 98q0 46 23 84.5t62.5 60t86.5 21.5h237v-510h-84v184h-112l-141 -184h-97v5zM353 257v176h-148q-38 0 -64.5 -25t-26.5 -63q0 -39 26.5 -63.5t64.5 -24.5h148z" />
    <glyph glyph-name="uni0450" unicode="&#x450;" horiz-adv-x="563" 
d="M159 19q-58 35 -90.5 96.5t-32.5 138.5q0 74 30.5 136t86.5 99t130 37q75 0 130 -33.5t84.5 -92.5t29.5 -135q0 -15 -3 -26h-403q3 -58 28 -98t63.5 -60t80.5 -20q98 0 151 92l72 -35q-33 -62 -89.5 -98t-136.5 -36q-73 0 -131 35zM437 309q-2 32 -18 64t-50.5 54
t-86.5 22q-60 0 -101.5 -38.5t-54.5 -101.5h311zM177 736h93l52 -127h-75z" />
    <glyph glyph-name="uni0451" unicode="&#x451;" horiz-adv-x="563" 
d="M159 19q-58 35 -90.5 96.5t-32.5 138.5q0 74 30.5 136t86.5 99t130 37q75 0 130 -33.5t84.5 -92.5t29.5 -135q0 -15 -3 -26h-403q3 -58 28 -98t63.5 -60t80.5 -20q98 0 151 92l72 -35q-33 -62 -89.5 -98t-136.5 -36q-73 0 -131 35zM437 309q-2 32 -18 64t-50.5 54
t-86.5 22q-60 0 -101.5 -38.5t-54.5 -101.5h311zM164 641q-16 16 -16 38q0 23 16 38t38 15q23 0 38 -15t15 -38q0 -22 -15 -38t-38 -16q-22 0 -38 16zM328.5 641q-16.5 16 -16.5 38q0 23 16 38t38 15q23 0 38.5 -15t15.5 -38q0 -22 -15.5 -38t-38.5 -16q-21 0 -37.5 16z" />
    <glyph glyph-name="uni0452" unicode="&#x452;" horiz-adv-x="564" 
d="M319 -219v81q8 -5 20 -8t22 -3q31 0 45 19.5t14 57.5v386q0 69 -35 102t-91 33q-40 0 -73.5 -24t-53 -62t-19.5 -79v-284h-85v583h-64v67h64v66h85v-66h153v-67h-153v-78l-4 -70h4q21 39 66.5 65t99.5 26q93 0 142 -54.5t49 -144.5v-399q0 -77 -37.5 -115.5t-103.5 -38.5
q-24 0 -45 7z" />
    <glyph glyph-name="uni0453" unicode="&#x453;" horiz-adv-x="431" 
d="M63 510h340v-77h-255v-433h-85v510zM248 736h93l-71 -127h-74z" />
    <glyph glyph-name="uni0454" unicode="&#x454;" horiz-adv-x="536" 
d="M157.5 19.5q-58.5 35.5 -91.5 97t-33 138.5t33 139t91.5 97t132.5 35q83 0 137 -38t79 -103l-77 -32q-38 96 -143 96q-41 0 -77.5 -19.5t-61.5 -56t-32 -84.5h228v-69h-228q11 -72 60 -115.5t111 -43.5q54 0 91 24.5t56 71.5l76 -32q-27 -64 -82 -102.5t-137 -38.5
q-74 0 -132.5 35.5z" />
    <glyph glyph-name="uni0455" unicode="&#x455;" horiz-adv-x="473" 
d="M104 22.5q-55 38.5 -78 98.5l76 34q19 -46 56.5 -71t82.5 -25q48 0 82 19.5t34 55.5q0 32 -27 51.5t-85 33.5l-62 16q-61 15 -100 51t-39 93q0 44 26.5 77.5t70.5 51.5t95 18q67 0 119.5 -29t74.5 -81l-74 -34q-34 68 -121 68q-42 0 -73.5 -19.5t-31.5 -49.5
q0 -28 22 -45.5t66 -28.5l74 -19q75 -19 113 -56.5t38 -91.5q0 -47 -27 -82.5t-73 -54.5t-102 -19q-82 0 -137 38.5z" />
    <glyph glyph-name="uni0456" unicode="&#x456;" horiz-adv-x="226" 
d="M70 622q-18 18 -18 43t18 42.5t43 17.5t43 -17.5t18 -42.5t-17.5 -43t-43.5 -18q-25 0 -43 18zM71 510h84v-510h-84v510z" />
    <glyph glyph-name="uni0457" unicode="&#x457;" horiz-adv-x="226" 
d="M9 641q-16 16 -16 38q0 23 16 38t38 15q23 0 38 -15t15 -38q0 -22 -15 -38t-38 -16q-22 0 -38 16zM142 641q-16 16 -16 38q0 23 16 38t38 15q23 0 38 -15t15 -38q0 -22 -15 -38t-38 -16q-22 0 -38 16zM71 510h84v-510h-84v510z" />
    <glyph glyph-name="uni0458" unicode="&#x458;" horiz-adv-x="226" 
d="M70 622q-18 18 -18 43t18 42.5t43 17.5t43 -17.5t18 -42.5t-17.5 -43t-43.5 -18q-25 0 -43 18zM-30 -219v81q8 -5 20 -8t22 -3q31 0 45 19.5t14 57.5v582h84v-582q0 -77 -37 -115.5t-103 -38.5q-24 0 -45 7z" />
    <glyph glyph-name="uni0459" unicode="&#x459;" horiz-adv-x="919" 
d="M48 0l1 76q16 -5 34 -5q23 0 35 15.5t16.5 51t4.5 99.5v273h421v-189h161q45 0 83.5 -20.5t61.5 -57t23 -83.5q0 -46 -23 -82.5t-61.5 -57t-83.5 -20.5h-245v433h-254v-223q0 -118 -35 -168t-93 -50q-26 0 -46 8zM716 77q38 0 62 23t24 60q0 38 -24 61t-62 23h-156v-167
h156z" />
    <glyph glyph-name="uni045A" unicode="&#x45a;" horiz-adv-x="832" 
d="M63 510h85v-189h241v189h84v-189h161q45 0 83.5 -20.5t61.5 -57t23 -83.5q0 -46 -23 -82.5t-61.5 -57t-83.5 -20.5h-245v244h-241v-244h-85v510zM628 77q39 0 63 23t24 60q0 38 -24 61t-63 23h-155v-167h155z" />
    <glyph glyph-name="uni045B" unicode="&#x45b;" horiz-adv-x="564" 
d="M456 471.5q49 -54.5 49 -144.5v-327h-85v314q0 69 -35 102t-91 33q-40 0 -73.5 -24t-53 -62t-19.5 -79v-284h-85v583h-64v67h64v66h85v-66h153v-67h-153v-78l-4 -70h4q21 39 66.5 65t99.5 26q93 0 142 -54.5z" />
    <glyph glyph-name="uni045C" unicode="&#x45c;" horiz-adv-x="488" 
d="M63 510h85v-231h4l215 231h107v-4l-230 -238l240 -264v-4h-104l-228 257h-4v-257h-85v510zM258 736h93l-71 -127h-74z" />
    <glyph glyph-name="uni045D" unicode="&#x45d;" horiz-adv-x="570" 
d="M63 510h85v-287l-4 -96h4l275 383h84v-510h-84v287l4 96h-4l-275 -383h-85v510zM178 736h93l52 -127h-75z" />
    <glyph glyph-name="uni045E" unicode="&#x45e;" horiz-adv-x="516" 
d="M219 32l-211 478h92l160 -379h2l154 379h92l-315 -726h-88zM196.5 623.5q-29.5 16.5 -47.5 45t-18 63.5h69q0 -25 16 -43t43 -18q25 0 41 18t16 43h68q0 -35 -17.5 -63.5t-46.5 -45t-61 -16.5q-33 0 -62.5 16.5z" />
    <glyph glyph-name="uni045F" unicode="&#x45f;" horiz-adv-x="576" 
d="M247 0h-184v510h85v-433h280v433h85v-510h-184v-152h-82v152z" />
    <glyph glyph-name="uni0490" unicode="&#x490;" horiz-adv-x="505" 
d="M70 716h330v110h81v-191h-326v-635h-85v716z" />
    <glyph glyph-name="uni0491" unicode="&#x491;" horiz-adv-x="414" 
d="M55 510h255v96h81v-173h-252v-433h-84v510z" />
    <glyph glyph-name="uni04AE" unicode="&#x4ae;" horiz-adv-x="595" 
d="M257 331l-242 385h99l183 -300h4l180 300h99l-238 -385v-331h-85v331z" />
    <glyph glyph-name="uni04AF" unicode="&#x4af;" horiz-adv-x="513" 
d="M213 0l-206 510h92l157 -417l161 417h90l-209 -510v-216h-85v216z" />
    <glyph glyph-name="uni04B0" unicode="&#x4b0;" horiz-adv-x="595" 
d="M257 279h-178v66h169l-233 371h99l183 -300h4l180 300h99l-230 -371h169v-66h-178v-279h-84v279z" />
    <glyph glyph-name="uni04B1" unicode="&#x4b1;" horiz-adv-x="513" 
d="M213 0h-147v65h122l-15 32l-166 413h92l157 -417l161 417h90l-170 -412l-14 -33h121v-65h-146v-216h-85v216z" />
    <glyph glyph-name="uni0E3F" unicode="&#xe3f;" horiz-adv-x="576" 
d="M250 0h-180v684h180v100h71v-100h2q52 0 98.5 -23.5t74 -66t27.5 -94.5q0 -49 -26 -87t-69 -58v-3q51 -17 83.5 -59.5t32.5 -98.5t-29 -100t-77 -69t-103 -25h-14v-100h-71v100zM250 389v214h-95v-214h95zM323 389q35 0 61 15.5t40 40.5t14 51t-13.5 51t-39 40.5
t-58.5 15.5h-6v-214h2zM250 81v229h-95v-229h95zM340 81q35 0 62 17t41.5 43.5t14.5 55.5q0 28 -15 54t-43 42.5t-64 16.5h-15v-229h19z" />
    <glyph glyph-name="Wgrave" unicode="&#x1e80;" horiz-adv-x="944" 
d="M17 716h94l130 -526l12 -49h4l15 49l160 526h88l153 -526l15 -49h4l141 575h94l-193 -716h-88l-152 518l-16 56h-4l-17 -56l-158 -518h-88zM369 900h93l52 -127h-75z" />
    <glyph glyph-name="wgrave" unicode="&#x1e81;" horiz-adv-x="777" 
d="M7 510h87l122 -403h1l128 403h88l129 -402h1l121 402h86l-165 -510h-86l-132 407l-131 -407h-85zM282 736h93l52 -127h-75z" />
    <glyph glyph-name="Wacute" unicode="&#x1e82;" horiz-adv-x="944" 
d="M17 716h94l130 -526l12 -49h4l15 49l160 526h88l153 -526l15 -49h4l141 575h94l-193 -716h-88l-152 518l-16 56h-4l-17 -56l-158 -518h-88zM491 900h93l-71 -127h-74z" />
    <glyph glyph-name="wacute" unicode="&#x1e83;" horiz-adv-x="777" 
d="M7 510h87l122 -403h1l128 403h88l129 -402h1l121 402h86l-165 -510h-86l-132 407l-131 -407h-85zM404 736h93l-71 -127h-74z" />
    <glyph glyph-name="Wdieresis" unicode="&#x1e84;" horiz-adv-x="944" 
d="M17 716h94l130 -526l12 -49h4l15 49l160 526h88l153 -526l15 -49h4l141 575h94l-193 -716h-88l-152 518l-16 56h-4l-17 -56l-158 -518h-88zM356 805.5q-16 16.5 -16 37.5q0 23 16 38.5t38 15.5q23 0 38 -15.5t15 -38.5q0 -22 -15 -38t-38 -16q-22 0 -38 16.5z
M520.5 805.5q-16.5 16.5 -16.5 37.5q0 23 16 38.5t38 15.5q23 0 38.5 -15.5t15.5 -38.5q0 -22 -15.5 -38t-38.5 -16q-21 0 -37.5 16.5z" />
    <glyph glyph-name="wdieresis" unicode="&#x1e85;" horiz-adv-x="777" 
d="M7 510h87l122 -403h1l128 403h88l129 -402h1l121 402h86l-165 -510h-86l-132 407l-131 -407h-85zM269 641q-16 16 -16 38q0 23 16 38t38 15q23 0 38 -15t15 -38q0 -22 -15 -38t-38 -16q-22 0 -38 16zM433.5 641q-16.5 16 -16.5 38q0 23 16 38t38 15q23 0 38.5 -15
t15.5 -38q0 -22 -15.5 -38t-38.5 -16q-21 0 -37.5 16z" />
    <glyph glyph-name="Ygrave" unicode="&#x1ef2;" horiz-adv-x="595" 
d="M257 331l-242 385h99l183 -300h4l180 300h99l-238 -385v-331h-85v331zM190 900h93l52 -127h-75z" />
    <glyph glyph-name="ygrave" unicode="&#x1ef3;" horiz-adv-x="516" 
d="M219 32l-211 478h92l160 -379h2l154 379h92l-315 -726h-88zM151 736h93l52 -127h-75z" />
    <glyph glyph-name="uni2000" unicode="&#x2000;" horiz-adv-x="415" 
 />
    <glyph glyph-name="uni2001" unicode="&#x2001;" horiz-adv-x="830" 
 />
    <glyph glyph-name="uni2002" unicode="&#x2002;" horiz-adv-x="415" 
 />
    <glyph glyph-name="uni2003" unicode="&#x2003;" horiz-adv-x="830" 
 />
    <glyph glyph-name="uni2004" unicode="&#x2004;" horiz-adv-x="275" 
 />
    <glyph glyph-name="uni2005" unicode="&#x2005;" horiz-adv-x="207" 
 />
    <glyph glyph-name="uni2006" unicode="&#x2006;" horiz-adv-x="138" 
 />
    <glyph glyph-name="uni2007" unicode="&#x2007;" 
 />
    <glyph glyph-name="uni2008" unicode="&#x2008;" horiz-adv-x="232" 
 />
    <glyph glyph-name="uni2009" unicode="&#x2009;" horiz-adv-x="138" 
 />
    <glyph glyph-name="uni200A" unicode="&#x200a;" horiz-adv-x="70" 
 />
    <glyph glyph-name="endash" unicode="&#x2013;" horiz-adv-x="600" 
d="M62 345h476v-70h-476v70z" />
    <glyph glyph-name="emdash" unicode="&#x2014;" horiz-adv-x="899" 
d="M62 345h776v-70h-776v70z" />
    <glyph glyph-name="uni2015" unicode="&#x2015;" horiz-adv-x="1031" 
d="M62 345h908v-70h-908v70z" />
    <glyph glyph-name="quoteleft" unicode="&#x2018;" horiz-adv-x="224" 
d="M65.5 528.5q-18.5 18.5 -18.5 45.5q0 16 6.5 31t20.5 36l63 91l40 -26l-49 -75q18 -3 32 -18.5t14 -38.5q0 -27 -18.5 -45.5t-44.5 -18.5q-27 0 -45.5 18.5z" />
    <glyph glyph-name="quoteright" unicode="&#x2019;" horiz-adv-x="228" 
d="M49 536l49 75q-18 3 -32 18.5t-14 38.5q0 27 18.5 45.5t44.5 18.5q27 0 45.5 -18.5t18.5 -45.5q0 -16 -6.5 -31t-20.5 -36l-63 -91z" />
    <glyph glyph-name="quotesinglbase" unicode="&#x201a;" horiz-adv-x="224" 
d="M47 -75l53 75q-21 4 -35.5 19t-14.5 38q0 27 18.5 45.5t44.5 18.5q27 0 45.5 -18.5t18.5 -45.5q0 -16 -6.5 -31t-20.5 -36l-63 -91z" />
    <glyph glyph-name="quotedblleft" unicode="&#x201c;" horiz-adv-x="392" 
d="M63.5 528.5q-18.5 18.5 -18.5 45.5q0 16 6.5 31t20.5 36l63 91l40 -26l-49 -75q18 -3 32 -18.5t14 -38.5q0 -27 -18.5 -45.5t-44.5 -18.5q-27 0 -45.5 18.5zM232.5 528.5q-18.5 18.5 -18.5 45.5q0 16 6.5 31t20.5 36l63 91l40 -26l-49 -75q18 -3 32 -18.5t14 -38.5
q0 -27 -18.5 -45.5t-44.5 -18.5q-27 0 -45.5 18.5z" />
    <glyph glyph-name="quotedblright" unicode="&#x201d;" horiz-adv-x="392" 
d="M45 536l53 75q-21 4 -35.5 19t-14.5 38q0 27 18.5 45.5t44.5 18.5q27 0 45.5 -18.5t18.5 -45.5q0 -16 -6.5 -31t-20.5 -36l-63 -91zM214 536l53 75q-21 4 -35.5 19t-14.5 38q0 27 18.5 45.5t44.5 18.5q27 0 45.5 -18.5t18.5 -45.5q0 -16 -6.5 -31t-20.5 -36l-63 -91z" />
    <glyph glyph-name="quotedblbase" unicode="&#x201e;" horiz-adv-x="392" 
d="M45 -75l53 75q-21 4 -35.5 19t-14.5 38q0 27 18.5 45.5t44.5 18.5q27 0 45.5 -18.5t18.5 -45.5q0 -16 -6.5 -31t-20.5 -36l-63 -91zM214 -75l53 75q-21 4 -35.5 19t-14.5 38q0 27 18.5 45.5t44.5 18.5q27 0 45.5 -18.5t18.5 -45.5q0 -16 -6.5 -31t-20.5 -36l-63 -91z" />
    <glyph glyph-name="dagger" unicode="&#x2020;" horiz-adv-x="435" 
d="M175 493h-144v78h144v145h85v-145h143v-78h-143v-335h-85v335z" />
    <glyph glyph-name="daggerdbl" unicode="&#x2021;" horiz-adv-x="435" 
d="M175 161h-144v78h144v254h-144v78h144v145h85v-145h143v-78h-143v-254h143v-78h-143v-161h-85v161z" />
    <glyph glyph-name="bullet" unicode="&#x2022;" horiz-adv-x="381" 
d="M111.5 244.5q-33.5 33.5 -33.5 79.5q0 47 33.5 80t79.5 33t79 -33.5t33 -79.5t-33 -79.5t-79 -33.5t-79.5 33.5z" />
    <glyph glyph-name="ellipsis" unicode="&#x2026;" horiz-adv-x="698" 
d="M75.5 12.5q-18.5 18.5 -18.5 45.5q0 26 18.5 44.5t45.5 18.5q26 0 44.5 -18.5t18.5 -44.5q0 -27 -18.5 -45.5t-44.5 -18.5q-27 0 -45.5 18.5zM305.5 12.5q-18.5 18.5 -18.5 45.5q0 26 18.5 44.5t45.5 18.5q26 0 44.5 -18.5t18.5 -44.5q0 -27 -18.5 -45.5t-44.5 -18.5
q-27 0 -45.5 18.5zM535.5 12.5q-18.5 18.5 -18.5 45.5q0 26 18.5 44.5t45.5 18.5q26 0 44.5 -18.5t18.5 -44.5q0 -27 -18.5 -45.5t-44.5 -18.5q-27 0 -45.5 18.5z" />
    <glyph glyph-name="perthousand" unicode="&#x2030;" horiz-adv-x="1108" 
d="M124.5 381.5q-39.5 23.5 -62 63t-22.5 84.5t22.5 84.5t62 63t85.5 23.5t85 -23.5t61.5 -63t22.5 -84.5t-22.5 -84.5t-61.5 -63t-85 -23.5t-85.5 23.5zM164 28l445 663l53 -36l-444 -662zM282 451.5q29 31.5 29 77.5q0 47 -29 78t-72 31t-72.5 -31t-29.5 -78
q0 -46 29.5 -77.5t72.5 -31.5t72 31.5zM532.5 7.5q-39.5 23.5 -62 63t-22.5 84.5t22.5 84.5t62 63t85.5 23.5q43 0 80.5 -22.5t59.5 -59.5q22 37 59 59.5t81 22.5q46 0 85.5 -23.5t62 -63t22.5 -84.5t-22.5 -84.5t-62 -63t-85.5 -23.5q-44 0 -81 22.5t-59 59.5
q-22 -37 -59.5 -59.5t-80.5 -22.5q-46 0 -85.5 23.5zM690 77.5q29 31.5 29 77.5q0 47 -29 78t-72 31t-72.5 -31t-29.5 -78q0 -46 29.5 -77.5t72.5 -31.5t72 31.5zM971 77.5q29 31.5 29 77.5q0 47 -29 78t-73 31q-43 0 -72 -31t-29 -78q0 -46 29 -77.5t72 -31.5q44 0 73 31.5
z" />
    <glyph glyph-name="uni2031" unicode="&#x2031;" horiz-adv-x="1372" 
d="M116 381.5q-39 23.5 -62 63t-23 84.5t23 84.5t62 63t85 23.5t85.5 -23.5t62 -63t22.5 -84.5t-22.5 -84.5t-62 -63t-85.5 -23.5t-85 23.5zM156 28l445 663l53 -36l-445 -662zM274 451.5q29 31.5 29 77.5q0 47 -29 78t-73 31q-43 0 -72 -31t-29 -78q0 -46 29 -77.5
t72 -31.5q44 0 73 31.5zM524 7.5q-39 23.5 -62 63t-23 84.5t23 84.5t62 63t85 23.5q44 0 81 -22.5t60 -59.5q22 37 58.5 59.5t81.5 22.5q44 0 81 -22.5t59 -59.5q23 37 60 59.5t81 22.5q46 0 85 -23.5t62 -63t23 -84.5t-23 -84.5t-62 -63t-85 -23.5q-44 0 -81 22.5t-60 59.5
q-22 -37 -59 -59.5t-81 -22.5q-45 0 -81.5 22.5t-58.5 59.5q-23 -37 -60 -59.5t-81 -22.5q-46 0 -85 23.5zM682 77.5q29 31.5 29 77.5q0 47 -29 78t-73 31q-43 0 -72 -31t-29 -78q0 -46 29 -77.5t72 -31.5q44 0 73 31.5zM962 77.5q29 31.5 29 77.5q0 47 -29 78t-72 31
t-72.5 -31t-29.5 -78q0 -46 29.5 -77.5t72.5 -31.5t72 31.5zM1242.5 77.5q29.5 31.5 29.5 77.5q0 47 -29.5 78t-71.5 31q-44 0 -73 -31t-29 -78q0 -46 29 -77.5t73 -31.5q42 0 71.5 31.5z" />
    <glyph glyph-name="guilsinglleft" unicode="&#x2039;" horiz-adv-x="348" 
d="M39 271l200 217l50 -46l-161 -171l161 -171l-50 -46z" />
    <glyph glyph-name="guilsinglright" unicode="&#x203a;" horiz-adv-x="348" 
d="M59 100l160 171l-160 171l50 46l200 -217l-200 -217z" />
    <glyph glyph-name="exclamdbl" unicode="&#x203c;" horiz-adv-x="458" 
d="M77 473v243h84v-243l-10 -262h-65zM73.5 12.5q-18.5 18.5 -18.5 45.5q0 26 18.5 44.5t45.5 18.5q26 0 44.5 -18.5t18.5 -44.5q0 -27 -18.5 -45.5t-44.5 -18.5q-27 0 -45.5 18.5zM297 473v243h84v-243l-10 -262h-65zM293.5 12.5q-18.5 18.5 -18.5 45.5q0 26 18.5 44.5
t45.5 18.5q26 0 44.5 -18.5t18.5 -44.5q0 -27 -18.5 -45.5t-44.5 -18.5q-27 0 -45.5 18.5z" />
    <glyph glyph-name="uni2042" unicode="&#x2042;" horiz-adv-x="867" 
d="M306 437l71 95l-2 7l-103 36l21 63l103 -37l4 2v111h67v-111l4 -2l104 37l20 -63l-103 -36l-2 -7l71 -95l-54 -40l-70 96h-7l-69 -96zM73 35l71 95l-2 7l-103 36l21 63l103 -37l4 2v111h67v-111l4 -2l104 37l20 -63l-103 -36l-2 -7l71 -95l-54 -40l-70 96h-7l-69 -96z
M539 35l71 95l-2 7l-103 36l21 63l103 -37l4 2v111h67v-111l4 -2l104 37l20 -63l-103 -36l-2 -7l71 -95l-54 -40l-70 96h-7l-69 -96z" />
    <glyph glyph-name="uni2043" unicode="&#x2043;" horiz-adv-x="393" 
d="M70 349h253v-78h-253v78z" />
    <glyph glyph-name="fraction" unicode="&#x2044;" horiz-adv-x="173" 
d="M-173 28l466 695l53 -36l-466 -694z" />
    <glyph glyph-name="uni2047" unicode="&#x2047;" horiz-adv-x="966" 
d="M201 259q0 50 19 83t68 79q40 36 57.5 61.5t17.5 61.5q0 48 -31 77.5t-86 29.5q-50 0 -79.5 -28.5t-44.5 -70.5l-79 33q22 58 72 102.5t130 44.5q60 0 106.5 -24.5t72 -67.5t25.5 -96q0 -55 -27.5 -93.5t-70.5 -77.5q-33 -30 -48 -57t-15 -63v-42h-87v48zM199.5 12.5
q-18.5 18.5 -18.5 45.5q0 26 18.5 44.5t44.5 18.5q27 0 45.5 -18.5t18.5 -44.5q0 -27 -18.5 -45.5t-45.5 -18.5q-26 0 -44.5 18.5zM663 259q0 50 19 83t68 79q40 36 57.5 61.5t17.5 61.5q0 48 -31 77.5t-86 29.5q-50 0 -79.5 -28.5t-44.5 -70.5l-79 33q22 58 72 102.5
t130 44.5q60 0 106.5 -24.5t72 -67.5t25.5 -96q0 -55 -27.5 -93.5t-70.5 -77.5q-33 -30 -48 -57t-15 -63v-42h-87v48zM661.5 12.5q-18.5 18.5 -18.5 45.5q0 26 18.5 44.5t44.5 18.5q27 0 45.5 -18.5t18.5 -44.5q0 -27 -18.5 -45.5t-45.5 -18.5q-26 0 -44.5 18.5z" />
    <glyph glyph-name="uni2048" unicode="&#x2048;" horiz-adv-x="702" 
d="M201 259q0 50 19 83t68 79q40 36 57.5 61.5t17.5 61.5q0 48 -31 77.5t-86 29.5q-50 0 -79.5 -28.5t-44.5 -70.5l-79 33q22 58 72 102.5t130 44.5q60 0 106.5 -24.5t72 -67.5t25.5 -96q0 -55 -27.5 -93.5t-70.5 -77.5q-33 -30 -48 -57t-15 -63v-42h-87v48zM199.5 12.5
q-18.5 18.5 -18.5 45.5q0 26 18.5 44.5t44.5 18.5q27 0 45.5 -18.5t18.5 -44.5q0 -27 -18.5 -45.5t-45.5 -18.5q-26 0 -44.5 18.5zM541 473v243h84v-243l-10 -262h-65zM537.5 12.5q-18.5 18.5 -18.5 45.5q0 26 18.5 44.5t45.5 18.5q26 0 44.5 -18.5t18.5 -44.5
q0 -27 -18.5 -45.5t-44.5 -18.5q-27 0 -45.5 18.5z" />
    <glyph glyph-name="uni2049" unicode="&#x2049;" horiz-adv-x="708" 
d="M407 259q0 50 19 83t68 79q40 36 57.5 61.5t17.5 61.5q0 48 -31 77.5t-86 29.5q-50 0 -79.5 -28.5t-44.5 -70.5l-79 33q22 58 72 102.5t130 44.5q60 0 106.5 -24.5t72 -67.5t25.5 -96q0 -55 -27.5 -93.5t-70.5 -77.5q-33 -30 -48 -57t-15 -63v-42h-87v48zM405.5 12.5
q-18.5 18.5 -18.5 45.5q0 26 18.5 44.5t44.5 18.5q27 0 45.5 -18.5t18.5 -44.5q0 -27 -18.5 -45.5t-45.5 -18.5q-26 0 -44.5 18.5zM77 473v243h84v-243l-10 -262h-65zM73.5 12.5q-18.5 18.5 -18.5 45.5q0 26 18.5 44.5t45.5 18.5q26 0 44.5 -18.5t18.5 -44.5
q0 -27 -18.5 -45.5t-44.5 -18.5q-27 0 -45.5 18.5z" />
    <glyph glyph-name="uni204E" unicode="&#x204e;" horiz-adv-x="391" 
d="M59 38l76 103l-2 8l-112 38l23 67l110 -39l6 2v119h71v-119l5 -2l111 39l23 -67l-112 -38l-3 -8l77 -103l-58 -42l-75 103h-7l-75 -103z" />
    <glyph glyph-name="uni2051" unicode="&#x2051;" horiz-adv-x="401" 
d="M73 437l71 95l-2 7l-103 36l21 63l103 -37l4 2v111h67v-111l4 -2l104 37l20 -63l-103 -36l-2 -7l71 -95l-54 -40l-70 96h-7l-69 -96zM73 35l71 95l-2 7l-103 36l21 63l103 -37l4 2v111h67v-111l4 -2l104 37l20 -63l-103 -36l-2 -7l71 -95l-54 -40l-70 96h-7l-69 -96z" />
    <glyph glyph-name="uni2055" unicode="&#x2055;" horiz-adv-x="652" 
d="M291 242l-132 -132l-49 49l133 131h-188v70h188l-133 131l49 49l132 -132v188h70v-188l132 132l49 -49l-133 -131h188v-70h-188l133 -131l-49 -49l-132 132v-188h-70v188z" />
    <glyph glyph-name="uni2074" unicode="&#x2074;" horiz-adv-x="342" 
d="M199 424h-172v44l176 248h61v-236h49v-56h-49v-74h-65v74zM199 480v137h-4l-98 -137h102z" />
    <glyph glyph-name="franc" unicode="&#x20a3;" horiz-adv-x="553" 
d="M188 603v-229h293v-80h-293v-107h137v-70h-137v-117h-84v117h-76v70h76v497h409v-81h-325z" />
    <glyph glyph-name="lira" unicode="&#x20a4;" horiz-adv-x="527" 
d="M507 111q-20 -52 -59 -81.5t-99 -29.5h-309v73q34 16 58.5 40.5t36.5 55.5h-95v70h108q-3 46 -24 90h-84v70h49q-14 28 -21.5 52.5t-7.5 51.5q0 52 25 97.5t71.5 72.5t106.5 27q79 0 127.5 -42t67.5 -99l-77 -32q-12 38 -41.5 65t-76.5 27q-55 0 -87 -35t-32 -81
q0 -25 7.5 -49.5t21.5 -54.5h166v-70h-134q18 -43 19 -90h115v-70h-126q-15 -49 -53 -85l3 -3h186q37 0 56.5 14.5t31.5 44.5z" />
    <glyph glyph-name="uni20A9" unicode="&#x20a9;" horiz-adv-x="982" 
d="M153 329h-115v70h96l-76 285h92l68 -285h147l87 285h87l83 -285h142l69 285h91l-76 -285h95v-70h-114l-88 -329h-84l-96 329h-136l-100 -329h-83zM541 399l-27 93l-17 57h-4l-17 -57l-28 -93h93zM285 136l19 61l40 132h-108l31 -132l15 -61h3zM700 136l15 61l32 132h-105
l38 -132l17 -61h3z" />
    <glyph glyph-name="dong" unicode="&#x20ab;" horiz-adv-x="581" 
d="M152.5 16q-53.5 32 -85 90t-31.5 131t31.5 131t85 90t115.5 32q57 0 98.5 -24.5t64.5 -63.5h4l-4 68v73h-143v66h143v75h85v-75h65v-66h-65v-543h-81v72h-4q-23 -39 -64.5 -63.5t-98.5 -24.5q-62 0 -115.5 32zM392 107.5q43 46.5 43 129.5t-43 129.5t-110 46.5
q-44 0 -81 -21t-59 -60.5t-22 -94.5t22 -94.5t59 -60.5t81 -21q67 0 110 46.5zM78 -84h438v-70h-438v70z" />
    <glyph glyph-name="Euro" unicode="&#x20ac;" horiz-adv-x="636" 
d="M607 25q-71 -41 -163 -41q-75 0 -140 29.5t-111.5 84.5t-67.5 129h-96v70h82q-2 30 -2 45t2 45h-82v70h96q21 74 68 129t112 84.5t139 29.5q39 0 78 -11t70 -31l-40 -68q-28 15 -53.5 21.5t-55.5 6.5q-77 0 -139.5 -41.5t-90.5 -119.5h228v-70h-243q-3 -21 -3 -45t3 -45
h243v-70h-228q28 -78 91 -119.5t140 -41.5q66 0 124 32z" />
    <glyph glyph-name="uni20AE" unicode="&#x20ae;" horiz-adv-x="526" 
d="M221 136l-130 -81v86l130 81v104l-130 -81v86l130 81v191h-195v81h474v-81h-194v-142l129 81v-86l-129 -82v-103l129 82v-86l-129 -83v-184h-85v136z" />
    <glyph glyph-name="uni20B1" unicode="&#x20b1;" horiz-adv-x="638" 
d="M618 444h-63q-13 -76 -75 -122t-144 -46h-145v-276h-84v444h-77v70h77v170h229q55 0 102 -21t78 -59.5t39 -89.5h63v-70zM191 514h276q-11 39 -45 64t-83 25h-148v-89zM420.5 381.5q33.5 24.5 45.5 62.5h-275v-87h148q48 0 81.5 24.5z" />
    <glyph glyph-name="uni20B8" unicode="&#x20b8;" horiz-adv-x="526" 
d="M26 684h474v-70h-474v70zM221 451h-195v70h474v-70h-194v-451h-85v451z" />
    <glyph glyph-name="uni20B9" unicode="&#x20b9;" horiz-adv-x="557" 
d="M531 614h-115q44 -41 54 -93h61v-71h-60q-9 -49 -40.5 -88t-78 -60.5t-100.5 -21.5h-28l-2 -3l270 -273v-4h-116l-265 273v85h141q46 0 82 25t48 67h-356v71h356q-12 39 -45 66t-79 27h-232v70h505v-70z" />
    <glyph glyph-name="uni20BA" unicode="&#x20ba;" horiz-adv-x="537" 
d="M510 261q0 -73 -36.5 -132.5t-99 -94t-140.5 -34.5h-78v192l-130 -81v85l130 81v104l-130 -81v86l130 82v216h85v-167l130 81v-87l-130 -81v-104l130 83v-87l-130 -81v-160q54 1 97 26t66.5 66t23.5 88h82z" />
    <glyph glyph-name="uni20BD" unicode="&#x20bd;" horiz-adv-x="587" 
d="M104 117h-76v70h76v89h-76v71h76v337h229q60 0 111 -25.5t81 -72t30 -106.5t-30 -106.5t-81 -72t-111 -25.5h-144v-89h137v-70h-137v-117h-85v117zM336 357q40 0 70 17t46.5 45.5t16.5 60.5t-16.5 60.5t-46.5 45.5t-70 17h-147v-246h147z" />
    <glyph glyph-name="uni2103" unicode="&#x2103;" horiz-adv-x="971" 
d="M96.5 459.5q-30.5 17.5 -48 47t-17.5 64.5t17.5 65t48 47t65.5 17t64.5 -17t47 -47t17.5 -65t-17.5 -64.5t-47 -47t-64.5 -17.5t-65.5 17.5zM485 31q-81 47 -127.5 129t-46.5 182t46.5 182t127.5 129t180 47q76 0 139.5 -30t110.5 -84l-58 -58q-70 90 -192 90
q-74 0 -135 -33.5t-96.5 -96.5t-35.5 -146t36 -146t97 -96.5t135 -33.5q126 0 211 100l59 -58q-48 -57 -117.5 -90.5t-152.5 -33.5q-100 0 -181 47zM209 521.5q19 20.5 19 49.5t-19 49.5t-47 20.5t-47.5 -20.5t-19.5 -49.5t19.5 -49.5t47.5 -20.5t47 20.5z" />
    <glyph glyph-name="uni2109" unicode="&#x2109;" horiz-adv-x="811" 
d="M96.5 459.5q-30.5 17.5 -48 47t-17.5 64.5t17.5 65t48 47t65.5 17t64.5 -17t47 -47t17.5 -65t-17.5 -64.5t-47 -47t-64.5 -17.5t-65.5 17.5zM379 684h401v-81h-316v-229h285v-80h-285v-294h-85v684zM209 521.5q19 20.5 19 49.5t-19 49.5t-47 20.5t-47.5 -20.5
t-19.5 -49.5t19.5 -49.5t47.5 -20.5t47 20.5z" />
    <glyph glyph-name="uni2113" unicode="&#x2113;" horiz-adv-x="423" 
d="M149.5 34.5q-43.5 42.5 -43.5 114.5v133h-90v77h90v210q0 71 36.5 117t106.5 46q39 0 72 -22t52 -64t19 -98q0 -64 -25.5 -120t-71.5 -94t-105 -49v-126q0 -44 21 -67t56 -23q39 0 69 22v-86q-26 -13 -69 -13q-74 0 -117.5 42.5zM277.5 428q31.5 49 31.5 120q0 49 -18 77
t-44 28q-29 0 -43 -23t-14 -65v-201q56 15 87.5 64z" />
    <glyph glyph-name="uni2114" unicode="&#x2114;" horiz-adv-x="800" 
d="M655 472q53 -34 85 -93.5t32 -133.5t-32 -133.5t-85 -93.5t-115 -34q-58 0 -103.5 25t-68.5 64h-4v-73h-81v575h-109v-575h-85v575h-66v66h66v75h85v-75h109v75h85v-75h148v-66h-148v-90l-4 -68h4q23 39 68.5 64t103.5 25q62 0 115 -34zM606 83.5q37 22.5 59.5 64.5
t22.5 97t-22.5 97t-59.5 64.5t-80 22.5t-80 -22t-59.5 -64t-22.5 -98t22.5 -98t59.5 -64t80 -22t80 22.5z" />
    <glyph glyph-name="uni2116" unicode="&#x2116;" horiz-adv-x="1077" 
d="M789 413.5q-39 23.5 -62 63t-23 84.5t23 84.5t62 63t85 23.5t85.5 -23.5t62.5 -63t23 -84.5t-23 -84.5t-62.5 -63t-85.5 -23.5t-85 23.5zM73 716h104l360 -570h4l-4 138v432h84v-716h-88l-375 597h-4l4 -138v-459h-85v716zM947 483.5q29 31.5 29 77.5q0 47 -29 78t-73 31
q-42 0 -71.5 -31t-29.5 -78q0 -46 29.5 -77.5t71.5 -31.5q44 0 73 31.5zM734 305h280v-67h-280v67z" />
    <glyph glyph-name="uni2117" unicode="&#x2117;" horiz-adv-x="530" 
d="M150 303q-53 31 -84 84t-31 115t31 115t84 84t115 31t115 -31t84 -84t31 -115t-31 -115t-84 -84t-115 -31t-115 31zM357.5 343q42.5 25 67.5 67.5t25 91.5q0 50 -25 92.5t-67.5 67t-92.5 24.5q-49 0 -91.5 -24.5t-67.5 -67t-25 -92.5q0 -49 25 -91.5t67.5 -67.5t91.5 -25
q50 0 92.5 25zM197 615h94q29 0 51 -21t22 -51t-22 -50.5t-51 -20.5h-50v-83h-44v226zM287 514q13 0 23 8t10 21q0 12 -9 21t-23 9h-47v-59h46z" />
    <glyph glyph-name="prescription" unicode="&#x211e;" horiz-adv-x="684" 
d="M258 -156l159 226l-153 222h-109v-292h-85v716h242q59 0 110.5 -27t82 -75.5t30.5 -109.5q0 -50 -23 -93t-62 -72t-87 -39l-2 -3l107 -155l103 148h93v-4l-148 -214l160 -228v-4h-99l-111 160l-110 -160h-98v4zM307 371q38 0 70 17t51.5 47.5t19.5 68.5q0 33 -16.5 63
t-47.5 49t-71 19h-158v-264h152z" />
    <glyph glyph-name="uni2120" unicode="&#x2120;" horiz-adv-x="495" 
d="M49.5 502q-24.5 16 -33.5 44l39 17q5 -16 18.5 -26.5t29.5 -10.5q15 0 26 7.5t11 19.5q0 13 -12 21t-41 16q-28 7 -46 23.5t-18 41.5q0 29 23.5 47t55.5 18q25 0 47.5 -14.5t30.5 -37.5l-39 -15q-2 8 -13 17.5t-26 9.5t-25 -7t-10 -17q0 -18 40 -30q35 -11 56 -26.5
t21 -46.5q0 -32 -25.5 -49.5t-55.5 -17.5q-29 0 -53.5 16zM221 716h61l64 -164h2l64 164h60v-226h-42v122l2 44h-2l-68 -166h-31l-67 166h-2l2 -44v-122h-43v226z" />
    <glyph glyph-name="trademark" unicode="&#x2122;" horiz-adv-x="499" 
d="M77 676h-69v40h179v-40h-66v-186h-44v186zM225 716h60l64 -164h2l64 164h60v-226h-42v122l2 44h-2l-68 -166h-30l-68 166h-2l2 -44v-122h-42v226z" />
    <glyph glyph-name="Omega" unicode="&#x2126;" horiz-adv-x="802" 
d="M67 81h165v4q-85 44 -133 122t-48 176q0 92 46 172.5t126 128.5t178 48t178.5 -48t126 -128t45.5 -173q0 -98 -48 -176t-133 -122v-4h166v-81h-276v120q58 14 105 51t73.5 92t26.5 120q0 75 -35.5 136t-96 96.5t-132.5 35.5t-132.5 -35.5t-96 -96.5t-35.5 -136
q0 -65 26.5 -120t73.5 -92t105 -51v-120h-275v81z" />
    <glyph glyph-name="estimated" unicode="&#x212e;" horiz-adv-x="786" 
d="M219.5 33q-82.5 49 -128.5 134.5t-46 190.5q0 100 44.5 185.5t124 137t179.5 51.5q104 0 182.5 -46.5t122 -131t43.5 -196.5l-1 -23l-556 1v-186q37 -52 96.5 -79t127.5 -27q81 0 146.5 38t100.5 120l63 -26q-34 -82 -115.5 -137t-195.5 -55q-105 0 -187.5 49zM602 393
v196q-34 40 -89 61.5t-120 21.5q-62 0 -116.5 -24t-92.5 -70v-185h418z" />
    <glyph glyph-name="onethird" unicode="&#x2153;" horiz-adv-x="805" 
d="M137 632l-52 -43l-37 48l98 79h56v-366h-65v282zM106 28l466 695l53 -36l-466 -694zM517 17q-37 25 -49 74l60 23q8 -32 28.5 -47.5t45.5 -15.5q26 0 45.5 16.5t19.5 41.5q0 24 -18.5 38.5t-45.5 14.5h-41v56h36q25 0 40.5 14t15.5 36q0 21 -15.5 34t-37.5 13
q-44 0 -62 -45l-57 23q13 37 43.5 59t75.5 22q53 0 86.5 -29.5t33.5 -75.5t-46 -76q58 -32 58 -84q0 -53 -38.5 -85t-92.5 -32q-48 0 -85 25z" />
    <glyph glyph-name="twothirds" unicode="&#x2154;" horiz-adv-x="876" 
d="M50 406l135 135q21 22 32.5 39t11.5 37t-16 34t-40 14t-41.5 -15.5t-23.5 -45.5l-60 25q10 44 45 69.5t79 25.5q50 0 86.5 -29.5t36.5 -77.5q0 -31 -18 -58t-44 -53l-97 -97h161v-59h-247v56zM177 28l466 695l53 -36l-466 -694zM585 17q-37 25 -49 74l60 23
q8 -32 28.5 -47.5t45.5 -15.5q26 0 45.5 16.5t19.5 41.5q0 24 -18.5 38.5t-45.5 14.5h-41v56h36q25 0 40.5 14t15.5 36q0 21 -15.5 34t-37.5 13q-44 0 -62 -45l-57 23q13 37 43.5 59t75.5 22q53 0 86.5 -29.5t33.5 -75.5t-46 -76q58 -32 58 -84q0 -53 -38.5 -85t-92.5 -32
q-48 0 -85 25z" />
    <glyph glyph-name="oneeighth" unicode="&#x215b;" horiz-adv-x="795" 
d="M137 632l-52 -43l-37 48l98 79h56v-366h-65v282zM104 28l466 695l53 -36l-466 -694zM541 6q-31 14 -50 39.5t-19 59.5q0 26 14 49t40 39q-18 11 -30 31.5t-12 41.5q0 48 36.5 78t85.5 30t85 -30t36 -78q0 -20 -12 -40.5t-30 -32.5q26 -16 40 -39t14 -49q0 -51 -40 -82
t-93 -31q-34 0 -65 14zM644 232q16 14 16 34t-15.5 34.5t-38.5 14.5q-24 0 -39.5 -14t-15.5 -35t16 -34.5t39 -13.5q22 0 38 14zM651.5 67.5q20.5 16.5 20.5 40.5q0 23 -21 39.5t-45 16.5q-26 0 -46.5 -16t-20.5 -40q0 -25 20 -41t47 -16q25 0 45.5 16.5z" />
    <glyph glyph-name="threeeighths" unicode="&#x215c;" horiz-adv-x="842" 
d="M97 367q-37 25 -49 74l60 23q8 -32 28.5 -47.5t45.5 -15.5q26 0 45.5 16.5t19.5 41.5q0 24 -18.5 38.5t-45.5 14.5h-41v56h36q25 0 40.5 14t15.5 36q0 21 -15.5 34t-37.5 13q-44 0 -62 -45l-57 23q13 37 43.5 59t75.5 22q53 0 86.5 -29.5t33.5 -75.5t-46 -76
q58 -32 58 -84q0 -53 -38.5 -85t-92.5 -32q-48 0 -85 25zM159 28l466 695l53 -36l-466 -694zM588 6q-31 14 -50 39.5t-19 59.5q0 26 14 49t40 39q-18 11 -30 31.5t-12 41.5q0 48 36.5 78t85.5 30t85 -30t36 -78q0 -20 -12 -40.5t-30 -32.5q26 -16 40 -39t14 -49
q0 -51 -40 -82t-93 -31q-34 0 -65 14zM691 232q16 14 16 34t-15.5 34.5t-38.5 14.5q-24 0 -39.5 -14t-15.5 -35t16 -34.5t39 -13.5q22 0 38 14zM698.5 67.5q20.5 16.5 20.5 40.5q0 23 -21 39.5t-45 16.5q-26 0 -46.5 -16t-20.5 -40q0 -25 20 -41t47 -16q25 0 45.5 16.5z" />
    <glyph glyph-name="fiveeighths" unicode="&#x215d;" horiz-adv-x="843" 
d="M98.5 365.5q-37.5 22.5 -50.5 68.5l61 23q6 -26 25.5 -40.5t46.5 -14.5q28 0 47 20t19 49t-19 48.5t-47 19.5q-40 0 -65 -35l-56 23l25 189h207v-56h-153l-12 -86q10 10 27 15.5t35 5.5q52 0 88 -34.5t36 -90.5q0 -36 -18 -65t-48.5 -45.5t-65.5 -16.5q-45 0 -82.5 22.5z
M156 28l466 695l53 -36l-466 -694zM589 6q-31 14 -50 39.5t-19 59.5q0 26 14 49t40 39q-18 11 -30 31.5t-12 41.5q0 48 36.5 78t85.5 30t85 -30t36 -78q0 -20 -12 -40.5t-30 -32.5q26 -16 40 -39t14 -49q0 -51 -40 -82t-93 -31q-34 0 -65 14zM692 232q16 14 16 34
t-15.5 34.5t-38.5 14.5q-24 0 -39.5 -14t-15.5 -35t16 -34.5t39 -13.5q22 0 38 14zM699.5 67.5q20.5 16.5 20.5 40.5q0 23 -21 39.5t-45 16.5q-26 0 -46.5 -16t-20.5 -40q0 -25 20 -41t47 -16q25 0 45.5 16.5z" />
    <glyph glyph-name="seveneighths" unicode="&#x215e;" horiz-adv-x="768" 
d="M63 366l157 291h-172v59h248v-55l-175 -326zM66 28l466 695l53 -36l-466 -694zM514 6q-31 14 -50 39.5t-19 59.5q0 26 14 49t40 39q-18 11 -30 31.5t-12 41.5q0 48 36.5 78t85.5 30t85 -30t36 -78q0 -20 -12 -40.5t-30 -32.5q26 -16 40 -39t14 -49q0 -51 -40 -82t-93 -31
q-34 0 -65 14zM617 232q16 14 16 34t-15.5 34.5t-38.5 14.5q-24 0 -39.5 -14t-15.5 -35t16 -34.5t39 -13.5q22 0 38 14zM624.5 67.5q20.5 16.5 20.5 40.5q0 23 -21 39.5t-45 16.5q-26 0 -46.5 -16t-20.5 -40q0 -25 20 -41t47 -16q25 0 45.5 16.5z" />
    <glyph glyph-name="uni2160" unicode="&#x2160;" horiz-adv-x="439" 
d="M23 81h154v522h-154v81h392v-81h-153v-522h153v-81h-392v81z" />
    <glyph glyph-name="uni2161" unicode="&#x2161;" horiz-adv-x="699" 
d="M23 81h154v522h-154v81h652v-81h-153v-522h153v-81h-652v81zM437 81v522h-175v-522h175z" />
    <glyph glyph-name="uni2162" unicode="&#x2162;" horiz-adv-x="959" 
d="M23 81h154v522h-154v81h912v-81h-153v-522h153v-81h-912v81zM437 81v522h-175v-522h175zM697 81v522h-175v-522h175z" />
    <glyph glyph-name="uni2163" unicode="&#x2163;" horiz-adv-x="981" 
d="M23 81h154v522h-154v81h934v-81h-118l-165 -522h283v-81h-934v81zM551 81l-165 522h-124v-522h289zM614 143l15 52l122 408h-277l121 -408l15 -52h4z" />
    <glyph glyph-name="uni2164" unicode="&#x2164;" horiz-adv-x="737" 
d="M23 81h284l-165 522h-119v81h690v-81h-118l-165 -522h283v-81h-690v81zM370 143l15 52l122 408h-277l121 -408l15 -52h4z" />
    <glyph glyph-name="uni2165" unicode="&#x2165;" horiz-adv-x="1008" 
d="M23 81h284l-165 522h-119v81h934v-81h-153v-522h153v-81h-934v81zM370 143l15 52l122 408h-277l121 -408l15 -52h4zM719 81v522h-124l-165 -522h289z" />
    <glyph glyph-name="uni2166" unicode="&#x2166;" horiz-adv-x="1249" 
d="M23 81h284l-165 522h-119v81h1194v-81h-153v-522h153v-81h-1194v81zM370 143l15 52l122 408h-277l121 -408l15 -52h4zM719 81v522h-124l-165 -522h289zM979 81v522h-175v-522h175z" />
    <glyph glyph-name="uni2167" unicode="&#x2167;" horiz-adv-x="1501" 
d="M23 81h284l-165 522h-119v81h1454v-81h-153v-522h153v-81h-1454v81zM370 143l15 52l122 408h-277l121 -408l15 -52h4zM719 81v522h-124l-165 -522h289zM979 81v522h-175v-522h175zM1239 81v522h-175v-522h175z" />
    <glyph glyph-name="uni2168" unicode="&#x2168;" horiz-adv-x="929" 
d="M23 81h154v522h-154v81h882v-81h-101l-170 -258l175 -264h96v-81h-882v81zM361 81l175 264l-170 258h-104v-522h99zM602 444l104 159h-242l105 -159l16 -24zM710 81l-111 168l-14 21l-14 -21l-111 -168h250z" />
    <glyph glyph-name="uni2169" unicode="&#x2169;" horiz-adv-x="686" 
d="M23 81h95l175 264l-170 258h-100v81h639v-81h-101l-170 -258l175 -264h96v-81h-639v81zM359 444l104 159h-242l105 -159l16 -24zM467 81l-111 168l-14 21l-14 -21l-111 -168h250z" />
    <glyph glyph-name="uni216A" unicode="&#x216a;" horiz-adv-x="929" 
d="M23 81h96l175 264l-171 258h-100v81h882v-81h-153v-522h153v-81h-882v81zM359 444l105 159h-242l105 -159l16 -24zM667 81v522h-105l-170 -258l175 -264h100zM468 81l-111 168l-14 21l-14 -21l-111 -168h250z" />
    <glyph glyph-name="uni216B" unicode="&#x216b;" horiz-adv-x="1189" 
d="M23 81h96l175 264l-171 258h-100v81h1142v-81h-153v-522h153v-81h-1142v81zM359 444l105 159h-242l105 -159l16 -24zM667 81v522h-105l-170 -258l175 -264h100zM927 81v522h-175v-522h175zM468 81l-111 168l-14 21l-14 -21l-111 -168h250z" />
    <glyph glyph-name="uni216C" unicode="&#x216c;" horiz-adv-x="615" 
d="M23 81h130v522h-130v81h345v-81h-130v-522h265v147h85v-228h-565v81z" />
    <glyph glyph-name="uni216D" unicode="&#x216d;" horiz-adv-x="728" 
d="M218.5 30q-81.5 46 -128.5 128t-47 184q0 101 47.5 183t127 128.5t173.5 46.5q63 0 117 -24.5t91 -65.5h4v74h81v-201h-81q-30 64 -84 100t-124 36q-69 0 -130 -33.5t-98.5 -96t-37.5 -147.5t37.5 -148t99.5 -96t133 -33q75 0 131 32.5t100 99.5l70 -44
q-51 -81 -127 -125t-174 -44q-99 0 -180.5 46z" />
    <glyph glyph-name="uni216E" unicode="&#x216e;" horiz-adv-x="727" 
d="M23 81h128v522h-128v81h312q105 0 184 -43.5t122 -121t43 -177.5t-43 -177.5t-122 -121t-184 -43.5h-312v81zM335 81q122 0 192.5 68.5t70.5 192.5t-70.5 192.5t-192.5 68.5h-99v-522h99z" />
    <glyph glyph-name="uni216F" unicode="&#x216f;" horiz-adv-x="977" 
d="M23 81h128v522h-128v81h250l214 -554h4l213 554h250v-81h-128v-522h128v-81h-311v81h98v346l4 128h-4l-216 -555h-73l-216 555h-4l4 -128v-346h98v-81h-311v81z" />
    <glyph glyph-name="uni2180" unicode="&#x2180;" horiz-adv-x="1102" 
d="M208.5 43.5q-79.5 43.5 -122.5 121t-43 177.5t43 177.5t122.5 121t184.5 43.5h282q105 0 184 -43.5t122 -121t43 -177.5t-43 -177.5t-122 -121t-184 -43.5h-282q-105 0 -184.5 43.5zM491 81v522h-98q-122 0 -193 -68.5t-71 -192.5t71 -192.5t193 -68.5h98zM675 81
q121 0 192 68.5t71 192.5t-71 192.5t-192 68.5h-99v-522h99z" />
    <glyph glyph-name="uni2181" unicode="&#x2181;" horiz-adv-x="727" 
d="M23 81h128v522h-128v81h312q105 0 184 -43.5t122 -121t43 -177.5t-43 -177.5t-122 -121t-184 -43.5h-312v81zM335 81q122 0 192.5 68.5t70.5 192.5t-70.5 192.5t-192.5 68.5h-99v-95h46q47 0 85.5 -22.5t60.5 -61t22 -82.5t-22 -82.5t-60.5 -61t-85.5 -22.5h-46v-95h99z
M282 243q42 0 69.5 27.5t27.5 71.5q0 45 -27 72t-70 27h-46v-198h46z" />
    <glyph glyph-name="uni2182" unicode="&#x2182;" horiz-adv-x="1067" 
d="M208.5 43.5q-79.5 43.5 -122.5 121t-43 177.5t43 177.5t122.5 121t184.5 43.5h282q105 0 184 -43.5t122 -121t43 -177.5t-43 -177.5t-122 -121t-184 -43.5h-282q-105 0 -184.5 43.5zM491 81v95h-46q-46 0 -84.5 23t-61 61t-22.5 82t22.5 82t61 61t84.5 23h46v95h-98
q-122 0 -193 -68.5t-71 -192.5t71 -192.5t193 -68.5h98zM675 81q121 0 192 68.5t71 192.5t-71 192.5t-192 68.5h-99v-95h46q47 0 85.5 -22.5t60.5 -61t22 -82.5t-22 -82.5t-60.5 -61t-85.5 -22.5h-46v-95h99zM491 243v198h-46q-42 0 -69.5 -27.5t-27.5 -71.5t27.5 -71.5
t69.5 -27.5h46zM622 243q42 0 69.5 27.5t27.5 71.5q0 45 -27 72t-70 27h-46v-198h46z" />
    <glyph glyph-name="arrowleft" unicode="&#x2190;" horiz-adv-x="1074" 
d="M47 310l186 186v-151h786v-70h-786v-151z" />
    <glyph glyph-name="arrowup" unicode="&#x2191;" horiz-adv-x="451" 
d="M190 631h-151l186 186l187 -186h-152v-748h-70v748z" />
    <glyph glyph-name="arrowright" unicode="&#x2192;" horiz-adv-x="1074" 
d="M840 275h-785v70h785v151l187 -186l-187 -186v151z" />
    <glyph glyph-name="arrowdown" unicode="&#x2193;" horiz-adv-x="451" 
d="M39 41h151v748h70v-748h152l-187 -186z" />
    <glyph glyph-name="uni2196" unicode="&#x2196;" horiz-adv-x="762" 
d="M146 556l-107 -106v263h263l-106 -107l567 -567l-49 -50z" />
    <glyph glyph-name="uni2197" unicode="&#x2197;" horiz-adv-x="762" 
d="M-1 39l568 567l-107 107h263v-263l-106 106l-568 -567z" />
    <glyph glyph-name="uni2198" unicode="&#x2198;" horiz-adv-x="762" 
d="M39 266l107 -107l568 568l49 -50l-567 -568l106 -106h-263v263z" />
    <glyph glyph-name="uni2199" unicode="&#x2199;" horiz-adv-x="762" 
d="M567 109l-568 568l50 50l568 -568l106 107v-263h-263z" />
    <glyph glyph-name="uni21C4" unicode="&#x21c4;" horiz-adv-x="1092" 
d="M859 493h-785v70h785v151l187 -186l-187 -186v151zM47 198l186 186v-151h786v-70h-786v-151z" />
    <glyph glyph-name="partialdiff" unicode="&#x2202;" horiz-adv-x="567" 
d="M161 17q-56 33 -89 90t-33 125q0 71 33 126t87.5 85.5t116.5 30.5q47 0 81 -16t52 -37l4 4q-36 89 -109 144t-171 81l29 74q118 -32 200 -99t124 -160.5t42 -204.5q0 -81 -30.5 -143.5t-86 -97.5t-128.5 -35q-66 0 -122 33zM362 86q36 21 57.5 59t21.5 86t-21 85.5
t-57 58.5t-78 21q-43 0 -80 -21t-58.5 -58.5t-21.5 -85.5t21.5 -86t57.5 -59t79 -21t79 21z" />
    <glyph glyph-name="Delta" unicode="&#x2206;" horiz-adv-x="659" 
d="M281 716h96l267 -716h-629zM522 81l-191 531h-4l-190 -531h385z" />
    <glyph glyph-name="product" unicode="&#x220f;" horiz-adv-x="674" 
d="M80 716h514v-716h-84v635h-346v-635h-84v716z" />
    <glyph glyph-name="summation" unicode="&#x2211;" horiz-adv-x="511" 
d="M49 88l217 278l-217 262v88h431v-81h-338l226 -269l-226 -285h338v-81h-431v88z" />
    <glyph glyph-name="minus" unicode="&#x2212;" horiz-adv-x="558" 
d="M62 306h434v-70h-434v70z" />
    <glyph glyph-name="uni2215" unicode="&#x2215;" horiz-adv-x="429" 
d="M328 716h79l-297 -716h-79z" />
    <glyph glyph-name="radical" unicode="&#x221a;" horiz-adv-x="680" 
d="M12 490h94l106 -338l20 -68h4l22 68l214 664h196v-77h-125l-263 -787h-91z" />
    <glyph glyph-name="infinity" unicode="&#x221e;" horiz-adv-x="739" 
d="M107 126.5q-39 22.5 -61.5 60.5t-22.5 83t22.5 83t61.5 60.5t85 22.5q39 0 68.5 -14t50.5 -34.5t58 -62.5q31 38 54.5 60t54 36.5t70.5 14.5q46 0 84.5 -22t61 -60.5t22.5 -83.5t-22.5 -83.5t-61 -60.5t-84.5 -22q-57 0 -95.5 27.5t-84.5 84.5q-35 -41 -56.5 -62
t-51 -35.5t-68.5 -14.5q-46 0 -85 22.5zM247.5 183q22.5 17 63.5 66l19 21l-19 21q-41 49 -63.5 66t-55.5 17q-43 0 -71 -28.5t-28 -75.5t28 -75.5t71 -28.5q33 0 55.5 17zM618.5 194.5q27.5 28.5 27.5 75.5t-27.5 75.5t-71.5 28.5q-26 0 -46 -10.5t-38 -29.5t-56 -64
q40 -47 57.5 -65t37 -28.5t45.5 -10.5q44 0 71.5 28.5z" />
    <glyph glyph-name="integral" unicode="&#x222b;" horiz-adv-x="343" 
d="M31 -149h15q37 0 60 21.5t23 63.5v693q0 74 44 118.5t118 44.5h21v-77h-14q-38 0 -61 -21.5t-23 -63.5v-694q0 -74 -43.5 -118t-117.5 -44h-22v77z" />
    <glyph glyph-name="approxequal" unicode="&#x2248;" horiz-adv-x="567" 
d="M344.5 351.5q-28.5 9.5 -70.5 27.5q-37 16 -59.5 23.5t-39.5 7.5q-23 0 -38 -16.5t-17 -38.5h-66q0 39 17 69t44.5 46t57.5 16q25 0 53 -9.5t72 -27.5q36 -16 58 -23.5t39 -7.5q23 0 37.5 16.5t16.5 38.5h67q0 -39 -17.5 -69t-45 -46t-57.5 -16q-23 0 -51.5 9.5z
M344.5 161.5q-28.5 9.5 -70.5 27.5q-37 16 -59.5 23.5t-39.5 7.5q-23 0 -38 -16.5t-17 -38.5h-66q0 39 17 69t44.5 46t57.5 16q25 0 53 -9.5t72 -27.5q36 -16 58 -23.5t39 -7.5q23 0 37.5 16.5t16.5 38.5h67q0 -39 -17.5 -69t-45 -46t-57.5 -16q-23 0 -51.5 9.5z" />
    <glyph glyph-name="notequal" unicode="&#x2260;" horiz-adv-x="556" 
d="M353 379l-75 -120h223v-70h-267l-84 -135l-54 33l64 102h-105v70h148l75 120h-223v70h267l85 136l53 -34l-64 -102h105v-70h-148z" />
    <glyph glyph-name="lessequal" unicode="&#x2264;" horiz-adv-x="497" 
d="M55 303v62l383 184v-78l-293 -135v-4l293 -135v-78zM55 70h383v-70h-383v70z" />
    <glyph glyph-name="greaterequal" unicode="&#x2265;" horiz-adv-x="497" 
d="M59 197l293 135v4l-293 135v78l383 -184v-62l-383 -184v78zM59 70h383v-70h-383v70z" />
    <glyph glyph-name="filledbox" unicode="&#x25a0;" horiz-adv-x="857" 
d="M70 716h716v-716h-716v716z" />
    <glyph glyph-name="H22073" unicode="&#x25a1;" horiz-adv-x="857" 
d="M70 716h716v-716h-716v716zM726 60v596h-596v-596h596z" />
    <glyph glyph-name="triagup" unicode="&#x25b2;" horiz-adv-x="870" 
d="M435 748l431 -748h-862z" />
    <glyph glyph-name="uni25B3" unicode="&#x25b3;" horiz-adv-x="870" 
d="M435 748l431 -748h-862zM762 60l-327 567l-326 -567h653z" />
    <glyph glyph-name="lozenge" unicode="&#x25ca;" horiz-adv-x="529" 
d="M23 358l199 358h85l198 -358l-198 -358h-85zM266 77l151 281l-151 280h-4l-150 -280l150 -281h4z" />
    <glyph glyph-name="circle" unicode="&#x25cb;" horiz-adv-x="834" 
d="M230 34.5q-86 50.5 -136.5 136.5t-50.5 187t50.5 187t136.5 136.5t187 50.5t187 -50.5t136.5 -136.5t50.5 -187t-50.5 -187t-136.5 -136.5t-187 -50.5t-187 50.5zM574.5 86.5q72.5 42.5 114.5 115t42 156.5q0 86 -42 158t-114 114t-158 42q-85 0 -157 -42t-114.5 -114.5
t-42.5 -157.5q0 -84 42.5 -156.5t115 -115t156.5 -42.5q85 0 157.5 42.5z" />
    <glyph glyph-name="H18533" unicode="&#x25cf;" horiz-adv-x="834" 
d="M230 34.5q-86 50.5 -136.5 136.5t-50.5 187t50.5 187t136.5 136.5t187 50.5t187 -50.5t136.5 -136.5t50.5 -187t-50.5 -187t-136.5 -136.5t-187 -50.5t-187 50.5z" />
    <glyph glyph-name="uni2713" unicode="&#x2713;" horiz-adv-x="934" 
d="M8 300l50 50l240 -255l578 625l50 -50l-627 -678z" />
    <glyph glyph-name="uni2715" unicode="&#x2715;" horiz-adv-x="728" 
d="M8 44l307 314l-307 314l50 50l306 -315l306 315l50 -50l-308 -314l308 -314l-50 -50l-306 315l-306 -315z" />
    <glyph glyph-name="uni275B" unicode="&#x275b;" horiz-adv-x="351" 
d="M89 413q-33 47 -49 82.5t-16 77.5t20.5 78.5t55.5 58.5t76 22q42 0 76.5 -19.5t54.5 -54t20 -77.5q0 -42 -22.5 -74t-54 -49.5t-57.5 -19.5l-5 -5l109 -155l-76 -52z" />
    <glyph glyph-name="uni275C" unicode="&#x275c;" horiz-adv-x="351" 
d="M54 278l109 155l-5 5q-26 2 -57.5 19.5t-54 49.5t-22.5 74q0 43 20 77.5t54.5 54t76.5 19.5q41 0 76 -22t55.5 -58.5t20.5 -78.5t-16 -77.5t-49 -82.5l-132 -187z" />
    <glyph glyph-name="uni275D" unicode="&#x275d;" horiz-adv-x="709" 
d="M89 413q-33 47 -49 82.5t-16 77.5t20.5 78.5t55.5 58.5t76 22q42 0 76.5 -19.5t54.5 -54t20 -77.5q0 -42 -22.5 -74t-54 -49.5t-57.5 -19.5l-5 -5l109 -155l-76 -52zM440 413q-33 47 -49 82.5t-16 77.5t20.5 78.5t55.5 58.5t76 22q42 0 76.5 -19.5t54.5 -54t20 -77.5
q0 -42 -22.5 -74t-54 -49.5t-57.5 -19.5l-5 -5l109 -155l-76 -52z" />
    <glyph glyph-name="uni275E" unicode="&#x275e;" horiz-adv-x="709" 
d="M54 278l109 155l-5 5q-26 2 -57.5 19.5t-54 49.5t-22.5 74q0 43 20 77.5t54.5 54t76.5 19.5q41 0 76 -22t55.5 -58.5t20.5 -78.5t-16 -77.5t-49 -82.5l-132 -187zM405 278l109 155l-5 5q-26 2 -57.5 19.5t-54 49.5t-22.5 74q0 43 20 77.5t54.5 54t76.5 19.5q41 0 76 -22
t55.5 -58.5t20.5 -78.5t-16 -77.5t-49 -82.5l-132 -187z" />
    <glyph glyph-name="uni2780" unicode="&#x2780;" horiz-adv-x="850" 
d="M238 34.5q-86 50.5 -136.5 136.5t-50.5 187t50.5 187t136.5 136.5t187 50.5t187 -50.5t136.5 -136.5t50.5 -187t-50.5 -187t-136.5 -136.5t-187 -50.5t-187 50.5zM583 86.5q72 42.5 114 115t42 156.5q0 86 -42 158t-114 114t-158 42q-84 0 -156.5 -42t-115 -114.5
t-42.5 -157.5q0 -84 42.5 -156.5t115 -115t156.5 -42.5q86 0 158 42.5zM407 459l-52 -43l-37 48l98 79h56v-366h-65v282z" />
    <glyph glyph-name="uni2781" unicode="&#x2781;" horiz-adv-x="850" 
d="M238 34.5q-86 50.5 -136.5 136.5t-50.5 187t50.5 187t136.5 136.5t187 50.5t187 -50.5t136.5 -136.5t50.5 -187t-50.5 -187t-136.5 -136.5t-187 -50.5t-187 50.5zM583 86.5q72 42.5 114 115t42 156.5q0 86 -42 158t-114 114t-158 42q-84 0 -156.5 -42t-115 -114.5
t-42.5 -157.5q0 -84 42.5 -156.5t115 -115t156.5 -42.5q86 0 158 42.5zM301 233l135 135q21 22 32.5 39t11.5 37t-16 34t-40 14t-41.5 -15.5t-23.5 -45.5l-60 25q10 44 45 69.5t79 25.5q50 0 86.5 -29.5t36.5 -77.5q0 -31 -18 -58t-44 -53l-97 -97h161v-59h-247v56z" />
    <glyph glyph-name="uni2782" unicode="&#x2782;" horiz-adv-x="850" 
d="M238 34.5q-86 50.5 -136.5 136.5t-50.5 187t50.5 187t136.5 136.5t187 50.5t187 -50.5t136.5 -136.5t50.5 -187t-50.5 -187t-136.5 -136.5t-187 -50.5t-187 50.5zM583 86.5q72 42.5 114 115t42 156.5q0 86 -42 158t-114 114t-158 42q-84 0 -156.5 -42t-115 -114.5
t-42.5 -157.5q0 -84 42.5 -156.5t115 -115t156.5 -42.5q86 0 158 42.5zM338 194q-37 25 -49 74l60 23q8 -32 28.5 -47.5t45.5 -15.5q26 0 45.5 16.5t19.5 41.5q0 24 -18.5 38.5t-45.5 14.5h-41v56h36q25 0 40.5 14t15.5 36q0 21 -15.5 34t-37.5 13q-44 0 -62 -45l-57 23
q13 37 43.5 59t75.5 22q53 0 86.5 -29.5t33.5 -75.5t-46 -76q58 -32 58 -84q0 -53 -38.5 -85t-92.5 -32q-48 0 -85 25z" />
    <glyph glyph-name="uni2783" unicode="&#x2783;" horiz-adv-x="850" 
d="M238 34.5q-86 50.5 -136.5 136.5t-50.5 187t50.5 187t136.5 136.5t187 50.5t187 -50.5t136.5 -136.5t50.5 -187t-50.5 -187t-136.5 -136.5t-187 -50.5t-187 50.5zM583 86.5q72 42.5 114 115t42 156.5q0 86 -42 158t-114 114t-158 42q-84 0 -156.5 -42t-115 -114.5
t-42.5 -157.5q0 -84 42.5 -156.5t115 -115t156.5 -42.5q86 0 158 42.5zM432 251h-172v44l176 248h61v-236h49v-56h-49v-74h-65v74zM432 307v137h-4l-98 -137h102z" />
    <glyph glyph-name="uni2784" unicode="&#x2784;" horiz-adv-x="850" 
d="M238 34.5q-86 50.5 -136.5 136.5t-50.5 187t50.5 187t136.5 136.5t187 50.5t187 -50.5t136.5 -136.5t50.5 -187t-50.5 -187t-136.5 -136.5t-187 -50.5t-187 50.5zM583 86.5q72 42.5 114 115t42 156.5q0 86 -42 158t-114 114t-158 42q-84 0 -156.5 -42t-115 -114.5
t-42.5 -157.5q0 -84 42.5 -156.5t115 -115t156.5 -42.5q86 0 158 42.5zM343.5 191.5q-37.5 22.5 -50.5 68.5l61 23q6 -26 25.5 -40.5t46.5 -14.5q28 0 47 20t19 49t-19 48.5t-47 19.5q-40 0 -65 -35l-56 23l25 189h207v-56h-153l-12 -86q10 10 27 15.5t35 5.5q52 0 88 -34.5
t36 -90.5q0 -36 -18 -65t-48.5 -45.5t-65.5 -16.5q-45 0 -82.5 22.5z" />
    </font>
</defs>
</svg>
