<svg width="132" height="132" fill="none" xmlns="http://www.w3.org/2000/svg"><path d="M117 26H15v102h102V26z" fill="#D2E3FC"/><path d="M99.68 87.392c0-1.25-.29-2.79-2.791-6.64a7.919 7.919 0 010-8.467c2.502-3.85 2.79-5.389 2.79-6.64 0-1.25-.288-2.79-2.79-6.64l-10.2-14.626C82.166 37.836 74.564 33.506 66 33.506s-16.166 4.33-20.689 10.873l-10.2 14.627c-2.502 3.849-2.79 5.388-2.79 6.64 0 1.25.288 2.79 2.79 6.639a7.919 7.919 0 010 8.468c-2.502 3.849-2.79 5.389-2.79 6.64 0 1.25.288 2.79 2.79 6.64a7.919 7.919 0 010 8.467c-2.502 3.849-2.79 5.389-2.79 6.64 0 1.251.288 2.79 2.79 6.639a7.919 7.919 0 010 8.468H96.89a7.919 7.919 0 010-8.468c2.502-3.849 2.79-5.388 2.79-6.639 0-1.251-.288-2.791-2.79-6.64a7.919 7.919 0 010-8.468c2.502-3.849 2.79-5.292 2.79-6.64z" fill="#3C4043"/><path d="M47.717 57.658c0 10.104 8.18 18.284 18.283 18.284 10.104 0 18.283-8.18 18.283-18.283H47.717z" fill="#9AA0A6"/><path d="M104.491 128v-4.715c0-12.51-6.063-24.25-16.359-31.37L65.52 76.038 42.906 91.915c-10.2 7.217-16.359 18.86-16.359 31.37V128" fill="#4285F4"/><path d="M50.604 86.43v11.162c0 8.468 6.832 15.397 15.396 15.397 8.468 0 15.396-6.832 15.396-15.397V86.43" stroke="#3C4043" stroke-miterlimit="10"/><path d="M113.487 11.018l1.402 8.334c.1.605.39 1.163.831 1.596.44.433 1.007.717 1.62.813l8.49 1.314a2.967 2.967 0 011.628.81 2.9 2.9 0 01.835 1.598 2.85 2.85 0 01-.277 1.774c-.281.546-.73.99-1.284 1.266l-7.627 3.852c-.543.28-.983.72-1.26 1.259a2.87 2.87 0 00-.284 1.749l1.394 8.332a2.862 2.862 0 01-.291 1.756c-.281.54-.728.977-1.277 1.252a2.966 2.966 0 01-3.393-.529l-6.105-5.977a2.977 2.977 0 00-3.417-.53l-7.627 3.852a2.965 2.965 0 01-3.394-.522 2.899 2.899 0 01-.839-1.58 2.857 2.857 0 01.254-1.76l3.848-7.522a2.85 2.85 0 00.264-1.754 2.89 2.89 0 00-.826-1.58l-6.105-5.977a2.898 2.898 0 01-.841-1.596 2.857 2.857 0 01.271-1.774 2.898 2.898 0 011.28-1.271 2.965 2.965 0 011.797-.28l8.49 1.315a2.975 2.975 0 001.794-.284 2.908 2.908 0 001.278-1.27l3.848-7.52a2.9 2.9 0 011.276-1.271 2.966 2.966 0 013.416.529c.441.432.732.991.831 1.596z" fill="#FBBC04"/></svg>
