<?xml version="1.0" standalone="no"?><svg xmlns="http://www.w3.org/2000/svg" viewBox="0 0 1440 320"><path fill="#c5cae9" fill-opacity="1" d="M0,128L34.3,106.7C68.6,85,137,43,206,48C274.3,53,343,107,411,117.3C480,128,549,96,617,74.7C685.7,53,754,43,823,37.3C891.4,32,960,32,1029,42.7C1097.1,53,1166,75,1234,80C1302.9,85,1371,75,1406,69.3L1440,64L1440,320L1405.7,320C1371.4,320,1303,320,1234,320C1165.7,320,1097,320,1029,320C960,320,891,320,823,320C754.3,320,686,320,617,320C548.6,320,480,320,411,320C342.9,320,274,320,206,320C137.1,320,69,320,34,320L0,320Z"></path></svg>